solid OpenSCAD_Model
  facet normal -1 0 0
    outer loop
      vertex -34 2.4 -6.4
      vertex -34 37.6 -0.8
      vertex -34 37.6 -6.4
    endloop
  endfacet
  facet normal -1 -0 0
    outer loop
      vertex -34 37.6 -0.8
      vertex -34 2.4 -6.4
      vertex -34 2.4 -0.8
    endloop
  endfacet
  facet normal 0 -1 0
    outer loop
      vertex 4.01316 2.4 -6.4
      vertex -34 2.4 -0.8
      vertex -34 2.4 -6.4
    endloop
  endfacet
  facet normal 0 -1 0
    outer loop
      vertex -34 2.4 -0.8
      vertex 4.01316 2.4 -6.4
      vertex 6.05139 2.4 -0.8
    endloop
  endfacet
  facet normal 0 1 -0
    outer loop
      vertex 4.01316 37.6 -6.4
      vertex -34 37.6 -0.8
      vertex 6.05139 37.6 -0.8
    endloop
  endfacet
  facet normal 0 1 0
    outer loop
      vertex -34 37.6 -0.8
      vertex 4.01316 37.6 -6.4
      vertex -34 37.6 -6.4
    endloop
  endfacet
  facet normal 0 0 -1
    outer loop
      vertex 4.01316 2.4 -6.4
      vertex -0.208318 14.95 -6.4
      vertex 4.01316 14.95 -6.4
    endloop
  endfacet
  facet normal 0 0 -1
    outer loop
      vertex -0.208318 14.95 -6.4
      vertex -28.2 15.2 -6.4
      vertex -0.208318 15.2 -6.4
    endloop
  endfacet
  facet normal 0 0 -1
    outer loop
      vertex 4.01316 2.4 -6.4
      vertex -28.2 15.2 -6.4
      vertex -0.208318 14.95 -6.4
    endloop
  endfacet
  facet normal 0 0 -1
    outer loop
      vertex -34 37.6 -6.4
      vertex -28.2 15.2 -6.4
      vertex -34 2.4 -6.4
    endloop
  endfacet
  facet normal 0 0 -1
    outer loop
      vertex -34 2.4 -6.4
      vertex -28.2 15.2 -6.4
      vertex 4.01316 2.4 -6.4
    endloop
  endfacet
  facet normal 0 0 -1
    outer loop
      vertex 3.97322 25.3 -6.4
      vertex 4.01316 25.05 -6.4
      vertex 3.97322 25.05 -6.4
    endloop
  endfacet
  facet normal 0 0 -1
    outer loop
      vertex 4.01316 25.05 -6.4
      vertex 3.97322 25.3 -6.4
      vertex 4.01316 37.6 -6.4
    endloop
  endfacet
  facet normal 0 0 -1
    outer loop
      vertex -28.2 25.3 -6.4
      vertex 4.01316 37.6 -6.4
      vertex 3.97322 25.3 -6.4
    endloop
  endfacet
  facet normal 0 0 -1
    outer loop
      vertex -28.2 25.3 -6.4
      vertex -34 37.6 -6.4
      vertex 4.01316 37.6 -6.4
    endloop
  endfacet
  facet normal 0 0 -1
    outer loop
      vertex -28.2 15.2 -6.4
      vertex -34 37.6 -6.4
      vertex -28.2 25.3 -6.4
    endloop
  endfacet
  facet normal 0 0 1
    outer loop
      vertex 6.05139 37.6 -0.8
      vertex -24 27.55 -0.8
      vertex 6.05139 27.55 -0.8
    endloop
  endfacet
  facet normal 0 0 1
    outer loop
      vertex -24 27.55 -0.8
      vertex -27.7668 27.55 -0.8
      vertex -24 12.45 -0.8
    endloop
  endfacet
  facet normal -0 0 1
    outer loop
      vertex -34 37.6 -0.8
      vertex -24 27.55 -0.8
      vertex 6.05139 37.6 -0.8
    endloop
  endfacet
  facet normal 0 0 1
    outer loop
      vertex -24 27.55 -0.8
      vertex -34 37.6 -0.8
      vertex -27.7668 27.55 -0.8
    endloop
  endfacet
  facet normal 0 0 1
    outer loop
      vertex -28.738 27.55 -0.8
      vertex -34 37.6 -0.8
      vertex -28.738 12.45 -0.8
    endloop
  endfacet
  facet normal 0 0 1
    outer loop
      vertex -27.7668 27.55 -0.8
      vertex -34 37.6 -0.8
      vertex -28.738 27.55 -0.8
    endloop
  endfacet
  facet normal -0 0 1
    outer loop
      vertex -24 12.45 -0.8
      vertex 6.05139 2.4 -0.8
      vertex 6.05139 12.45 -0.8
    endloop
  endfacet
  facet normal 0 0 1
    outer loop
      vertex -27.7668 12.45 -0.8
      vertex -24 12.45 -0.8
      vertex -27.7668 27.55 -0.8
    endloop
  endfacet
  facet normal 0 0 1
    outer loop
      vertex -34 2.4 -0.8
      vertex -24 12.45 -0.8
      vertex -27.7668 12.45 -0.8
    endloop
  endfacet
  facet normal 0 0 1
    outer loop
      vertex -34 2.4 -0.8
      vertex -27.7668 12.45 -0.8
      vertex -28.738 12.45 -0.8
    endloop
  endfacet
  facet normal 0 0 1
    outer loop
      vertex -24 12.45 -0.8
      vertex -34 2.4 -0.8
      vertex 6.05139 2.4 -0.8
    endloop
  endfacet
  facet normal 0 0 1
    outer loop
      vertex -34 2.4 -0.8
      vertex -28.738 12.45 -0.8
      vertex -34 37.6 -0.8
    endloop
  endfacet
  facet normal -1 0 0
    outer loop
      vertex -24 12.45 -0.8
      vertex -24 27.55 5.72436
      vertex -24 27.55 -0.8
    endloop
  endfacet
  facet normal -1 -0 0
    outer loop
      vertex -24 27.55 5.72436
      vertex -24 12.45 -0.8
      vertex -24 12.45 5.72436
    endloop
  endfacet
  facet normal 0 -1 0
    outer loop
      vertex -13.6795 12.45 23.6
      vertex 7.4 12.45 18.1
      vertex 14.9323 12.45 23.6
    endloop
  endfacet
  facet normal 0 -1 0
    outer loop
      vertex -13.6795 12.45 23.6
      vertex 7.4 12.45 14.1
      vertex 7.4 12.45 18.1
    endloop
  endfacet
  facet normal 0 -1 0
    outer loop
      vertex 4.6 12.45 6.1
      vertex 7.4 12.45 14.1
      vertex 2.8 12.45 6.1
    endloop
  endfacet
  facet normal 0 -1 0
    outer loop
      vertex -13.6795 12.45 23.6
      vertex 2.8 12.45 6.1
      vertex 7.4 12.45 14.1
    endloop
  endfacet
  facet normal 0 -1 0
    outer loop
      vertex -24 12.45 5.72436
      vertex 2.8 12.45 6.1
      vertex -13.6795 12.45 23.6
    endloop
  endfacet
  facet normal 0 -1 0
    outer loop
      vertex -24 12.45 5.72436
      vertex 2.8 12.45 2.1
      vertex 2.8 12.45 6.1
    endloop
  endfacet
  facet normal 0 -1 0
    outer loop
      vertex 6.05139 12.45 -0.8
      vertex 2.8 12.45 2.1
      vertex -24 12.45 -0.8
    endloop
  endfacet
  facet normal 0 -1 0
    outer loop
      vertex -24 12.45 -0.8
      vertex 2.8 12.45 2.1
      vertex -24 12.45 5.72436
    endloop
  endfacet
  facet normal 0 -1 0
    outer loop
      vertex 9.2 12.45 18.1
      vertex 14.9323 12.45 23.6
      vertex 7.4 12.45 18.1
    endloop
  endfacet
  facet normal 0 -1 0
    outer loop
      vertex 9.2 12.45 14.1
      vertex 14.9323 12.45 23.6
      vertex 9.2 12.45 18.1
    endloop
  endfacet
  facet normal 0 -1 -0
    outer loop
      vertex 7.4 12.45 14.1
      vertex 4.6 12.45 6.1
      vertex 9.2 12.45 14.1
    endloop
  endfacet
  facet normal 0 -1 0
    outer loop
      vertex 6.05139 12.45 -0.8
      vertex 9.2 12.45 14.1
      vertex 4.6 12.45 6.1
    endloop
  endfacet
  facet normal 0 -1 0
    outer loop
      vertex 6.05139 12.45 -0.8
      vertex 4.6 12.45 6.1
      vertex 4.6 12.45 2.1
    endloop
  endfacet
  facet normal 0 -1 -0
    outer loop
      vertex 9.2 12.45 14.1
      vertex 6.05139 12.45 -0.8
      vertex 14.9323 12.45 23.6
    endloop
  endfacet
  facet normal 0 -1 0
    outer loop
      vertex 2.8 12.45 2.1
      vertex 6.05139 12.45 -0.8
      vertex 4.6 12.45 2.1
    endloop
  endfacet
  facet normal 0 1 0
    outer loop
      vertex -27.7668 12.45 -0.8
      vertex -28.0096 12.45 -1.22051
      vertex -28.738 12.45 -0.8
    endloop
  endfacet
  facet normal 0 0 1
    outer loop
      vertex 14.9323 27.55 23.6
      vertex 11.7354 25.3 23.6
      vertex 14.9323 25.05 23.6
    endloop
  endfacet
  facet normal -0 0 1
    outer loop
      vertex -13.6795 27.55 23.6
      vertex 11.7354 25.3 23.6
      vertex 14.9323 27.55 23.6
    endloop
  endfacet
  facet normal 0 0 1
    outer loop
      vertex 11.7354 25.3 23.6
      vertex -13.6795 27.55 23.6
      vertex -13.6795 25.3 23.6
    endloop
  endfacet
  facet normal 0 0 1
    outer loop
      vertex 14.9323 25.05 23.6
      vertex 11.7354 25.3 23.6
      vertex 11.7354 25.05 23.6
    endloop
  endfacet
  facet normal 0 0 1
    outer loop
      vertex 11.3076 15.2 23.6
      vertex -13.6795 15.2 23.6
      vertex 11.3076 14.95 23.6
    endloop
  endfacet
  facet normal -0 0 1
    outer loop
      vertex 11.3076 14.95 23.6
      vertex 14.9323 12.45 23.6
      vertex 14.9323 14.95 23.6
    endloop
  endfacet
  facet normal 0 0 1
    outer loop
      vertex -13.6795 12.45 23.6
      vertex 11.3076 14.95 23.6
      vertex -13.6795 15.2 23.6
    endloop
  endfacet
  facet normal 0 0 1
    outer loop
      vertex 11.3076 14.95 23.6
      vertex -13.6795 12.45 23.6
      vertex 14.9323 12.45 23.6
    endloop
  endfacet
  facet normal 0 1 0
    outer loop
      vertex 7.4 27.55 18.1
      vertex 14.9323 27.55 23.6
      vertex 9.2 27.55 18.1
    endloop
  endfacet
  facet normal 0 1 0
    outer loop
      vertex 14.9323 27.55 23.6
      vertex 9.2 27.55 14.1
      vertex 9.2 27.55 18.1
    endloop
  endfacet
  facet normal 0 1 0
    outer loop
      vertex 9.2 27.55 14.1
      vertex 4.6 27.55 6.1
      vertex 7.4 27.55 14.1
    endloop
  endfacet
  facet normal 0 1 0
    outer loop
      vertex 6.05139 27.55 -0.8
      vertex 9.2 27.55 14.1
      vertex 14.9323 27.55 23.6
    endloop
  endfacet
  facet normal 0 1 0
    outer loop
      vertex 9.2 27.55 14.1
      vertex 6.05139 27.55 -0.8
      vertex 4.6 27.55 6.1
    endloop
  endfacet
  facet normal 0 1 0
    outer loop
      vertex 4.6 27.55 2.1
      vertex 6.05139 27.55 -0.8
      vertex 2.8 27.55 2.1
    endloop
  endfacet
  facet normal 0 1 0
    outer loop
      vertex 4.6 27.55 6.1
      vertex 6.05139 27.55 -0.8
      vertex 4.6 27.55 2.1
    endloop
  endfacet
  facet normal 0 1 0
    outer loop
      vertex 14.9323 27.55 23.6
      vertex 7.4 27.55 18.1
      vertex -13.6795 27.55 23.6
    endloop
  endfacet
  facet normal 0 1 -0
    outer loop
      vertex 7.4 27.55 14.1
      vertex -13.6795 27.55 23.6
      vertex 7.4 27.55 18.1
    endloop
  endfacet
  facet normal 0 1 0
    outer loop
      vertex 2.8 27.55 6.1
      vertex 7.4 27.55 14.1
      vertex 4.6 27.55 6.1
    endloop
  endfacet
  facet normal 0 1 0
    outer loop
      vertex 7.4 27.55 14.1
      vertex 2.8 27.55 6.1
      vertex -13.6795 27.55 23.6
    endloop
  endfacet
  facet normal 0 1 0
    outer loop
      vertex 2.8 27.55 6.1
      vertex -24 27.55 5.72436
      vertex -13.6795 27.55 23.6
    endloop
  endfacet
  facet normal 0 1 -0
    outer loop
      vertex 2.8 27.55 2.1
      vertex -24 27.55 5.72436
      vertex 2.8 27.55 6.1
    endloop
  endfacet
  facet normal 0 1 0
    outer loop
      vertex -24 27.55 -0.8
      vertex 2.8 27.55 2.1
      vertex 6.05139 27.55 -0.8
    endloop
  endfacet
  facet normal 0 1 0
    outer loop
      vertex 2.8 27.55 2.1
      vertex -24 27.55 -0.8
      vertex -24 27.55 5.72436
    endloop
  endfacet
  facet normal 0 -1 0
    outer loop
      vertex -28.0096 27.55 -1.22051
      vertex -27.7668 27.55 -0.8
      vertex -28.738 27.55 -0.8
    endloop
  endfacet
  facet normal 1 -0 0
    outer loop
      vertex 7.4 12.45 18.1
      vertex 7.4 27.55 14.1
      vertex 7.4 27.55 18.1
    endloop
  endfacet
  facet normal 1 0 0
    outer loop
      vertex 7.4 27.55 14.1
      vertex 7.4 12.45 18.1
      vertex 7.4 12.45 14.1
    endloop
  endfacet
  facet normal -1 0 0
    outer loop
      vertex 9.2 25.05 14.1
      vertex 9.2 27.55 18.1
      vertex 9.2 27.55 14.1
    endloop
  endfacet
  facet normal -1 -0 0
    outer loop
      vertex 9.2 27.55 18.1
      vertex 9.2 25.05 14.1
      vertex 9.2 25.05 18.1
    endloop
  endfacet
  facet normal -1 0 0
    outer loop
      vertex 9.2 12.45 14.1
      vertex 9.2 14.95 18.1
      vertex 9.2 14.95 14.1
    endloop
  endfacet
  facet normal -1 -0 0
    outer loop
      vertex 9.2 14.95 18.1
      vertex 9.2 12.45 14.1
      vertex 9.2 12.45 18.1
    endloop
  endfacet
  facet normal 0 0 1
    outer loop
      vertex 9.2 27.55 14.1
      vertex 7.66089 25.05 14.1
      vertex 9.2 25.05 14.1
    endloop
  endfacet
  facet normal 0 0 1
    outer loop
      vertex 7.66089 25.05 14.1
      vertex 7.4 27.55 14.1
      vertex 7.66089 14.95 14.1
    endloop
  endfacet
  facet normal -0 0 1
    outer loop
      vertex 7.4 27.55 14.1
      vertex 7.66089 25.05 14.1
      vertex 9.2 27.55 14.1
    endloop
  endfacet
  facet normal -0 0 1
    outer loop
      vertex 7.66089 14.95 14.1
      vertex 9.2 12.45 14.1
      vertex 9.2 14.95 14.1
    endloop
  endfacet
  facet normal 0 0 1
    outer loop
      vertex 7.66089 14.95 14.1
      vertex 7.4 12.45 14.1
      vertex 9.2 12.45 14.1
    endloop
  endfacet
  facet normal 0 0 1
    outer loop
      vertex 7.4 12.45 14.1
      vertex 7.66089 14.95 14.1
      vertex 7.4 27.55 14.1
    endloop
  endfacet
  facet normal 0 0 -1
    outer loop
      vertex 9.2 12.45 18.1
      vertex 9.19635 14.95 18.1
      vertex 9.2 14.95 18.1
    endloop
  endfacet
  facet normal -0 0 -1
    outer loop
      vertex 9.19635 14.95 18.1
      vertex 7.4 12.45 18.1
      vertex 9.19635 25.05 18.1
    endloop
  endfacet
  facet normal 0 0 -1
    outer loop
      vertex 7.4 12.45 18.1
      vertex 9.19635 14.95 18.1
      vertex 9.2 12.45 18.1
    endloop
  endfacet
  facet normal 0 0 -1
    outer loop
      vertex 9.19635 25.05 18.1
      vertex 9.2 27.55 18.1
      vertex 9.2 25.05 18.1
    endloop
  endfacet
  facet normal 0 0 -1
    outer loop
      vertex 7.4 27.55 18.1
      vertex 9.19635 25.05 18.1
      vertex 7.4 12.45 18.1
    endloop
  endfacet
  facet normal 0 0 -1
    outer loop
      vertex 9.19635 25.05 18.1
      vertex 7.4 27.55 18.1
      vertex 9.2 27.55 18.1
    endloop
  endfacet
  facet normal 1 -0 0
    outer loop
      vertex 2.8 12.45 6.1
      vertex 2.8 27.55 2.1
      vertex 2.8 27.55 6.1
    endloop
  endfacet
  facet normal 1 0 0
    outer loop
      vertex 2.8 27.55 2.1
      vertex 2.8 12.45 6.1
      vertex 2.8 12.45 2.1
    endloop
  endfacet
  facet normal -1 0 0
    outer loop
      vertex 4.6 25.05 2.1
      vertex 4.6 27.55 6.1
      vertex 4.6 27.55 2.1
    endloop
  endfacet
  facet normal -1 -0 0
    outer loop
      vertex 4.6 27.55 6.1
      vertex 4.6 25.05 2.1
      vertex 4.6 25.05 6.1
    endloop
  endfacet
  facet normal -1 0 0
    outer loop
      vertex 4.6 12.45 2.1
      vertex 4.6 14.95 6.1
      vertex 4.6 14.95 2.1
    endloop
  endfacet
  facet normal -1 -0 0
    outer loop
      vertex 4.6 14.95 6.1
      vertex 4.6 12.45 2.1
      vertex 4.6 12.45 6.1
    endloop
  endfacet
  facet normal 0 0 1
    outer loop
      vertex 4.6 27.55 2.1
      vertex 3.05453 25.05 2.1
      vertex 4.6 25.05 2.1
    endloop
  endfacet
  facet normal 0 0 1
    outer loop
      vertex 3.05453 25.05 2.1
      vertex 2.8 27.55 2.1
      vertex 3.05453 14.95 2.1
    endloop
  endfacet
  facet normal -0 0 1
    outer loop
      vertex 2.8 27.55 2.1
      vertex 3.05453 25.05 2.1
      vertex 4.6 27.55 2.1
    endloop
  endfacet
  facet normal -0 0 1
    outer loop
      vertex 3.05453 14.95 2.1
      vertex 4.6 12.45 2.1
      vertex 4.6 14.95 2.1
    endloop
  endfacet
  facet normal 0 0 1
    outer loop
      vertex 3.05453 14.95 2.1
      vertex 2.8 12.45 2.1
      vertex 4.6 12.45 2.1
    endloop
  endfacet
  facet normal 0 0 1
    outer loop
      vertex 2.8 12.45 2.1
      vertex 3.05453 14.95 2.1
      vertex 2.8 27.55 2.1
    endloop
  endfacet
  facet normal 0 0 -1
    outer loop
      vertex 4.6 12.45 6.1
      vertex 4.58998 14.95 6.1
      vertex 4.6 14.95 6.1
    endloop
  endfacet
  facet normal -0 0 -1
    outer loop
      vertex 4.58998 14.95 6.1
      vertex 2.8 12.45 6.1
      vertex 4.58998 25.05 6.1
    endloop
  endfacet
  facet normal 0 0 -1
    outer loop
      vertex 2.8 12.45 6.1
      vertex 4.58998 14.95 6.1
      vertex 4.6 12.45 6.1
    endloop
  endfacet
  facet normal 0 0 -1
    outer loop
      vertex 4.58998 25.05 6.1
      vertex 4.6 27.55 6.1
      vertex 4.6 25.05 6.1
    endloop
  endfacet
  facet normal 0 0 -1
    outer loop
      vertex 2.8 27.55 6.1
      vertex 4.58998 25.05 6.1
      vertex 2.8 12.45 6.1
    endloop
  endfacet
  facet normal 0 0 -1
    outer loop
      vertex 4.58998 25.05 6.1
      vertex 2.8 27.55 6.1
      vertex 4.6 27.55 6.1
    endloop
  endfacet
  facet normal 0 1 0
    outer loop
      vertex 11.3076 15.2 23.6
      vertex 8.82518 15.2 19.6
      vertex -13.6795 15.2 23.6
    endloop
  endfacet
  facet normal -0 1 0
    outer loop
      vertex 8.82518 15.2 19.6
      vertex 11.3076 15.2 23.6
      vertex 9.72367 15.2 19.4737
    endloop
  endfacet
  facet normal 0 1 0
    outer loop
      vertex -13.6795 15.2 23.6
      vertex 8.82518 15.2 19.6
      vertex -15.9889 15.2 19.6
    endloop
  endfacet
  facet normal -0.990268 0 0.139173
    outer loop
      vertex 11.1277 25.05 19.2764
      vertex 11.7354 25.3 23.6
      vertex 11.1277 25.3 19.2764
    endloop
  endfacet
  facet normal -0.990268 0 0.139173
    outer loop
      vertex 11.7354 25.3 23.6
      vertex 11.1277 25.05 19.2764
      vertex 11.7354 25.05 23.6
    endloop
  endfacet
  facet normal 0 -1 0
    outer loop
      vertex 8.82518 25.3 19.6
      vertex -13.6795 25.3 23.6
      vertex -15.9889 25.3 19.6
    endloop
  endfacet
  facet normal 0 -1 0
    outer loop
      vertex -13.6795 25.3 23.6
      vertex 8.82518 25.3 19.6
      vertex 11.7354 25.3 23.6
    endloop
  endfacet
  facet normal 0 -1 0
    outer loop
      vertex 11.7354 25.3 23.6
      vertex 8.82518 25.3 19.6
      vertex 11.1277 25.3 19.2764
    endloop
  endfacet
  facet normal 0.139173 0 0.990268
    outer loop
      vertex 11.1277 25.3 19.2764
      vertex 9.72367 25.05 19.4737
      vertex 11.1277 25.05 19.2764
    endloop
  endfacet
  facet normal 0.139173 1.22906e-006 0.990268
    outer loop
      vertex 8.82518 25.3 19.6
      vertex 9.72367 25.05 19.4737
      vertex 11.1277 25.3 19.2764
    endloop
  endfacet
  facet normal 0.139173 -0 0.990268
    outer loop
      vertex 8.82518 15.2 19.6
      vertex 9.72367 25.05 19.4737
      vertex 8.82518 25.3 19.6
    endloop
  endfacet
  facet normal 0.139173 0 0.990268
    outer loop
      vertex 9.72367 25.05 19.4737
      vertex 8.82518 15.2 19.6
      vertex 9.72367 15.2 19.4737
    endloop
  endfacet
  facet normal 0 0 1
    outer loop
      vertex 8.82518 25.3 19.6
      vertex -5.25 20 19.6
      vertex 8.82518 15.2 19.6
    endloop
  endfacet
  facet normal 0 0 1
    outer loop
      vertex 8.82518 25.3 19.6
      vertex -5.33565 20.5408 19.6
      vertex -5.25 20 19.6
    endloop
  endfacet
  facet normal 0 0 1
    outer loop
      vertex 8.82518 25.3 19.6
      vertex -5.58422 21.0286 19.6
      vertex -5.33565 20.5408 19.6
    endloop
  endfacet
  facet normal 0 0 1
    outer loop
      vertex 8.82518 25.3 19.6
      vertex -5.97138 21.4158 19.6
      vertex -5.58422 21.0286 19.6
    endloop
  endfacet
  facet normal 0 0 1
    outer loop
      vertex 8.82518 25.3 19.6
      vertex -6.45922 21.6643 19.6
      vertex -5.97138 21.4158 19.6
    endloop
  endfacet
  facet normal 0 0 1
    outer loop
      vertex 8.82518 25.3 19.6
      vertex -7 21.75 19.6
      vertex -6.45922 21.6643 19.6
    endloop
  endfacet
  facet normal -0 0 1
    outer loop
      vertex -15.9889 25.3 19.6
      vertex -7 21.75 19.6
      vertex 8.82518 25.3 19.6
    endloop
  endfacet
  facet normal 0 0 1
    outer loop
      vertex -8.66435 20.5408 19.6
      vertex -15.9889 25.3 19.6
      vertex -8.75 20 19.6
    endloop
  endfacet
  facet normal 0 0 1
    outer loop
      vertex -8.41578 21.0286 19.6
      vertex -15.9889 25.3 19.6
      vertex -8.66435 20.5408 19.6
    endloop
  endfacet
  facet normal 0 0 1
    outer loop
      vertex -8.02862 21.4158 19.6
      vertex -15.9889 25.3 19.6
      vertex -8.41578 21.0286 19.6
    endloop
  endfacet
  facet normal 0 0 1
    outer loop
      vertex -7.54078 21.6643 19.6
      vertex -15.9889 25.3 19.6
      vertex -8.02862 21.4158 19.6
    endloop
  endfacet
  facet normal 0 0 1
    outer loop
      vertex -7 21.75 19.6
      vertex -15.9889 25.3 19.6
      vertex -7.54078 21.6643 19.6
    endloop
  endfacet
  facet normal -0 0 1
    outer loop
      vertex -5.33565 19.4592 19.6
      vertex 8.82518 15.2 19.6
      vertex -5.25 20 19.6
    endloop
  endfacet
  facet normal -0 0 1
    outer loop
      vertex -5.58422 18.9714 19.6
      vertex 8.82518 15.2 19.6
      vertex -5.33565 19.4592 19.6
    endloop
  endfacet
  facet normal -0 0 1
    outer loop
      vertex -5.97138 18.5842 19.6
      vertex 8.82518 15.2 19.6
      vertex -5.58422 18.9714 19.6
    endloop
  endfacet
  facet normal -0 0 1
    outer loop
      vertex -6.45922 18.3357 19.6
      vertex 8.82518 15.2 19.6
      vertex -5.97138 18.5842 19.6
    endloop
  endfacet
  facet normal -0 0 1
    outer loop
      vertex -7 18.25 19.6
      vertex 8.82518 15.2 19.6
      vertex -6.45922 18.3357 19.6
    endloop
  endfacet
  facet normal 0 0 1
    outer loop
      vertex -15.9889 15.2 19.6
      vertex -7 18.25 19.6
      vertex -7.54078 18.3357 19.6
    endloop
  endfacet
  facet normal 0 0 1
    outer loop
      vertex -15.9889 15.2 19.6
      vertex -8.75 20 19.6
      vertex -15.9889 25.3 19.6
    endloop
  endfacet
  facet normal 0 0 1
    outer loop
      vertex -8.75 20 19.6
      vertex -15.9889 15.2 19.6
      vertex -8.66435 19.4592 19.6
    endloop
  endfacet
  facet normal 0 0 1
    outer loop
      vertex -8.66435 19.4592 19.6
      vertex -15.9889 15.2 19.6
      vertex -8.41578 18.9714 19.6
    endloop
  endfacet
  facet normal 0 0 1
    outer loop
      vertex -7 18.25 19.6
      vertex -15.9889 15.2 19.6
      vertex 8.82518 15.2 19.6
    endloop
  endfacet
  facet normal 0 0 1
    outer loop
      vertex -8.02862 18.5842 19.6
      vertex -15.9889 15.2 19.6
      vertex -7.54078 18.3357 19.6
    endloop
  endfacet
  facet normal 0 0 1
    outer loop
      vertex -8.41578 18.9714 19.6
      vertex -15.9889 15.2 19.6
      vertex -8.02862 18.5842 19.6
    endloop
  endfacet
  facet normal 0.990268 0 -0.139173
    outer loop
      vertex 3.87226 15.2 11.9236
      vertex 3.82678 25.3 11.6
      vertex 3.87226 25.3 11.9236
    endloop
  endfacet
  facet normal 0.990268 0 -0.139173
    outer loop
      vertex 3.82678 25.3 11.6
      vertex 3.87226 15.2 11.9236
      vertex 3.82678 15.2 11.6
    endloop
  endfacet
  facet normal 0 1 0
    outer loop
      vertex 6.67429 15.2 11.5298
      vertex 3.82678 15.2 11.6
      vertex 3.87226 15.2 11.9236
    endloop
  endfacet
  facet normal 0 1 -0
    outer loop
      vertex 4.78191 15.2 6.6
      vertex 3.82678 15.2 11.6
      vertex 6.67429 15.2 11.5298
    endloop
  endfacet
  facet normal 0 1 0
    outer loop
      vertex 3.82678 15.2 11.6
      vertex 4.78191 15.2 6.6
      vertex -20.6077 15.2 11.6
    endloop
  endfacet
  facet normal 0 1 0
    outer loop
      vertex -20.6077 15.2 11.6
      vertex 4.78191 15.2 6.6
      vertex -23.4944 15.2 6.6
    endloop
  endfacet
  facet normal -0.990268 0 0.139173
    outer loop
      vertex 8.12774 25.05 6.2764
      vertex 8.8236 25.3 11.2277
      vertex 8.12774 25.3 6.2764
    endloop
  endfacet
  facet normal -0.990268 0 0.139173
    outer loop
      vertex 8.8236 25.3 11.2277
      vertex 8.12774 25.05 6.2764
      vertex 8.8236 25.05 11.2277
    endloop
  endfacet
  facet normal -0.139173 0 -0.990268
    outer loop
      vertex 6.67429 15.2 11.5298
      vertex 3.87226 15.2 11.9236
      vertex 6.67429 25.05 11.5298
    endloop
  endfacet
  facet normal -0.139173 0 -0.990268
    outer loop
      vertex 6.67429 25.05 11.5298
      vertex 8.8236 25.3 11.2277
      vertex 8.8236 25.05 11.2277
    endloop
  endfacet
  facet normal -0.139173 2.47805e-006 -0.990268
    outer loop
      vertex 6.67429 25.05 11.5298
      vertex 3.87226 25.3 11.9236
      vertex 8.8236 25.3 11.2277
    endloop
  endfacet
  facet normal -0.139173 -0 -0.990268
    outer loop
      vertex 3.87226 25.3 11.9236
      vertex 6.67429 25.05 11.5298
      vertex 3.87226 15.2 11.9236
    endloop
  endfacet
  facet normal 0 -1 0
    outer loop
      vertex 5.82518 25.3 6.6
      vertex 3.82678 25.3 11.6
      vertex -20.6077 25.3 11.6
    endloop
  endfacet
  facet normal 0 -1 0
    outer loop
      vertex 5.82518 25.3 6.6
      vertex -20.6077 25.3 11.6
      vertex -23.4944 25.3 6.6
    endloop
  endfacet
  facet normal 0 -1 0
    outer loop
      vertex 3.82678 25.3 11.6
      vertex 5.82518 25.3 6.6
      vertex 8.8236 25.3 11.2277
    endloop
  endfacet
  facet normal 0 -1 0
    outer loop
      vertex 8.8236 25.3 11.2277
      vertex 5.82518 25.3 6.6
      vertex 8.12774 25.3 6.2764
    endloop
  endfacet
  facet normal 0 -1 -0
    outer loop
      vertex 3.87226 25.3 11.9236
      vertex 3.82678 25.3 11.6
      vertex 8.8236 25.3 11.2277
    endloop
  endfacet
  facet normal 0.139173 0 0.990268
    outer loop
      vertex 5.82518 25.3 6.6
      vertex 8.12774 25.05 6.2764
      vertex 8.12774 25.3 6.2764
    endloop
  endfacet
  facet normal 0.139173 0 0.990268
    outer loop
      vertex 8.12774 25.05 6.2764
      vertex 5.82518 25.3 6.6
      vertex 5.82518 25.05 6.6
    endloop
  endfacet
  facet normal 0 0 -1
    outer loop
      vertex 3.82678 15.2 11.6
      vertex -5.25 20 11.6
      vertex 3.82678 25.3 11.6
    endloop
  endfacet
  facet normal 0 0 -1
    outer loop
      vertex 3.82678 15.2 11.6
      vertex -5.33565 19.4592 11.6
      vertex -5.25 20 11.6
    endloop
  endfacet
  facet normal 0 0 -1
    outer loop
      vertex 3.82678 15.2 11.6
      vertex -5.58422 18.9714 11.6
      vertex -5.33565 19.4592 11.6
    endloop
  endfacet
  facet normal 0 0 -1
    outer loop
      vertex 3.82678 15.2 11.6
      vertex -5.97138 18.5842 11.6
      vertex -5.58422 18.9714 11.6
    endloop
  endfacet
  facet normal 0 0 -1
    outer loop
      vertex 3.82678 15.2 11.6
      vertex -6.45922 18.3357 11.6
      vertex -5.97138 18.5842 11.6
    endloop
  endfacet
  facet normal 0 0 -1
    outer loop
      vertex 3.82678 15.2 11.6
      vertex -7 18.25 11.6
      vertex -6.45922 18.3357 11.6
    endloop
  endfacet
  facet normal 0 0 -1
    outer loop
      vertex -20.6077 15.2 11.6
      vertex -7 18.25 11.6
      vertex 3.82678 15.2 11.6
    endloop
  endfacet
  facet normal -0 0 -1
    outer loop
      vertex -8.66435 19.4592 11.6
      vertex -20.6077 15.2 11.6
      vertex -8.75 20 11.6
    endloop
  endfacet
  facet normal -0 0 -1
    outer loop
      vertex -8.41578 18.9714 11.6
      vertex -20.6077 15.2 11.6
      vertex -8.66435 19.4592 11.6
    endloop
  endfacet
  facet normal -0 0 -1
    outer loop
      vertex -8.02862 18.5842 11.6
      vertex -20.6077 15.2 11.6
      vertex -8.41578 18.9714 11.6
    endloop
  endfacet
  facet normal -0 0 -1
    outer loop
      vertex -7.54078 18.3357 11.6
      vertex -20.6077 15.2 11.6
      vertex -8.02862 18.5842 11.6
    endloop
  endfacet
  facet normal -0 0 -1
    outer loop
      vertex -7 18.25 11.6
      vertex -20.6077 15.2 11.6
      vertex -7.54078 18.3357 11.6
    endloop
  endfacet
  facet normal 0 0 -1
    outer loop
      vertex -5.33565 20.5408 11.6
      vertex 3.82678 25.3 11.6
      vertex -5.25 20 11.6
    endloop
  endfacet
  facet normal 0 0 -1
    outer loop
      vertex -5.58422 21.0286 11.6
      vertex 3.82678 25.3 11.6
      vertex -5.33565 20.5408 11.6
    endloop
  endfacet
  facet normal 0 0 -1
    outer loop
      vertex -5.97138 21.4158 11.6
      vertex 3.82678 25.3 11.6
      vertex -5.58422 21.0286 11.6
    endloop
  endfacet
  facet normal 0 0 -1
    outer loop
      vertex -6.45922 21.6643 11.6
      vertex 3.82678 25.3 11.6
      vertex -5.97138 21.4158 11.6
    endloop
  endfacet
  facet normal 0 0 -1
    outer loop
      vertex -7 21.75 11.6
      vertex 3.82678 25.3 11.6
      vertex -6.45922 21.6643 11.6
    endloop
  endfacet
  facet normal 0 0 -1
    outer loop
      vertex -20.6077 25.3 11.6
      vertex -7 21.75 11.6
      vertex -7.54078 21.6643 11.6
    endloop
  endfacet
  facet normal 0 0 -1
    outer loop
      vertex -20.6077 25.3 11.6
      vertex -8.75 20 11.6
      vertex -20.6077 15.2 11.6
    endloop
  endfacet
  facet normal 0 0 -1
    outer loop
      vertex -8.75 20 11.6
      vertex -20.6077 25.3 11.6
      vertex -8.66435 20.5408 11.6
    endloop
  endfacet
  facet normal 0 0 -1
    outer loop
      vertex -8.66435 20.5408 11.6
      vertex -20.6077 25.3 11.6
      vertex -8.41578 21.0286 11.6
    endloop
  endfacet
  facet normal 0 0 -1
    outer loop
      vertex -8.41578 21.0286 11.6
      vertex -20.6077 25.3 11.6
      vertex -8.02862 21.4158 11.6
    endloop
  endfacet
  facet normal 0 0 -1
    outer loop
      vertex -7 21.75 11.6
      vertex -20.6077 25.3 11.6
      vertex 3.82678 25.3 11.6
    endloop
  endfacet
  facet normal 0 0 -1
    outer loop
      vertex -8.02862 21.4158 11.6
      vertex -20.6077 25.3 11.6
      vertex -7.54078 21.6643 11.6
    endloop
  endfacet
  facet normal 0 0 1
    outer loop
      vertex 5.82518 25.3 6.6
      vertex 4.78191 25.05 6.6
      vertex 5.82518 25.05 6.6
    endloop
  endfacet
  facet normal 0 0 1
    outer loop
      vertex 4.78191 25.05 6.6
      vertex -5.25 20 6.6
      vertex 4.78191 15.2 6.6
    endloop
  endfacet
  facet normal 0 0 1
    outer loop
      vertex 4.78191 25.05 6.6
      vertex -5.33565 20.5408 6.6
      vertex -5.25 20 6.6
    endloop
  endfacet
  facet normal 0 0 1
    outer loop
      vertex 4.78191 25.05 6.6
      vertex -5.58422 21.0286 6.6
      vertex -5.33565 20.5408 6.6
    endloop
  endfacet
  facet normal 0 0 1
    outer loop
      vertex 4.78191 25.05 6.6
      vertex -5.97138 21.4158 6.6
      vertex -5.58422 21.0286 6.6
    endloop
  endfacet
  facet normal 0 0 1
    outer loop
      vertex 4.78191 25.05 6.6
      vertex -6.45922 21.6643 6.6
      vertex -5.97138 21.4158 6.6
    endloop
  endfacet
  facet normal 0 0 1
    outer loop
      vertex 4.78191 25.05 6.6
      vertex -7 21.75 6.6
      vertex -6.45922 21.6643 6.6
    endloop
  endfacet
  facet normal 0 0 1
    outer loop
      vertex -23.4944 25.3 6.6
      vertex -7 21.75 6.6
      vertex 4.78191 25.05 6.6
    endloop
  endfacet
  facet normal 0 0 1
    outer loop
      vertex -8.66435 20.5408 6.6
      vertex -23.4944 25.3 6.6
      vertex -8.75 20 6.6
    endloop
  endfacet
  facet normal 0 0 1
    outer loop
      vertex -8.41578 21.0286 6.6
      vertex -23.4944 25.3 6.6
      vertex -8.66435 20.5408 6.6
    endloop
  endfacet
  facet normal 0 0 1
    outer loop
      vertex -8.02862 21.4158 6.6
      vertex -23.4944 25.3 6.6
      vertex -8.41578 21.0286 6.6
    endloop
  endfacet
  facet normal 0 0 1
    outer loop
      vertex -7.54078 21.6643 6.6
      vertex -23.4944 25.3 6.6
      vertex -8.02862 21.4158 6.6
    endloop
  endfacet
  facet normal 0 0 1
    outer loop
      vertex -7 21.75 6.6
      vertex -23.4944 25.3 6.6
      vertex -7.54078 21.6643 6.6
    endloop
  endfacet
  facet normal -0 0 1
    outer loop
      vertex -23.4944 25.3 6.6
      vertex 4.78191 25.05 6.6
      vertex 5.82518 25.3 6.6
    endloop
  endfacet
  facet normal -0 0 1
    outer loop
      vertex -5.33565 19.4592 6.6
      vertex 4.78191 15.2 6.6
      vertex -5.25 20 6.6
    endloop
  endfacet
  facet normal -0 0 1
    outer loop
      vertex -5.58422 18.9714 6.6
      vertex 4.78191 15.2 6.6
      vertex -5.33565 19.4592 6.6
    endloop
  endfacet
  facet normal -0 0 1
    outer loop
      vertex -5.97138 18.5842 6.6
      vertex 4.78191 15.2 6.6
      vertex -5.58422 18.9714 6.6
    endloop
  endfacet
  facet normal -0 0 1
    outer loop
      vertex -6.45922 18.3357 6.6
      vertex 4.78191 15.2 6.6
      vertex -5.97138 18.5842 6.6
    endloop
  endfacet
  facet normal -0 0 1
    outer loop
      vertex -7 18.25 6.6
      vertex 4.78191 15.2 6.6
      vertex -6.45922 18.3357 6.6
    endloop
  endfacet
  facet normal 0 0 1
    outer loop
      vertex -23.4944 15.2 6.6
      vertex -7 18.25 6.6
      vertex -7.54078 18.3357 6.6
    endloop
  endfacet
  facet normal 0 0 1
    outer loop
      vertex -23.4944 15.2 6.6
      vertex -8.75 20 6.6
      vertex -23.4944 25.3 6.6
    endloop
  endfacet
  facet normal 0 0 1
    outer loop
      vertex -8.75 20 6.6
      vertex -23.4944 15.2 6.6
      vertex -8.66435 19.4592 6.6
    endloop
  endfacet
  facet normal 0 0 1
    outer loop
      vertex -8.66435 19.4592 6.6
      vertex -23.4944 15.2 6.6
      vertex -8.41578 18.9714 6.6
    endloop
  endfacet
  facet normal 0 0 1
    outer loop
      vertex -8.41578 18.9714 6.6
      vertex -23.4944 15.2 6.6
      vertex -8.02862 18.5842 6.6
    endloop
  endfacet
  facet normal 0 0 1
    outer loop
      vertex -7 18.25 6.6
      vertex -23.4944 15.2 6.6
      vertex 4.78191 15.2 6.6
    endloop
  endfacet
  facet normal 0 0 1
    outer loop
      vertex -8.02862 18.5842 6.6
      vertex -23.4944 15.2 6.6
      vertex -7.54078 18.3357 6.6
    endloop
  endfacet
  facet normal 0.990268 0 -0.139173
    outer loop
      vertex -0.327737 15.2 -1.0764
      vertex -0.373216 25.3 -1.4
      vertex -0.327737 25.3 -1.0764
    endloop
  endfacet
  facet normal 0.990268 0 -0.139173
    outer loop
      vertex -0.373216 25.3 -1.4
      vertex -0.327737 15.2 -1.0764
      vertex -0.373216 15.2 -1.4
    endloop
  endfacet
  facet normal 0 1 0
    outer loop
      vertex 1.72451 15.2 -1.36482
      vertex -0.373216 15.2 -1.4
      vertex -0.327737 15.2 -1.0764
    endloop
  endfacet
  facet normal 0 1 -0
    outer loop
      vertex -0.208318 15.2 -6.4
      vertex -0.373216 15.2 -1.4
      vertex 1.72451 15.2 -1.36482
    endloop
  endfacet
  facet normal 0 1 0
    outer loop
      vertex -28.2 15.2 -6.4
      vertex -0.373216 15.2 -1.4
      vertex -0.208318 15.2 -6.4
    endloop
  endfacet
  facet normal 0 1 0
    outer loop
      vertex -0.373216 15.2 -1.4
      vertex -28.2 15.2 -6.4
      vertex -28.2 15.2 -1.4
    endloop
  endfacet
  facet normal -0.990268 0 0.139173
    outer loop
      vertex 3.97322 25.05 -6.4
      vertex 4.6236 25.3 -1.77226
      vertex 3.97322 25.3 -6.4
    endloop
  endfacet
  facet normal -0.990268 0 0.139173
    outer loop
      vertex 4.6236 25.3 -1.77226
      vertex 3.97322 25.05 -6.4
      vertex 4.6236 25.05 -1.77226
    endloop
  endfacet
  facet normal 0 -1 0
    outer loop
      vertex -28.2 25.3 -6.4
      vertex -0.373216 25.3 -1.4
      vertex -28.2 25.3 -1.4
    endloop
  endfacet
  facet normal 0 -1 -0
    outer loop
      vertex -0.373216 25.3 -1.4
      vertex -28.2 25.3 -6.4
      vertex 3.97322 25.3 -6.4
    endloop
  endfacet
  facet normal 0 -1 0
    outer loop
      vertex -0.373216 25.3 -1.4
      vertex 3.97322 25.3 -6.4
      vertex 4.6236 25.3 -1.77226
    endloop
  endfacet
  facet normal 0 -1 -0
    outer loop
      vertex -0.327737 25.3 -1.0764
      vertex -0.373216 25.3 -1.4
      vertex 4.6236 25.3 -1.77226
    endloop
  endfacet
  facet normal -0.139173 0 -0.990268
    outer loop
      vertex 1.72451 15.2 -1.36482
      vertex -0.327737 15.2 -1.0764
      vertex 1.72451 25.05 -1.36482
    endloop
  endfacet
  facet normal -0.139173 0 -0.990268
    outer loop
      vertex 1.72451 25.05 -1.36482
      vertex 4.6236 25.3 -1.77226
      vertex 4.6236 25.05 -1.77226
    endloop
  endfacet
  facet normal -0.139173 -8.63292e-010 -0.990268
    outer loop
      vertex 1.72451 25.05 -1.36482
      vertex -0.327737 25.3 -1.0764
      vertex 4.6236 25.3 -1.77226
    endloop
  endfacet
  facet normal -0.139173 -0 -0.990268
    outer loop
      vertex -0.327737 25.3 -1.0764
      vertex 1.72451 25.05 -1.36482
      vertex -0.327737 15.2 -1.0764
    endloop
  endfacet
  facet normal 1 -0 0
    outer loop
      vertex -28.2 15.2 -1.4
      vertex -28.2 25.3 -6.4
      vertex -28.2 25.3 -1.4
    endloop
  endfacet
  facet normal 1 0 0
    outer loop
      vertex -28.2 25.3 -6.4
      vertex -28.2 15.2 -1.4
      vertex -28.2 15.2 -6.4
    endloop
  endfacet
  facet normal 0 0 -1
    outer loop
      vertex -0.373216 15.2 -1.4
      vertex -5.25 20 -1.4
      vertex -0.373216 25.3 -1.4
    endloop
  endfacet
  facet normal 0 0 -1
    outer loop
      vertex -0.373216 15.2 -1.4
      vertex -5.33565 19.4592 -1.4
      vertex -5.25 20 -1.4
    endloop
  endfacet
  facet normal 0 0 -1
    outer loop
      vertex -0.373216 15.2 -1.4
      vertex -5.58422 18.9714 -1.4
      vertex -5.33565 19.4592 -1.4
    endloop
  endfacet
  facet normal 0 0 -1
    outer loop
      vertex -0.373216 15.2 -1.4
      vertex -5.97138 18.5842 -1.4
      vertex -5.58422 18.9714 -1.4
    endloop
  endfacet
  facet normal 0 0 -1
    outer loop
      vertex -0.373216 15.2 -1.4
      vertex -6.45922 18.3357 -1.4
      vertex -5.97138 18.5842 -1.4
    endloop
  endfacet
  facet normal 0 0 -1
    outer loop
      vertex -0.373216 15.2 -1.4
      vertex -7 18.25 -1.4
      vertex -6.45922 18.3357 -1.4
    endloop
  endfacet
  facet normal 0 0 -1
    outer loop
      vertex -0.373216 15.2 -1.4
      vertex -7.54078 18.3357 -1.4
      vertex -7 18.25 -1.4
    endloop
  endfacet
  facet normal -0 0 -1
    outer loop
      vertex -8.66435 19.4592 -1.4
      vertex -28.2 15.2 -1.4
      vertex -8.75 20 -1.4
    endloop
  endfacet
  facet normal -0 0 -1
    outer loop
      vertex -8.41578 18.9714 -1.4
      vertex -28.2 15.2 -1.4
      vertex -8.66435 19.4592 -1.4
    endloop
  endfacet
  facet normal -0 0 -1
    outer loop
      vertex -8.02862 18.5842 -1.4
      vertex -28.2 15.2 -1.4
      vertex -8.41578 18.9714 -1.4
    endloop
  endfacet
  facet normal -0 0 -1
    outer loop
      vertex -7.54078 18.3357 -1.4
      vertex -28.2 15.2 -1.4
      vertex -8.02862 18.5842 -1.4
    endloop
  endfacet
  facet normal 0 0 -1
    outer loop
      vertex -28.2 15.2 -1.4
      vertex -7.54078 18.3357 -1.4
      vertex -0.373216 15.2 -1.4
    endloop
  endfacet
  facet normal 0 0 -1
    outer loop
      vertex -5.33565 20.5408 -1.4
      vertex -0.373216 25.3 -1.4
      vertex -5.25 20 -1.4
    endloop
  endfacet
  facet normal 0 0 -1
    outer loop
      vertex -5.58422 21.0286 -1.4
      vertex -0.373216 25.3 -1.4
      vertex -5.33565 20.5408 -1.4
    endloop
  endfacet
  facet normal 0 0 -1
    outer loop
      vertex -5.97138 21.4158 -1.4
      vertex -0.373216 25.3 -1.4
      vertex -5.58422 21.0286 -1.4
    endloop
  endfacet
  facet normal 0 0 -1
    outer loop
      vertex -6.45922 21.6643 -1.4
      vertex -0.373216 25.3 -1.4
      vertex -5.97138 21.4158 -1.4
    endloop
  endfacet
  facet normal 0 0 -1
    outer loop
      vertex -7 21.75 -1.4
      vertex -0.373216 25.3 -1.4
      vertex -6.45922 21.6643 -1.4
    endloop
  endfacet
  facet normal 0 0 -1
    outer loop
      vertex -7.54078 21.6643 -1.4
      vertex -0.373216 25.3 -1.4
      vertex -7 21.75 -1.4
    endloop
  endfacet
  facet normal 0 0 -1
    outer loop
      vertex -28.2 25.3 -1.4
      vertex -8.75 20 -1.4
      vertex -28.2 15.2 -1.4
    endloop
  endfacet
  facet normal 0 0 -1
    outer loop
      vertex -8.75 20 -1.4
      vertex -28.2 25.3 -1.4
      vertex -8.66435 20.5408 -1.4
    endloop
  endfacet
  facet normal 0 0 -1
    outer loop
      vertex -8.66435 20.5408 -1.4
      vertex -28.2 25.3 -1.4
      vertex -8.41578 21.0286 -1.4
    endloop
  endfacet
  facet normal 0 0 -1
    outer loop
      vertex -8.41578 21.0286 -1.4
      vertex -28.2 25.3 -1.4
      vertex -8.02862 21.4158 -1.4
    endloop
  endfacet
  facet normal 0 0 -1
    outer loop
      vertex -8.02862 21.4158 -1.4
      vertex -28.2 25.3 -1.4
      vertex -7.54078 21.6643 -1.4
    endloop
  endfacet
  facet normal 0 0 -1
    outer loop
      vertex -7.54078 21.6643 -1.4
      vertex -28.2 25.3 -1.4
      vertex -0.373216 25.3 -1.4
    endloop
  endfacet
  facet normal -0.987688 -0.156435 0
    outer loop
      vertex -5.25 20 -1.4
      vertex -5.33565 20.5408 6.6
      vertex -5.33565 20.5408 -1.4
    endloop
  endfacet
  facet normal -0.987688 -0.156435 0
    outer loop
      vertex -5.33565 20.5408 6.6
      vertex -5.25 20 -1.4
      vertex -5.25 20 6.6
    endloop
  endfacet
  facet normal -0.987688 -0.156435 0
    outer loop
      vertex -5.25 20 11.6
      vertex -5.33565 20.5408 19.6
      vertex -5.33565 20.5408 11.6
    endloop
  endfacet
  facet normal -0.987688 -0.156435 0
    outer loop
      vertex -5.33565 20.5408 19.6
      vertex -5.25 20 11.6
      vertex -5.25 20 19.6
    endloop
  endfacet
  facet normal 0.987688 -0.156435 0
    outer loop
      vertex -8.75 20 6.6
      vertex -8.66435 20.5408 -1.4
      vertex -8.66435 20.5408 6.6
    endloop
  endfacet
  facet normal 0.987688 -0.156435 0
    outer loop
      vertex -8.66435 20.5408 -1.4
      vertex -8.75 20 6.6
      vertex -8.75 20 -1.4
    endloop
  endfacet
  facet normal 0.987688 -0.156435 0
    outer loop
      vertex -8.75 20 19.6
      vertex -8.66435 20.5408 11.6
      vertex -8.66435 20.5408 19.6
    endloop
  endfacet
  facet normal 0.987688 -0.156435 0
    outer loop
      vertex -8.66435 20.5408 11.6
      vertex -8.75 20 19.6
      vertex -8.75 20 11.6
    endloop
  endfacet
  facet normal -0.156435 -0.987688 0
    outer loop
      vertex -7 21.75 -1.4
      vertex -6.45922 21.6643 6.6
      vertex -7 21.75 6.6
    endloop
  endfacet
  facet normal -0.156435 -0.987688 -0
    outer loop
      vertex -6.45922 21.6643 6.6
      vertex -7 21.75 -1.4
      vertex -6.45922 21.6643 -1.4
    endloop
  endfacet
  facet normal -0.156435 -0.987688 0
    outer loop
      vertex -7 21.75 11.6
      vertex -6.45922 21.6643 19.6
      vertex -7 21.75 19.6
    endloop
  endfacet
  facet normal -0.156435 -0.987688 -0
    outer loop
      vertex -6.45922 21.6643 19.6
      vertex -7 21.75 11.6
      vertex -6.45922 21.6643 11.6
    endloop
  endfacet
  facet normal 0.156435 0.987688 -0
    outer loop
      vertex -7 18.25 -1.4
      vertex -7.54078 18.3357 6.6
      vertex -7 18.25 6.6
    endloop
  endfacet
  facet normal 0.156435 0.987688 0
    outer loop
      vertex -7.54078 18.3357 6.6
      vertex -7 18.25 -1.4
      vertex -7.54078 18.3357 -1.4
    endloop
  endfacet
  facet normal 0.156435 0.987688 -0
    outer loop
      vertex -7 18.25 11.6
      vertex -7.54078 18.3357 19.6
      vertex -7 18.25 19.6
    endloop
  endfacet
  facet normal 0.156435 0.987688 0
    outer loop
      vertex -7.54078 18.3357 19.6
      vertex -7 18.25 11.6
      vertex -7.54078 18.3357 11.6
    endloop
  endfacet
  facet normal -0.707107 -0.707107 0
    outer loop
      vertex -5.58422 21.0286 -1.4
      vertex -5.97138 21.4158 6.6
      vertex -5.97138 21.4158 -1.4
    endloop
  endfacet
  facet normal -0.707107 -0.707107 0
    outer loop
      vertex -5.97138 21.4158 6.6
      vertex -5.58422 21.0286 -1.4
      vertex -5.58422 21.0286 6.6
    endloop
  endfacet
  facet normal -0.707107 -0.707107 0
    outer loop
      vertex -5.58422 21.0286 11.6
      vertex -5.97138 21.4158 19.6
      vertex -5.97138 21.4158 11.6
    endloop
  endfacet
  facet normal -0.707107 -0.707107 0
    outer loop
      vertex -5.97138 21.4158 19.6
      vertex -5.58422 21.0286 11.6
      vertex -5.58422 21.0286 19.6
    endloop
  endfacet
  facet normal -0.891006 -0.453991 0
    outer loop
      vertex -5.33565 20.5408 -1.4
      vertex -5.58422 21.0286 6.6
      vertex -5.58422 21.0286 -1.4
    endloop
  endfacet
  facet normal -0.891006 -0.453991 0
    outer loop
      vertex -5.58422 21.0286 6.6
      vertex -5.33565 20.5408 -1.4
      vertex -5.33565 20.5408 6.6
    endloop
  endfacet
  facet normal -0.891006 -0.453991 0
    outer loop
      vertex -5.33565 20.5408 11.6
      vertex -5.58422 21.0286 19.6
      vertex -5.58422 21.0286 11.6
    endloop
  endfacet
  facet normal -0.891006 -0.453991 0
    outer loop
      vertex -5.58422 21.0286 19.6
      vertex -5.33565 20.5408 11.6
      vertex -5.33565 20.5408 19.6
    endloop
  endfacet
  facet normal -0.453991 -0.891006 0
    outer loop
      vertex -6.45922 21.6643 -1.4
      vertex -5.97138 21.4158 6.6
      vertex -6.45922 21.6643 6.6
    endloop
  endfacet
  facet normal -0.453991 -0.891006 -0
    outer loop
      vertex -5.97138 21.4158 6.6
      vertex -6.45922 21.6643 -1.4
      vertex -5.97138 21.4158 -1.4
    endloop
  endfacet
  facet normal -0.453991 -0.891006 0
    outer loop
      vertex -6.45922 21.6643 11.6
      vertex -5.97138 21.4158 19.6
      vertex -6.45922 21.6643 19.6
    endloop
  endfacet
  facet normal -0.453991 -0.891006 -0
    outer loop
      vertex -5.97138 21.4158 19.6
      vertex -6.45922 21.6643 11.6
      vertex -5.97138 21.4158 11.6
    endloop
  endfacet
  facet normal 0.453991 -0.891006 0
    outer loop
      vertex -8.02862 21.4158 -1.4
      vertex -7.54078 21.6643 6.6
      vertex -8.02862 21.4158 6.6
    endloop
  endfacet
  facet normal 0.453991 -0.891006 0
    outer loop
      vertex -7.54078 21.6643 6.6
      vertex -8.02862 21.4158 -1.4
      vertex -7.54078 21.6643 -1.4
    endloop
  endfacet
  facet normal 0.453991 -0.891006 0
    outer loop
      vertex -8.02862 21.4158 11.6
      vertex -7.54078 21.6643 19.6
      vertex -8.02862 21.4158 19.6
    endloop
  endfacet
  facet normal 0.453991 -0.891006 0
    outer loop
      vertex -7.54078 21.6643 19.6
      vertex -8.02862 21.4158 11.6
      vertex -7.54078 21.6643 11.6
    endloop
  endfacet
  facet normal 0.707107 -0.707107 0
    outer loop
      vertex -8.41578 21.0286 6.6
      vertex -8.02862 21.4158 -1.4
      vertex -8.02862 21.4158 6.6
    endloop
  endfacet
  facet normal 0.707107 -0.707107 0
    outer loop
      vertex -8.02862 21.4158 -1.4
      vertex -8.41578 21.0286 6.6
      vertex -8.41578 21.0286 -1.4
    endloop
  endfacet
  facet normal 0.707107 -0.707107 0
    outer loop
      vertex -8.41578 21.0286 19.6
      vertex -8.02862 21.4158 11.6
      vertex -8.02862 21.4158 19.6
    endloop
  endfacet
  facet normal 0.707107 -0.707107 0
    outer loop
      vertex -8.02862 21.4158 11.6
      vertex -8.41578 21.0286 19.6
      vertex -8.41578 21.0286 11.6
    endloop
  endfacet
  facet normal 0.156435 -0.987688 0
    outer loop
      vertex -7.54078 21.6643 -1.4
      vertex -7 21.75 6.6
      vertex -7.54078 21.6643 6.6
    endloop
  endfacet
  facet normal 0.156435 -0.987688 0
    outer loop
      vertex -7 21.75 6.6
      vertex -7.54078 21.6643 -1.4
      vertex -7 21.75 -1.4
    endloop
  endfacet
  facet normal 0.156435 -0.987688 0
    outer loop
      vertex -7.54078 21.6643 11.6
      vertex -7 21.75 19.6
      vertex -7.54078 21.6643 19.6
    endloop
  endfacet
  facet normal 0.156435 -0.987688 0
    outer loop
      vertex -7 21.75 19.6
      vertex -7.54078 21.6643 11.6
      vertex -7 21.75 11.6
    endloop
  endfacet
  facet normal -0.891006 0.453991 0
    outer loop
      vertex -5.58422 18.9714 -1.4
      vertex -5.33565 19.4592 6.6
      vertex -5.33565 19.4592 -1.4
    endloop
  endfacet
  facet normal -0.891006 0.453991 0
    outer loop
      vertex -5.33565 19.4592 6.6
      vertex -5.58422 18.9714 -1.4
      vertex -5.58422 18.9714 6.6
    endloop
  endfacet
  facet normal -0.891006 0.453991 0
    outer loop
      vertex -5.58422 18.9714 11.6
      vertex -5.33565 19.4592 19.6
      vertex -5.33565 19.4592 11.6
    endloop
  endfacet
  facet normal -0.891006 0.453991 0
    outer loop
      vertex -5.33565 19.4592 19.6
      vertex -5.58422 18.9714 11.6
      vertex -5.58422 18.9714 19.6
    endloop
  endfacet
  facet normal 0.707107 0.707107 0
    outer loop
      vertex -8.02862 18.5842 6.6
      vertex -8.41578 18.9714 -1.4
      vertex -8.41578 18.9714 6.6
    endloop
  endfacet
  facet normal 0.707107 0.707107 0
    outer loop
      vertex -8.41578 18.9714 -1.4
      vertex -8.02862 18.5842 6.6
      vertex -8.02862 18.5842 -1.4
    endloop
  endfacet
  facet normal 0.707107 0.707107 0
    outer loop
      vertex -8.02862 18.5842 19.6
      vertex -8.41578 18.9714 11.6
      vertex -8.41578 18.9714 19.6
    endloop
  endfacet
  facet normal 0.707107 0.707107 0
    outer loop
      vertex -8.41578 18.9714 11.6
      vertex -8.02862 18.5842 19.6
      vertex -8.02862 18.5842 11.6
    endloop
  endfacet
  facet normal 0.987688 0.156435 0
    outer loop
      vertex -8.66435 19.4592 6.6
      vertex -8.75 20 -1.4
      vertex -8.75 20 6.6
    endloop
  endfacet
  facet normal 0.987688 0.156435 0
    outer loop
      vertex -8.75 20 -1.4
      vertex -8.66435 19.4592 6.6
      vertex -8.66435 19.4592 -1.4
    endloop
  endfacet
  facet normal 0.987688 0.156435 0
    outer loop
      vertex -8.66435 19.4592 19.6
      vertex -8.75 20 11.6
      vertex -8.75 20 19.6
    endloop
  endfacet
  facet normal 0.987688 0.156435 0
    outer loop
      vertex -8.75 20 11.6
      vertex -8.66435 19.4592 19.6
      vertex -8.66435 19.4592 11.6
    endloop
  endfacet
  facet normal 0.891006 -0.453991 0
    outer loop
      vertex -8.66435 20.5408 6.6
      vertex -8.41578 21.0286 -1.4
      vertex -8.41578 21.0286 6.6
    endloop
  endfacet
  facet normal 0.891006 -0.453991 0
    outer loop
      vertex -8.41578 21.0286 -1.4
      vertex -8.66435 20.5408 6.6
      vertex -8.66435 20.5408 -1.4
    endloop
  endfacet
  facet normal 0.891006 -0.453991 0
    outer loop
      vertex -8.66435 20.5408 19.6
      vertex -8.41578 21.0286 11.6
      vertex -8.41578 21.0286 19.6
    endloop
  endfacet
  facet normal 0.891006 -0.453991 0
    outer loop
      vertex -8.41578 21.0286 11.6
      vertex -8.66435 20.5408 19.6
      vertex -8.66435 20.5408 11.6
    endloop
  endfacet
  facet normal -0.987688 0.156435 0
    outer loop
      vertex -5.33565 19.4592 -1.4
      vertex -5.25 20 6.6
      vertex -5.25 20 -1.4
    endloop
  endfacet
  facet normal -0.987688 0.156435 0
    outer loop
      vertex -5.25 20 6.6
      vertex -5.33565 19.4592 -1.4
      vertex -5.33565 19.4592 6.6
    endloop
  endfacet
  facet normal -0.987688 0.156435 0
    outer loop
      vertex -5.33565 19.4592 11.6
      vertex -5.25 20 19.6
      vertex -5.25 20 11.6
    endloop
  endfacet
  facet normal -0.987688 0.156435 0
    outer loop
      vertex -5.25 20 19.6
      vertex -5.33565 19.4592 11.6
      vertex -5.33565 19.4592 19.6
    endloop
  endfacet
  facet normal -0.156435 0.987688 0
    outer loop
      vertex -6.45922 18.3357 -1.4
      vertex -7 18.25 6.6
      vertex -6.45922 18.3357 6.6
    endloop
  endfacet
  facet normal -0.156435 0.987688 0
    outer loop
      vertex -7 18.25 6.6
      vertex -6.45922 18.3357 -1.4
      vertex -7 18.25 -1.4
    endloop
  endfacet
  facet normal -0.156435 0.987688 0
    outer loop
      vertex -6.45922 18.3357 11.6
      vertex -7 18.25 19.6
      vertex -6.45922 18.3357 19.6
    endloop
  endfacet
  facet normal -0.156435 0.987688 0
    outer loop
      vertex -7 18.25 19.6
      vertex -6.45922 18.3357 11.6
      vertex -7 18.25 11.6
    endloop
  endfacet
  facet normal -0.707107 0.707107 0
    outer loop
      vertex -5.97138 18.5842 -1.4
      vertex -5.58422 18.9714 6.6
      vertex -5.58422 18.9714 -1.4
    endloop
  endfacet
  facet normal -0.707107 0.707107 0
    outer loop
      vertex -5.58422 18.9714 6.6
      vertex -5.97138 18.5842 -1.4
      vertex -5.97138 18.5842 6.6
    endloop
  endfacet
  facet normal -0.707107 0.707107 0
    outer loop
      vertex -5.97138 18.5842 11.6
      vertex -5.58422 18.9714 19.6
      vertex -5.58422 18.9714 11.6
    endloop
  endfacet
  facet normal -0.707107 0.707107 0
    outer loop
      vertex -5.58422 18.9714 19.6
      vertex -5.97138 18.5842 11.6
      vertex -5.97138 18.5842 19.6
    endloop
  endfacet
  facet normal 0.453991 0.891006 -0
    outer loop
      vertex -7.54078 18.3357 -1.4
      vertex -8.02862 18.5842 6.6
      vertex -7.54078 18.3357 6.6
    endloop
  endfacet
  facet normal 0.453991 0.891006 0
    outer loop
      vertex -8.02862 18.5842 6.6
      vertex -7.54078 18.3357 -1.4
      vertex -8.02862 18.5842 -1.4
    endloop
  endfacet
  facet normal 0.453991 0.891006 -0
    outer loop
      vertex -7.54078 18.3357 11.6
      vertex -8.02862 18.5842 19.6
      vertex -7.54078 18.3357 19.6
    endloop
  endfacet
  facet normal 0.453991 0.891006 0
    outer loop
      vertex -8.02862 18.5842 19.6
      vertex -7.54078 18.3357 11.6
      vertex -8.02862 18.5842 11.6
    endloop
  endfacet
  facet normal 0.891006 0.453991 0
    outer loop
      vertex -8.41578 18.9714 6.6
      vertex -8.66435 19.4592 -1.4
      vertex -8.66435 19.4592 6.6
    endloop
  endfacet
  facet normal 0.891006 0.453991 0
    outer loop
      vertex -8.66435 19.4592 -1.4
      vertex -8.41578 18.9714 6.6
      vertex -8.41578 18.9714 -1.4
    endloop
  endfacet
  facet normal 0.891006 0.453991 0
    outer loop
      vertex -8.41578 18.9714 19.6
      vertex -8.66435 19.4592 11.6
      vertex -8.66435 19.4592 19.6
    endloop
  endfacet
  facet normal 0.891006 0.453991 0
    outer loop
      vertex -8.66435 19.4592 11.6
      vertex -8.41578 18.9714 19.6
      vertex -8.41578 18.9714 11.6
    endloop
  endfacet
  facet normal -0.453991 0.891006 0
    outer loop
      vertex -5.97138 18.5842 -1.4
      vertex -6.45922 18.3357 6.6
      vertex -5.97138 18.5842 6.6
    endloop
  endfacet
  facet normal -0.453991 0.891006 0
    outer loop
      vertex -6.45922 18.3357 6.6
      vertex -5.97138 18.5842 -1.4
      vertex -6.45922 18.3357 -1.4
    endloop
  endfacet
  facet normal -0.453991 0.891006 0
    outer loop
      vertex -5.97138 18.5842 11.6
      vertex -6.45922 18.3357 19.6
      vertex -5.97138 18.5842 19.6
    endloop
  endfacet
  facet normal -0.453991 0.891006 0
    outer loop
      vertex -6.45922 18.3357 19.6
      vertex -5.97138 18.5842 11.6
      vertex -6.45922 18.3357 11.6
    endloop
  endfacet
  facet normal 0.93358 0 -0.358368
    outer loop
      vertex 7.66089 25.05 14.1
      vertex 6.67429 15.2 11.5298
      vertex 6.67429 25.05 11.5298
    endloop
  endfacet
  facet normal 0.93358 -1.32149e-007 -0.358368
    outer loop
      vertex 4.58998 14.95 6.1
      vertex 6.67429 15.2 11.5298
      vertex 7.66089 14.95 14.1
    endloop
  endfacet
  facet normal 0.93358 0 -0.358368
    outer loop
      vertex 7.66089 14.95 14.1
      vertex 6.67429 15.2 11.5298
      vertex 7.66089 25.05 14.1
    endloop
  endfacet
  facet normal 0.933581 0 -0.358367
    outer loop
      vertex 4.78191 15.2 6.6
      vertex 4.58998 25.05 6.1
      vertex 4.78191 25.05 6.6
    endloop
  endfacet
  facet normal 0.933581 0 -0.358367
    outer loop
      vertex 4.78191 15.2 6.6
      vertex 4.58998 14.95 6.1
      vertex 4.58998 25.05 6.1
    endloop
  endfacet
  facet normal 0.93358 1.06956e-006 -0.358368
    outer loop
      vertex 6.67429 15.2 11.5298
      vertex 4.58998 14.95 6.1
      vertex 4.78191 15.2 6.6
    endloop
  endfacet
  facet normal 0.93358 0 -0.358368
    outer loop
      vertex 3.05453 25.05 2.1
      vertex 1.72451 15.2 -1.36482
      vertex 1.72451 25.05 -1.36482
    endloop
  endfacet
  facet normal 0.93358 0 -0.358368
    outer loop
      vertex 3.05453 14.95 2.1
      vertex 1.72451 15.2 -1.36482
      vertex 3.05453 25.05 2.1
    endloop
  endfacet
  facet normal 0.93358 2.26291e-007 -0.358368
    outer loop
      vertex -0.208318 14.95 -6.4
      vertex 1.72451 15.2 -1.36482
      vertex 3.05453 14.95 2.1
    endloop
  endfacet
  facet normal 0.93358 0 -0.358368
    outer loop
      vertex 1.72451 15.2 -1.36482
      vertex -0.208318 14.95 -6.4
      vertex -0.208318 15.2 -6.4
    endloop
  endfacet
  facet normal 0.93358 0 -0.358368
    outer loop
      vertex 11.3076 15.2 23.6
      vertex 11.3076 14.95 23.6
      vertex 9.72367 15.2 19.4737
    endloop
  endfacet
  facet normal 0.93358 0 -0.358368
    outer loop
      vertex 9.72367 15.2 19.4737
      vertex 9.19635 25.05 18.1
      vertex 9.72367 25.05 19.4737
    endloop
  endfacet
  facet normal 0.93358 0 -0.358368
    outer loop
      vertex 9.72367 15.2 19.4737
      vertex 9.19635 14.95 18.1
      vertex 9.19635 25.05 18.1
    endloop
  endfacet
  facet normal 0.93358 5.61753e-007 -0.358368
    outer loop
      vertex 9.19635 14.95 18.1
      vertex 9.72367 15.2 19.4737
      vertex 11.3076 14.95 23.6
    endloop
  endfacet
  facet normal 0 1 0
    outer loop
      vertex 14.9323 14.95 23.6
      vertex 9.2 14.95 18.1
      vertex 11.3076 14.95 23.6
    endloop
  endfacet
  facet normal 0 1 0
    outer loop
      vertex 14.9323 14.95 23.6
      vertex 9.2 14.95 14.1
      vertex 9.2 14.95 18.1
    endloop
  endfacet
  facet normal 0 1 0
    outer loop
      vertex 9.2 14.95 14.1
      vertex 4.6 14.95 6.1
      vertex 7.66089 14.95 14.1
    endloop
  endfacet
  facet normal 0 1 0
    outer loop
      vertex 4.01316 14.95 -6.4
      vertex 9.2 14.95 14.1
      vertex 14.9323 14.95 23.6
    endloop
  endfacet
  facet normal 0 1 0
    outer loop
      vertex 9.2 14.95 14.1
      vertex 4.6 14.95 2.1
      vertex 4.6 14.95 6.1
    endloop
  endfacet
  facet normal 0 1 0
    outer loop
      vertex 9.2 14.95 14.1
      vertex 4.01316 14.95 -6.4
      vertex 4.6 14.95 2.1
    endloop
  endfacet
  facet normal 0 1 -0
    outer loop
      vertex 4.01316 14.95 -6.4
      vertex 3.05453 14.95 2.1
      vertex 4.6 14.95 2.1
    endloop
  endfacet
  facet normal 0 1 0
    outer loop
      vertex 3.05453 14.95 2.1
      vertex 4.01316 14.95 -6.4
      vertex -0.208318 14.95 -6.4
    endloop
  endfacet
  facet normal 0 1 0
    outer loop
      vertex 11.3076 14.95 23.6
      vertex 9.2 14.95 18.1
      vertex 9.19635 14.95 18.1
    endloop
  endfacet
  facet normal 0 1 0
    outer loop
      vertex 7.66089 14.95 14.1
      vertex 4.6 14.95 6.1
      vertex 4.58998 14.95 6.1
    endloop
  endfacet
  facet normal 0 -1 0
    outer loop
      vertex 4.6236 25.05 -1.77226
      vertex 3.05453 25.05 2.1
      vertex 1.72451 25.05 -1.36482
    endloop
  endfacet
  facet normal 0 -1 0
    outer loop
      vertex 4.6 25.05 6.1
      vertex 5.82518 25.05 6.6
      vertex 4.78191 25.05 6.6
    endloop
  endfacet
  facet normal 0 -1 0
    outer loop
      vertex 4.6 25.05 6.1
      vertex 4.78191 25.05 6.6
      vertex 4.58998 25.05 6.1
    endloop
  endfacet
  facet normal 0 -1 0
    outer loop
      vertex 8.8236 25.05 11.2277
      vertex 7.66089 25.05 14.1
      vertex 6.67429 25.05 11.5298
    endloop
  endfacet
  facet normal 0 -1 0
    outer loop
      vertex 9.2 25.05 18.1
      vertex 9.72367 25.05 19.4737
      vertex 9.19635 25.05 18.1
    endloop
  endfacet
  facet normal 0 -1 0
    outer loop
      vertex 11.1277 25.05 19.2764
      vertex 14.9323 25.05 23.6
      vertex 11.7354 25.05 23.6
    endloop
  endfacet
  facet normal 0 -1 -0
    outer loop
      vertex 9.72367 25.05 19.4737
      vertex 9.2 25.05 18.1
      vertex 11.1277 25.05 19.2764
    endloop
  endfacet
  facet normal 0 -1 0
    outer loop
      vertex 9.2 25.05 14.1
      vertex 11.1277 25.05 19.2764
      vertex 9.2 25.05 18.1
    endloop
  endfacet
  facet normal 0 -1 0
    outer loop
      vertex 9.2 25.05 14.1
      vertex 14.9323 25.05 23.6
      vertex 11.1277 25.05 19.2764
    endloop
  endfacet
  facet normal 0 -1 0
    outer loop
      vertex 7.66089 25.05 14.1
      vertex 8.8236 25.05 11.2277
      vertex 9.2 25.05 14.1
    endloop
  endfacet
  facet normal 0 -1 0
    outer loop
      vertex 8.8236 25.05 11.2277
      vertex 14.9323 25.05 23.6
      vertex 9.2 25.05 14.1
    endloop
  endfacet
  facet normal 0 -1 0
    outer loop
      vertex 8.12774 25.05 6.2764
      vertex 14.9323 25.05 23.6
      vertex 8.8236 25.05 11.2277
    endloop
  endfacet
  facet normal 0 -1 0
    outer loop
      vertex 4.6 25.05 2.1
      vertex 5.82518 25.05 6.6
      vertex 4.6 25.05 6.1
    endloop
  endfacet
  facet normal 0 -1 -0
    outer loop
      vertex 5.82518 25.05 6.6
      vertex 4.6 25.05 2.1
      vertex 8.12774 25.05 6.2764
    endloop
  endfacet
  facet normal 0 -1 0
    outer loop
      vertex 3.05453 25.05 2.1
      vertex 4.6236 25.05 -1.77226
      vertex 4.6 25.05 2.1
    endloop
  endfacet
  facet normal 0 -1 0
    outer loop
      vertex 4.6 25.05 2.1
      vertex 4.6236 25.05 -1.77226
      vertex 8.12774 25.05 6.2764
    endloop
  endfacet
  facet normal 0 -1 0
    outer loop
      vertex 4.01316 25.05 -6.4
      vertex 4.6236 25.05 -1.77226
      vertex 3.97322 25.05 -6.4
    endloop
  endfacet
  facet normal 0 -1 -0
    outer loop
      vertex 4.6236 25.05 -1.77226
      vertex 4.01316 25.05 -6.4
      vertex 8.12774 25.05 6.2764
    endloop
  endfacet
  facet normal 0 -1 -0
    outer loop
      vertex 8.12774 25.05 6.2764
      vertex 4.01316 25.05 -6.4
      vertex 14.9323 25.05 23.6
    endloop
  endfacet
  facet normal 0.5 0 0.866025
    outer loop
      vertex -28.738 27.55 -0.8
      vertex -28.0096 12.45 -1.22051
      vertex -28.0096 27.55 -1.22051
    endloop
  endfacet
  facet normal 0.5 0 0.866025
    outer loop
      vertex -28.0096 12.45 -1.22051
      vertex -28.738 27.55 -0.8
      vertex -28.738 12.45 -0.8
    endloop
  endfacet
  facet normal -0.866025 0 0.5
    outer loop
      vertex -28.0096 12.45 -1.22051
      vertex -27.7668 27.55 -0.8
      vertex -28.0096 27.55 -1.22051
    endloop
  endfacet
  facet normal -0.866025 0 0.5
    outer loop
      vertex -27.7668 27.55 -0.8
      vertex -28.0096 12.45 -1.22051
      vertex -27.7668 12.45 -0.8
    endloop
  endfacet
  facet normal -0.866025 0 0.5
    outer loop
      vertex -20.6077 15.2 11.6
      vertex -15.9889 25.3 19.6
      vertex -20.6077 25.3 11.6
    endloop
  endfacet
  facet normal -0.866025 0 0.5
    outer loop
      vertex -15.9889 25.3 19.6
      vertex -20.6077 15.2 11.6
      vertex -15.9889 15.2 19.6
    endloop
  endfacet
  facet normal -0.866025 -3.30536e-007 0.5
    outer loop
      vertex -20.6077 25.3 11.6
      vertex -24 27.55 5.72436
      vertex -23.4944 25.3 6.6
    endloop
  endfacet
  facet normal -0.866025 0 0.500001
    outer loop
      vertex -24 27.55 5.72436
      vertex -23.4944 15.2 6.6
      vertex -23.4944 25.3 6.6
    endloop
  endfacet
  facet normal -0.866025 2.70438e-007 0.5
    outer loop
      vertex -24 12.45 5.72436
      vertex -20.6077 15.2 11.6
      vertex -23.4944 15.2 6.6
    endloop
  endfacet
  facet normal -0.866025 1.32897e-007 0.5
    outer loop
      vertex -13.6795 12.45 23.6
      vertex -20.6077 15.2 11.6
      vertex -24 12.45 5.72436
    endloop
  endfacet
  facet normal -0.866025 0 0.500001
    outer loop
      vertex -24 12.45 5.72436
      vertex -23.4944 15.2 6.6
      vertex -24 27.55 5.72436
    endloop
  endfacet
  facet normal -0.866025 -3.0033e-007 0.5
    outer loop
      vertex -20.6077 15.2 11.6
      vertex -13.6795 12.45 23.6
      vertex -15.9889 15.2 19.6
    endloop
  endfacet
  facet normal -0.866025 0 0.5
    outer loop
      vertex -15.9889 15.2 19.6
      vertex -13.6795 12.45 23.6
      vertex -13.6795 15.2 23.6
    endloop
  endfacet
  facet normal -0.866025 -1.62429e-007 0.5
    outer loop
      vertex -24 27.55 5.72436
      vertex -20.6077 25.3 11.6
      vertex -13.6795 27.55 23.6
    endloop
  endfacet
  facet normal -0.866025 3.67069e-007 0.5
    outer loop
      vertex -15.9889 25.3 19.6
      vertex -13.6795 27.55 23.6
      vertex -20.6077 25.3 11.6
    endloop
  endfacet
  facet normal -0.866025 0 0.5
    outer loop
      vertex -13.6795 27.55 23.6
      vertex -15.9889 25.3 19.6
      vertex -13.6795 25.3 23.6
    endloop
  endfacet
  facet normal 0.939693 0 -0.34202
    outer loop
      vertex 14.9323 27.55 23.6
      vertex 14.9323 25.05 23.6
      vertex 6.05139 27.55 -0.8
    endloop
  endfacet
  facet normal 0.939693 0 -0.34202
    outer loop
      vertex 6.05139 27.55 -0.8
      vertex 4.01316 37.6 -6.4
      vertex 6.05139 37.6 -0.8
    endloop
  endfacet
  facet normal 0.939693 0 -0.34202
    outer loop
      vertex 6.05139 27.55 -0.8
      vertex 4.01316 25.05 -6.4
      vertex 4.01316 37.6 -6.4
    endloop
  endfacet
  facet normal 0.939693 3.00323e-008 -0.34202
    outer loop
      vertex 4.01316 25.05 -6.4
      vertex 6.05139 27.55 -0.8
      vertex 14.9323 25.05 23.6
    endloop
  endfacet
  facet normal 0.939693 0 -0.34202
    outer loop
      vertex 6.05139 12.45 -0.8
      vertex 14.9323 14.95 23.6
      vertex 14.9323 12.45 23.6
    endloop
  endfacet
  facet normal 0.939693 -3.00323e-008 -0.34202
    outer loop
      vertex 14.9323 14.95 23.6
      vertex 6.05139 12.45 -0.8
      vertex 4.01316 14.95 -6.4
    endloop
  endfacet
  facet normal 0.939693 0 -0.34202
    outer loop
      vertex 4.01316 2.4 -6.4
      vertex 6.05139 12.45 -0.8
      vertex 6.05139 2.4 -0.8
    endloop
  endfacet
  facet normal 0.939693 0 -0.34202
    outer loop
      vertex 6.05139 12.45 -0.8
      vertex 4.01316 2.4 -6.4
      vertex 4.01316 14.95 -6.4
    endloop
  endfacet
endsolid OpenSCAD_Model
