solid OpenSCAD_Model
  facet normal -0.990268 0.139174 0
    outer loop
      vertex 7.79165 -21.75 -5.05
      vertex 7.83747 -21.424 4.55
      vertex 7.83747 -21.424 -5.05
    endloop
  endfacet
  facet normal -0.990268 0.139174 0
    outer loop
      vertex 7.83747 -21.424 4.55
      vertex 7.79165 -21.75 -5.05
      vertex 7.79165 -21.75 4.55
    endloop
  endfacet
  facet normal 0 0 1
    outer loop
      vertex 12.7888 -22.1198 4.55
      vertex 9.84267 -26.25 4.55
      vertex 12.1625 -26.576 4.55
    endloop
  endfacet
  facet normal -0 0 1
    outer loop
      vertex 7.79165 -21.75 4.55
      vertex 12.7888 -22.1198 4.55
      vertex 7.83747 -21.424 4.55
    endloop
  endfacet
  facet normal 0 0 1
    outer loop
      vertex 12.7888 -22.1198 4.55
      vertex 7.79165 -21.75 4.55
      vertex 9.84267 -26.25 4.55
    endloop
  endfacet
  facet normal 0 0 1
    outer loop
      vertex -20 -26.25 4.55
      vertex 7.79165 -21.75 4.55
      vertex -20 -21.75 4.55
    endloop
  endfacet
  facet normal 0 0 1
    outer loop
      vertex 7.79165 -21.75 4.55
      vertex -20 -26.25 4.55
      vertex 9.84267 -26.25 4.55
    endloop
  endfacet
  facet normal 0.990268 -0.139173 0
    outer loop
      vertex 12.1625 -26.576 4.55
      vertex 12.7888 -22.1198 -5.05
      vertex 12.7888 -22.1198 4.55
    endloop
  endfacet
  facet normal 0.990268 -0.139173 0
    outer loop
      vertex 12.7888 -22.1198 -5.05
      vertex 12.1625 -26.576 4.55
      vertex 12.1625 -26.576 -5.05
    endloop
  endfacet
  facet normal 0 0 -1
    outer loop
      vertex 9.84267 -26.25 -5.05
      vertex 12.7888 -22.1198 -5.05
      vertex 12.1625 -26.576 -5.05
    endloop
  endfacet
  facet normal 0 0 -1
    outer loop
      vertex 7.79165 -21.75 -5.05
      vertex 12.7888 -22.1198 -5.05
      vertex 9.84267 -26.25 -5.05
    endloop
  endfacet
  facet normal 0 0 -1
    outer loop
      vertex 12.7888 -22.1198 -5.05
      vertex 7.79165 -21.75 -5.05
      vertex 7.83747 -21.424 -5.05
    endloop
  endfacet
  facet normal 0 0 -1
    outer loop
      vertex -20 -26.25 -5.05
      vertex 7.79165 -21.75 -5.05
      vertex 9.84267 -26.25 -5.05
    endloop
  endfacet
  facet normal -0 0 -1
    outer loop
      vertex 7.79165 -21.75 -5.05
      vertex -20 -26.25 -5.05
      vertex -20 -21.75 -5.05
    endloop
  endfacet
  facet normal -0.139173 -0.990268 0
    outer loop
      vertex 9.84267 -26.25 -5.05
      vertex 12.1625 -26.576 4.55
      vertex 9.84267 -26.25 4.55
    endloop
  endfacet
  facet normal -0.139173 -0.990268 -0
    outer loop
      vertex 12.1625 -26.576 4.55
      vertex 9.84267 -26.25 -5.05
      vertex 12.1625 -26.576 -5.05
    endloop
  endfacet
  facet normal 0.139173 0.990268 -0
    outer loop
      vertex 12.7888 -22.1198 -5.05
      vertex 7.83747 -21.424 4.55
      vertex 12.7888 -22.1198 4.55
    endloop
  endfacet
  facet normal 0.139173 0.990268 0
    outer loop
      vertex 7.83747 -21.424 4.55
      vertex 12.7888 -22.1198 -5.05
      vertex 7.83747 -21.424 -5.05
    endloop
  endfacet
  facet normal -1 0 0
    outer loop
      vertex -20 -26.25 -5.05
      vertex -20 -21.75 4.55
      vertex -20 -21.75 -5.05
    endloop
  endfacet
  facet normal -1 -0 0
    outer loop
      vertex -20 -21.75 4.55
      vertex -20 -26.25 -5.05
      vertex -20 -26.25 4.55
    endloop
  endfacet
  facet normal 0 1 0
    outer loop
      vertex 7.79165 -21.75 4.55
      vertex -7 -21.75 1.75
      vertex -20 -21.75 4.55
    endloop
  endfacet
  facet normal 0 1 0
    outer loop
      vertex 7.79165 -21.75 4.55
      vertex -6.45922 -21.75 1.66435
      vertex -7 -21.75 1.75
    endloop
  endfacet
  facet normal 0 1 0
    outer loop
      vertex 7.79165 -21.75 4.55
      vertex -5.97138 -21.75 1.41578
      vertex -6.45922 -21.75 1.66435
    endloop
  endfacet
  facet normal 0 1 0
    outer loop
      vertex 7.79165 -21.75 4.55
      vertex -5.58422 -21.75 1.02862
      vertex -5.97138 -21.75 1.41578
    endloop
  endfacet
  facet normal 0 1 0
    outer loop
      vertex 7.79165 -21.75 4.55
      vertex -5.33565 -21.75 0.540779
      vertex -5.58422 -21.75 1.02862
    endloop
  endfacet
  facet normal 0 1 0
    outer loop
      vertex 7.79165 -21.75 4.55
      vertex -5.25 -21.75 -8.56106e-15
      vertex -5.33565 -21.75 0.540779
    endloop
  endfacet
  facet normal 0 1 -0
    outer loop
      vertex 7.79165 -21.75 -5.05
      vertex -5.25 -21.75 -8.56106e-15
      vertex 7.79165 -21.75 4.55
    endloop
  endfacet
  facet normal 0 1 0
    outer loop
      vertex -5.25 -21.75 -8.56106e-15
      vertex 7.79165 -21.75 -5.05
      vertex -5.33565 -21.75 -0.540779
    endloop
  endfacet
  facet normal 0 1 0
    outer loop
      vertex -5.33565 -21.75 -0.540779
      vertex 7.79165 -21.75 -5.05
      vertex -5.58422 -21.75 -1.02862
    endloop
  endfacet
  facet normal 0 1 0
    outer loop
      vertex -5.58422 -21.75 -1.02862
      vertex 7.79165 -21.75 -5.05
      vertex -5.97138 -21.75 -1.41578
    endloop
  endfacet
  facet normal 0 1 0
    outer loop
      vertex -6.45922 -21.75 -1.66435
      vertex 7.79165 -21.75 -5.05
      vertex -7 -21.75 -1.75
    endloop
  endfacet
  facet normal 0 1 0
    outer loop
      vertex -5.97138 -21.75 -1.41578
      vertex 7.79165 -21.75 -5.05
      vertex -6.45922 -21.75 -1.66435
    endloop
  endfacet
  facet normal 0 1 -0
    outer loop
      vertex -7.54078 -21.75 1.66435
      vertex -20 -21.75 4.55
      vertex -7 -21.75 1.75
    endloop
  endfacet
  facet normal 0 1 -0
    outer loop
      vertex -8.02862 -21.75 1.41578
      vertex -20 -21.75 4.55
      vertex -7.54078 -21.75 1.66435
    endloop
  endfacet
  facet normal 0 1 -0
    outer loop
      vertex -8.41578 -21.75 1.02862
      vertex -20 -21.75 4.55
      vertex -8.02862 -21.75 1.41578
    endloop
  endfacet
  facet normal 0 1 -0
    outer loop
      vertex -8.66435 -21.75 0.540779
      vertex -20 -21.75 4.55
      vertex -8.41578 -21.75 1.02862
    endloop
  endfacet
  facet normal 0 1 -0
    outer loop
      vertex -8.75 -21.75 -8.56106e-15
      vertex -20 -21.75 4.55
      vertex -8.66435 -21.75 0.540779
    endloop
  endfacet
  facet normal 0 1 0
    outer loop
      vertex -20 -21.75 -5.05
      vertex -8.75 -21.75 -8.56106e-15
      vertex -8.66435 -21.75 -0.540779
    endloop
  endfacet
  facet normal 0 1 0
    outer loop
      vertex -20 -21.75 -5.05
      vertex -8.66435 -21.75 -0.540779
      vertex -8.41578 -21.75 -1.02862
    endloop
  endfacet
  facet normal 0 1 0
    outer loop
      vertex -20 -21.75 -5.05
      vertex -8.41578 -21.75 -1.02862
      vertex -8.02862 -21.75 -1.41578
    endloop
  endfacet
  facet normal 0 1 0
    outer loop
      vertex -20 -21.75 -5.05
      vertex -8.02862 -21.75 -1.41578
      vertex -7.54078 -21.75 -1.66435
    endloop
  endfacet
  facet normal 0 1 0
    outer loop
      vertex -20 -21.75 -5.05
      vertex -7 -21.75 -1.75
      vertex 7.79165 -21.75 -5.05
    endloop
  endfacet
  facet normal 0 1 0
    outer loop
      vertex -8.75 -21.75 -8.56106e-15
      vertex -20 -21.75 -5.05
      vertex -20 -21.75 4.55
    endloop
  endfacet
  facet normal 0 1 0
    outer loop
      vertex -7 -21.75 -1.75
      vertex -20 -21.75 -5.05
      vertex -7.54078 -21.75 -1.66435
    endloop
  endfacet
  facet normal 0 -1 0
    outer loop
      vertex -20 -26.25 4.55
      vertex -7 -26.25 1.75
      vertex 9.84267 -26.25 4.55
    endloop
  endfacet
  facet normal 0 -1 0
    outer loop
      vertex -20 -26.25 4.55
      vertex -7.54078 -26.25 1.66435
      vertex -7 -26.25 1.75
    endloop
  endfacet
  facet normal 0 -1 0
    outer loop
      vertex -20 -26.25 4.55
      vertex -8.02862 -26.25 1.41578
      vertex -7.54078 -26.25 1.66435
    endloop
  endfacet
  facet normal 0 -1 0
    outer loop
      vertex -20 -26.25 4.55
      vertex -8.41578 -26.25 1.02862
      vertex -8.02862 -26.25 1.41578
    endloop
  endfacet
  facet normal 0 -1 0
    outer loop
      vertex -20 -26.25 4.55
      vertex -8.66435 -26.25 0.540779
      vertex -8.41578 -26.25 1.02862
    endloop
  endfacet
  facet normal 0 -1 0
    outer loop
      vertex -20 -26.25 4.55
      vertex -8.75 -26.25 -7.01076e-15
      vertex -8.66435 -26.25 0.540779
    endloop
  endfacet
  facet normal 0 -1 0
    outer loop
      vertex -20 -26.25 -5.05
      vertex -8.75 -26.25 -7.01076e-15
      vertex -20 -26.25 4.55
    endloop
  endfacet
  facet normal 0 -1 -0
    outer loop
      vertex -8.75 -26.25 -7.01076e-15
      vertex -20 -26.25 -5.05
      vertex -8.66435 -26.25 -0.540779
    endloop
  endfacet
  facet normal 0 -1 -0
    outer loop
      vertex -8.66435 -26.25 -0.540779
      vertex -20 -26.25 -5.05
      vertex -8.41578 -26.25 -1.02862
    endloop
  endfacet
  facet normal 0 -1 -0
    outer loop
      vertex -8.41578 -26.25 -1.02862
      vertex -20 -26.25 -5.05
      vertex -8.02862 -26.25 -1.41578
    endloop
  endfacet
  facet normal 0 -1 -0
    outer loop
      vertex -7.54078 -26.25 -1.66435
      vertex -20 -26.25 -5.05
      vertex -7 -26.25 -1.75
    endloop
  endfacet
  facet normal 0 -1 -0
    outer loop
      vertex -8.02862 -26.25 -1.41578
      vertex -20 -26.25 -5.05
      vertex -7.54078 -26.25 -1.66435
    endloop
  endfacet
  facet normal 0 -1 0
    outer loop
      vertex -6.45922 -26.25 1.66435
      vertex 9.84267 -26.25 4.55
      vertex -7 -26.25 1.75
    endloop
  endfacet
  facet normal 0 -1 0
    outer loop
      vertex -5.97138 -26.25 1.41578
      vertex 9.84267 -26.25 4.55
      vertex -6.45922 -26.25 1.66435
    endloop
  endfacet
  facet normal 0 -1 0
    outer loop
      vertex -5.58422 -26.25 1.02862
      vertex 9.84267 -26.25 4.55
      vertex -5.97138 -26.25 1.41578
    endloop
  endfacet
  facet normal 0 -1 0
    outer loop
      vertex -5.33565 -26.25 0.540779
      vertex 9.84267 -26.25 4.55
      vertex -5.58422 -26.25 1.02862
    endloop
  endfacet
  facet normal 0 -1 0
    outer loop
      vertex -5.25 -26.25 -7.01076e-15
      vertex 9.84267 -26.25 4.55
      vertex -5.33565 -26.25 0.540779
    endloop
  endfacet
  facet normal 0 -1 0
    outer loop
      vertex 9.84267 -26.25 -5.05
      vertex -5.25 -26.25 -7.01076e-15
      vertex -5.33565 -26.25 -0.540779
    endloop
  endfacet
  facet normal 0 -1 0
    outer loop
      vertex 9.84267 -26.25 -5.05
      vertex -5.33565 -26.25 -0.540779
      vertex -5.58422 -26.25 -1.02862
    endloop
  endfacet
  facet normal 0 -1 0
    outer loop
      vertex 9.84267 -26.25 -5.05
      vertex -5.58422 -26.25 -1.02862
      vertex -5.97138 -26.25 -1.41578
    endloop
  endfacet
  facet normal 0 -1 0
    outer loop
      vertex 9.84267 -26.25 -5.05
      vertex -5.97138 -26.25 -1.41578
      vertex -6.45922 -26.25 -1.66435
    endloop
  endfacet
  facet normal 0 -1 0
    outer loop
      vertex 9.84267 -26.25 -5.05
      vertex -7 -26.25 -1.75
      vertex -20 -26.25 -5.05
    endloop
  endfacet
  facet normal 0 -1 0
    outer loop
      vertex -5.25 -26.25 -7.01076e-15
      vertex 9.84267 -26.25 -5.05
      vertex 9.84267 -26.25 4.55
    endloop
  endfacet
  facet normal 0 -1 0
    outer loop
      vertex -7 -26.25 -1.75
      vertex 9.84267 -26.25 -5.05
      vertex -6.45922 -26.25 -1.66435
    endloop
  endfacet
  facet normal -0.990268 0.139174 0
    outer loop
      vertex 1.79165 -37.75 -5.05
      vertex 1.83747 -37.424 4.55
      vertex 1.83747 -37.424 -5.05
    endloop
  endfacet
  facet normal -0.990268 0.139174 0
    outer loop
      vertex 1.83747 -37.424 4.55
      vertex 1.79165 -37.75 -5.05
      vertex 1.79165 -37.75 4.55
    endloop
  endfacet
  facet normal 0 0 1
    outer loop
      vertex 6.78881 -38.1198 4.55
      vertex 3.84267 -42.25 4.55
      vertex 6.16253 -42.576 4.55
    endloop
  endfacet
  facet normal -0 0 1
    outer loop
      vertex 1.79165 -37.75 4.55
      vertex 6.78881 -38.1198 4.55
      vertex 1.83747 -37.424 4.55
    endloop
  endfacet
  facet normal 0 0 1
    outer loop
      vertex 6.78881 -38.1198 4.55
      vertex 1.79165 -37.75 4.55
      vertex 3.84267 -42.25 4.55
    endloop
  endfacet
  facet normal 0 0 1
    outer loop
      vertex -26 -42.25 4.55
      vertex 1.79165 -37.75 4.55
      vertex -26 -37.75 4.55
    endloop
  endfacet
  facet normal 0 0 1
    outer loop
      vertex 1.79165 -37.75 4.55
      vertex -26 -42.25 4.55
      vertex 3.84267 -42.25 4.55
    endloop
  endfacet
  facet normal 0.990268 -0.139173 0
    outer loop
      vertex 6.16253 -42.576 4.55
      vertex 6.78881 -38.1198 -5.05
      vertex 6.78881 -38.1198 4.55
    endloop
  endfacet
  facet normal 0.990268 -0.139173 0
    outer loop
      vertex 6.78881 -38.1198 -5.05
      vertex 6.16253 -42.576 4.55
      vertex 6.16253 -42.576 -5.05
    endloop
  endfacet
  facet normal 0 0 -1
    outer loop
      vertex 3.84267 -42.25 -5.05
      vertex 6.78881 -38.1198 -5.05
      vertex 6.16253 -42.576 -5.05
    endloop
  endfacet
  facet normal 0 0 -1
    outer loop
      vertex 1.79165 -37.75 -5.05
      vertex 6.78881 -38.1198 -5.05
      vertex 3.84267 -42.25 -5.05
    endloop
  endfacet
  facet normal 0 0 -1
    outer loop
      vertex 6.78881 -38.1198 -5.05
      vertex 1.79165 -37.75 -5.05
      vertex 1.83747 -37.424 -5.05
    endloop
  endfacet
  facet normal 0 0 -1
    outer loop
      vertex -26 -42.25 -5.05
      vertex 1.79165 -37.75 -5.05
      vertex 3.84267 -42.25 -5.05
    endloop
  endfacet
  facet normal -0 0 -1
    outer loop
      vertex 1.79165 -37.75 -5.05
      vertex -26 -42.25 -5.05
      vertex -26 -37.75 -5.05
    endloop
  endfacet
  facet normal -0.139173 -0.990268 0
    outer loop
      vertex 3.84267 -42.25 -5.05
      vertex 6.16253 -42.576 4.55
      vertex 3.84267 -42.25 4.55
    endloop
  endfacet
  facet normal -0.139173 -0.990268 -0
    outer loop
      vertex 6.16253 -42.576 4.55
      vertex 3.84267 -42.25 -5.05
      vertex 6.16253 -42.576 -5.05
    endloop
  endfacet
  facet normal 0.139172 0.990268 -0
    outer loop
      vertex 6.78881 -38.1198 -5.05
      vertex 1.83747 -37.424 4.55
      vertex 6.78881 -38.1198 4.55
    endloop
  endfacet
  facet normal 0.139172 0.990268 0
    outer loop
      vertex 1.83747 -37.424 4.55
      vertex 6.78881 -38.1198 -5.05
      vertex 1.83747 -37.424 -5.05
    endloop
  endfacet
  facet normal -1 0 0
    outer loop
      vertex -26 -42.25 -5.05
      vertex -26 -37.75 4.55
      vertex -26 -37.75 -5.05
    endloop
  endfacet
  facet normal -1 -0 0
    outer loop
      vertex -26 -37.75 4.55
      vertex -26 -42.25 -5.05
      vertex -26 -42.25 4.55
    endloop
  endfacet
  facet normal 0 1 0
    outer loop
      vertex 1.79165 -37.75 4.55
      vertex -7 -37.75 1.75
      vertex -26 -37.75 4.55
    endloop
  endfacet
  facet normal 0 1 0
    outer loop
      vertex 1.79165 -37.75 4.55
      vertex -6.45922 -37.75 1.66435
      vertex -7 -37.75 1.75
    endloop
  endfacet
  facet normal 0 1 0
    outer loop
      vertex 1.79165 -37.75 4.55
      vertex -5.97138 -37.75 1.41578
      vertex -6.45922 -37.75 1.66435
    endloop
  endfacet
  facet normal 0 1 0
    outer loop
      vertex 1.79165 -37.75 4.55
      vertex -5.58422 -37.75 1.02862
      vertex -5.97138 -37.75 1.41578
    endloop
  endfacet
  facet normal 0 1 0
    outer loop
      vertex 1.79165 -37.75 4.55
      vertex -5.33565 -37.75 0.540779
      vertex -5.58422 -37.75 1.02862
    endloop
  endfacet
  facet normal 0 1 0
    outer loop
      vertex 1.79165 -37.75 4.55
      vertex -5.25 -37.75 -3.04891e-15
      vertex -5.33565 -37.75 0.540779
    endloop
  endfacet
  facet normal 0 1 -0
    outer loop
      vertex 1.79165 -37.75 -5.05
      vertex -5.25 -37.75 -3.04891e-15
      vertex 1.79165 -37.75 4.55
    endloop
  endfacet
  facet normal 0 1 0
    outer loop
      vertex -5.25 -37.75 -3.04891e-15
      vertex 1.79165 -37.75 -5.05
      vertex -5.33565 -37.75 -0.540779
    endloop
  endfacet
  facet normal 0 1 0
    outer loop
      vertex -5.33565 -37.75 -0.540779
      vertex 1.79165 -37.75 -5.05
      vertex -5.58422 -37.75 -1.02862
    endloop
  endfacet
  facet normal 0 1 0
    outer loop
      vertex -6.45922 -37.75 -1.66435
      vertex 1.79165 -37.75 -5.05
      vertex -7 -37.75 -1.75
    endloop
  endfacet
  facet normal 0 1 0
    outer loop
      vertex -5.97138 -37.75 -1.41578
      vertex 1.79165 -37.75 -5.05
      vertex -6.45922 -37.75 -1.66435
    endloop
  endfacet
  facet normal 0 1 0
    outer loop
      vertex -5.58422 -37.75 -1.02862
      vertex 1.79165 -37.75 -5.05
      vertex -5.97138 -37.75 -1.41578
    endloop
  endfacet
  facet normal 0 1 -0
    outer loop
      vertex -7.54078 -37.75 1.66435
      vertex -26 -37.75 4.55
      vertex -7 -37.75 1.75
    endloop
  endfacet
  facet normal 0 1 -0
    outer loop
      vertex -8.02862 -37.75 1.41578
      vertex -26 -37.75 4.55
      vertex -7.54078 -37.75 1.66435
    endloop
  endfacet
  facet normal 0 1 -0
    outer loop
      vertex -8.41578 -37.75 1.02862
      vertex -26 -37.75 4.55
      vertex -8.02862 -37.75 1.41578
    endloop
  endfacet
  facet normal 0 1 -0
    outer loop
      vertex -8.66435 -37.75 0.540779
      vertex -26 -37.75 4.55
      vertex -8.41578 -37.75 1.02862
    endloop
  endfacet
  facet normal 0 1 -0
    outer loop
      vertex -8.75 -37.75 -3.04891e-15
      vertex -26 -37.75 4.55
      vertex -8.66435 -37.75 0.540779
    endloop
  endfacet
  facet normal 0 1 0
    outer loop
      vertex -26 -37.75 -5.05
      vertex -8.75 -37.75 -3.04891e-15
      vertex -8.66435 -37.75 -0.540779
    endloop
  endfacet
  facet normal 0 1 0
    outer loop
      vertex -26 -37.75 -5.05
      vertex -8.66435 -37.75 -0.540779
      vertex -8.41578 -37.75 -1.02862
    endloop
  endfacet
  facet normal 0 1 0
    outer loop
      vertex -26 -37.75 -5.05
      vertex -8.41578 -37.75 -1.02862
      vertex -8.02862 -37.75 -1.41578
    endloop
  endfacet
  facet normal 0 1 0
    outer loop
      vertex -26 -37.75 -5.05
      vertex -8.02862 -37.75 -1.41578
      vertex -7.54078 -37.75 -1.66435
    endloop
  endfacet
  facet normal 0 1 0
    outer loop
      vertex 1.79165 -37.75 -5.05
      vertex -7.54078 -37.75 -1.66435
      vertex -7 -37.75 -1.75
    endloop
  endfacet
  facet normal 0 1 0
    outer loop
      vertex -26 -37.75 -5.05
      vertex -7.54078 -37.75 -1.66435
      vertex 1.79165 -37.75 -5.05
    endloop
  endfacet
  facet normal 0 1 0
    outer loop
      vertex -8.75 -37.75 -3.04891e-15
      vertex -26 -37.75 -5.05
      vertex -26 -37.75 4.55
    endloop
  endfacet
  facet normal 0 -1 0
    outer loop
      vertex -26 -42.25 4.55
      vertex -7 -42.25 1.75
      vertex 3.84267 -42.25 4.55
    endloop
  endfacet
  facet normal 0 -1 0
    outer loop
      vertex -26 -42.25 4.55
      vertex -7.54078 -42.25 1.66435
      vertex -7 -42.25 1.75
    endloop
  endfacet
  facet normal 0 -1 0
    outer loop
      vertex -26 -42.25 4.55
      vertex -8.02862 -42.25 1.41578
      vertex -7.54078 -42.25 1.66435
    endloop
  endfacet
  facet normal 0 -1 0
    outer loop
      vertex -26 -42.25 4.55
      vertex -8.41578 -42.25 1.02862
      vertex -8.02862 -42.25 1.41578
    endloop
  endfacet
  facet normal 0 -1 0
    outer loop
      vertex -26 -42.25 4.55
      vertex -8.66435 -42.25 0.540779
      vertex -8.41578 -42.25 1.02862
    endloop
  endfacet
  facet normal 0 -1 0
    outer loop
      vertex -26 -42.25 4.55
      vertex -8.75 -42.25 -1.49862e-15
      vertex -8.66435 -42.25 0.540779
    endloop
  endfacet
  facet normal 0 -1 0
    outer loop
      vertex -26 -42.25 -5.05
      vertex -8.75 -42.25 -1.49862e-15
      vertex -26 -42.25 4.55
    endloop
  endfacet
  facet normal 0 -1 -0
    outer loop
      vertex -8.75 -42.25 -1.49862e-15
      vertex -26 -42.25 -5.05
      vertex -8.66435 -42.25 -0.540779
    endloop
  endfacet
  facet normal 0 -1 -0
    outer loop
      vertex -8.66435 -42.25 -0.540779
      vertex -26 -42.25 -5.05
      vertex -8.41578 -42.25 -1.02862
    endloop
  endfacet
  facet normal 0 -1 -0
    outer loop
      vertex -8.41578 -42.25 -1.02862
      vertex -26 -42.25 -5.05
      vertex -8.02862 -42.25 -1.41578
    endloop
  endfacet
  facet normal 0 -1 -0
    outer loop
      vertex -7.54078 -42.25 -1.66435
      vertex -26 -42.25 -5.05
      vertex -7 -42.25 -1.75
    endloop
  endfacet
  facet normal 0 -1 -0
    outer loop
      vertex -8.02862 -42.25 -1.41578
      vertex -26 -42.25 -5.05
      vertex -7.54078 -42.25 -1.66435
    endloop
  endfacet
  facet normal 0 -1 0
    outer loop
      vertex -6.45922 -42.25 1.66435
      vertex 3.84267 -42.25 4.55
      vertex -7 -42.25 1.75
    endloop
  endfacet
  facet normal 0 -1 0
    outer loop
      vertex -5.97138 -42.25 1.41578
      vertex 3.84267 -42.25 4.55
      vertex -6.45922 -42.25 1.66435
    endloop
  endfacet
  facet normal 0 -1 0
    outer loop
      vertex -5.58422 -42.25 1.02862
      vertex 3.84267 -42.25 4.55
      vertex -5.97138 -42.25 1.41578
    endloop
  endfacet
  facet normal 0 -1 0
    outer loop
      vertex -5.33565 -42.25 0.540779
      vertex 3.84267 -42.25 4.55
      vertex -5.58422 -42.25 1.02862
    endloop
  endfacet
  facet normal 0 -1 0
    outer loop
      vertex -5.25 -42.25 -1.49862e-15
      vertex 3.84267 -42.25 4.55
      vertex -5.33565 -42.25 0.540779
    endloop
  endfacet
  facet normal 0 -1 0
    outer loop
      vertex 3.84267 -42.25 -5.05
      vertex -5.25 -42.25 -1.49862e-15
      vertex -5.33565 -42.25 -0.540779
    endloop
  endfacet
  facet normal 0 -1 0
    outer loop
      vertex 3.84267 -42.25 -5.05
      vertex -5.33565 -42.25 -0.540779
      vertex -5.58422 -42.25 -1.02862
    endloop
  endfacet
  facet normal 0 -1 0
    outer loop
      vertex 3.84267 -42.25 -5.05
      vertex -5.58422 -42.25 -1.02862
      vertex -5.97138 -42.25 -1.41578
    endloop
  endfacet
  facet normal 0 -1 0
    outer loop
      vertex 3.84267 -42.25 -5.05
      vertex -7 -42.25 -1.75
      vertex -26 -42.25 -5.05
    endloop
  endfacet
  facet normal 0 -1 0
    outer loop
      vertex -5.25 -42.25 -1.49862e-15
      vertex 3.84267 -42.25 -5.05
      vertex 3.84267 -42.25 4.55
    endloop
  endfacet
  facet normal 0 -1 0
    outer loop
      vertex -6.45922 -42.25 -1.66435
      vertex 3.84267 -42.25 -5.05
      vertex -5.97138 -42.25 -1.41578
    endloop
  endfacet
  facet normal 0 -1 0
    outer loop
      vertex -7 -42.25 -1.75
      vertex 3.84267 -42.25 -5.05
      vertex -6.45922 -42.25 -1.66435
    endloop
  endfacet
  facet normal -0.987688 0 0.156435
    outer loop
      vertex -5.33565 -42.25 -0.540779
      vertex -5.25 -37.75 -3.04891e-15
      vertex -5.33565 -37.75 -0.540779
    endloop
  endfacet
  facet normal -0.987688 5.38934e-17 0.156435
    outer loop
      vertex -5.25 -37.75 -3.04891e-15
      vertex -5.33565 -42.25 -0.540779
      vertex -5.25 -42.25 -1.49862e-15
    endloop
  endfacet
  facet normal -0.987688 0 0.156435
    outer loop
      vertex -5.33565 -26.25 -0.540779
      vertex -5.25 -21.75 -8.56106e-15
      vertex -5.33565 -21.75 -0.540779
    endloop
  endfacet
  facet normal -0.987688 5.38934e-17 0.156435
    outer loop
      vertex -5.25 -21.75 -8.56106e-15
      vertex -5.33565 -26.25 -0.540779
      vertex -5.25 -26.25 -7.01076e-15
    endloop
  endfacet
  facet normal 0.987688 5.38934e-17 0.156435
    outer loop
      vertex -8.75 -42.25 -1.49862e-15
      vertex -8.66435 -37.75 -0.540779
      vertex -8.75 -37.75 -3.04891e-15
    endloop
  endfacet
  facet normal 0.987688 0 0.156435
    outer loop
      vertex -8.66435 -37.75 -0.540779
      vertex -8.75 -42.25 -1.49862e-15
      vertex -8.66435 -42.25 -0.540779
    endloop
  endfacet
  facet normal 0.987688 5.38934e-17 0.156435
    outer loop
      vertex -8.75 -26.25 -7.01076e-15
      vertex -8.66435 -21.75 -0.540779
      vertex -8.75 -21.75 -8.56106e-15
    endloop
  endfacet
  facet normal 0.987688 0 0.156435
    outer loop
      vertex -8.66435 -21.75 -0.540779
      vertex -8.75 -26.25 -7.01076e-15
      vertex -8.66435 -26.25 -0.540779
    endloop
  endfacet
  facet normal -0.156435 0 0.987688
    outer loop
      vertex -7 -37.75 -1.75
      vertex -6.45922 -42.25 -1.66435
      vertex -6.45922 -37.75 -1.66435
    endloop
  endfacet
  facet normal -0.156435 0 0.987688
    outer loop
      vertex -6.45922 -42.25 -1.66435
      vertex -7 -37.75 -1.75
      vertex -7 -42.25 -1.75
    endloop
  endfacet
  facet normal -0.156435 0 0.987688
    outer loop
      vertex -7 -21.75 -1.75
      vertex -6.45922 -26.25 -1.66435
      vertex -6.45922 -21.75 -1.66435
    endloop
  endfacet
  facet normal -0.156435 0 0.987688
    outer loop
      vertex -6.45922 -26.25 -1.66435
      vertex -7 -21.75 -1.75
      vertex -7 -26.25 -1.75
    endloop
  endfacet
  facet normal 0.156435 0 -0.987688
    outer loop
      vertex -7.54078 -42.25 1.66435
      vertex -7 -37.75 1.75
      vertex -7 -42.25 1.75
    endloop
  endfacet
  facet normal 0.156435 0 -0.987688
    outer loop
      vertex -7 -37.75 1.75
      vertex -7.54078 -42.25 1.66435
      vertex -7.54078 -37.75 1.66435
    endloop
  endfacet
  facet normal 0.156435 0 -0.987688
    outer loop
      vertex -7.54078 -26.25 1.66435
      vertex -7 -21.75 1.75
      vertex -7 -26.25 1.75
    endloop
  endfacet
  facet normal 0.156435 0 -0.987688
    outer loop
      vertex -7 -21.75 1.75
      vertex -7.54078 -26.25 1.66435
      vertex -7.54078 -21.75 1.66435
    endloop
  endfacet
  facet normal -0.707107 0 0.707107
    outer loop
      vertex -5.97138 -42.25 -1.41578
      vertex -5.58422 -37.75 -1.02862
      vertex -5.97138 -37.75 -1.41578
    endloop
  endfacet
  facet normal -0.707107 0 0.707107
    outer loop
      vertex -5.58422 -37.75 -1.02862
      vertex -5.97138 -42.25 -1.41578
      vertex -5.58422 -42.25 -1.02862
    endloop
  endfacet
  facet normal -0.707107 0 0.707107
    outer loop
      vertex -5.97138 -26.25 -1.41578
      vertex -5.58422 -21.75 -1.02862
      vertex -5.97138 -21.75 -1.41578
    endloop
  endfacet
  facet normal -0.707107 0 0.707107
    outer loop
      vertex -5.58422 -21.75 -1.02862
      vertex -5.97138 -26.25 -1.41578
      vertex -5.58422 -26.25 -1.02862
    endloop
  endfacet
  facet normal -0.891006 0 0.453991
    outer loop
      vertex -5.58422 -42.25 -1.02862
      vertex -5.33565 -37.75 -0.540779
      vertex -5.58422 -37.75 -1.02862
    endloop
  endfacet
  facet normal -0.891006 0 0.453991
    outer loop
      vertex -5.33565 -37.75 -0.540779
      vertex -5.58422 -42.25 -1.02862
      vertex -5.33565 -42.25 -0.540779
    endloop
  endfacet
  facet normal -0.891006 0 0.453991
    outer loop
      vertex -5.58422 -26.25 -1.02862
      vertex -5.33565 -21.75 -0.540779
      vertex -5.58422 -21.75 -1.02862
    endloop
  endfacet
  facet normal -0.891006 0 0.453991
    outer loop
      vertex -5.33565 -21.75 -0.540779
      vertex -5.58422 -26.25 -1.02862
      vertex -5.33565 -26.25 -0.540779
    endloop
  endfacet
  facet normal -0.453991 0 0.891006
    outer loop
      vertex -6.45922 -37.75 -1.66435
      vertex -5.97138 -42.25 -1.41578
      vertex -5.97138 -37.75 -1.41578
    endloop
  endfacet
  facet normal -0.453991 0 0.891006
    outer loop
      vertex -5.97138 -42.25 -1.41578
      vertex -6.45922 -37.75 -1.66435
      vertex -6.45922 -42.25 -1.66435
    endloop
  endfacet
  facet normal -0.453991 0 0.891006
    outer loop
      vertex -6.45922 -21.75 -1.66435
      vertex -5.97138 -26.25 -1.41578
      vertex -5.97138 -21.75 -1.41578
    endloop
  endfacet
  facet normal -0.453991 0 0.891006
    outer loop
      vertex -5.97138 -26.25 -1.41578
      vertex -6.45922 -21.75 -1.66435
      vertex -6.45922 -26.25 -1.66435
    endloop
  endfacet
  facet normal 0.453991 0 0.891006
    outer loop
      vertex -8.02862 -37.75 -1.41578
      vertex -7.54078 -42.25 -1.66435
      vertex -7.54078 -37.75 -1.66435
    endloop
  endfacet
  facet normal 0.453991 0 0.891006
    outer loop
      vertex -7.54078 -42.25 -1.66435
      vertex -8.02862 -37.75 -1.41578
      vertex -8.02862 -42.25 -1.41578
    endloop
  endfacet
  facet normal 0.453991 0 0.891006
    outer loop
      vertex -8.02862 -21.75 -1.41578
      vertex -7.54078 -26.25 -1.66435
      vertex -7.54078 -21.75 -1.66435
    endloop
  endfacet
  facet normal 0.453991 0 0.891006
    outer loop
      vertex -7.54078 -26.25 -1.66435
      vertex -8.02862 -21.75 -1.41578
      vertex -8.02862 -26.25 -1.41578
    endloop
  endfacet
  facet normal 0.707107 -0 0.707107
    outer loop
      vertex -8.41578 -42.25 -1.02862
      vertex -8.02862 -37.75 -1.41578
      vertex -8.41578 -37.75 -1.02862
    endloop
  endfacet
  facet normal 0.707107 0 0.707107
    outer loop
      vertex -8.02862 -37.75 -1.41578
      vertex -8.41578 -42.25 -1.02862
      vertex -8.02862 -42.25 -1.41578
    endloop
  endfacet
  facet normal 0.707107 -0 0.707107
    outer loop
      vertex -8.41578 -26.25 -1.02862
      vertex -8.02862 -21.75 -1.41578
      vertex -8.41578 -21.75 -1.02862
    endloop
  endfacet
  facet normal 0.707107 0 0.707107
    outer loop
      vertex -8.02862 -21.75 -1.41578
      vertex -8.41578 -26.25 -1.02862
      vertex -8.02862 -26.25 -1.41578
    endloop
  endfacet
  facet normal 0.156435 0 0.987688
    outer loop
      vertex -7.54078 -37.75 -1.66435
      vertex -7 -42.25 -1.75
      vertex -7 -37.75 -1.75
    endloop
  endfacet
  facet normal 0.156435 0 0.987688
    outer loop
      vertex -7 -42.25 -1.75
      vertex -7.54078 -37.75 -1.66435
      vertex -7.54078 -42.25 -1.66435
    endloop
  endfacet
  facet normal 0.156435 0 0.987688
    outer loop
      vertex -7.54078 -21.75 -1.66435
      vertex -7 -26.25 -1.75
      vertex -7 -21.75 -1.75
    endloop
  endfacet
  facet normal 0.156435 0 0.987688
    outer loop
      vertex -7 -26.25 -1.75
      vertex -7.54078 -21.75 -1.66435
      vertex -7.54078 -26.25 -1.66435
    endloop
  endfacet
  facet normal -0.891006 0 -0.453991
    outer loop
      vertex -5.33565 -42.25 0.540779
      vertex -5.58422 -37.75 1.02862
      vertex -5.33565 -37.75 0.540779
    endloop
  endfacet
  facet normal -0.891006 -0 -0.453991
    outer loop
      vertex -5.58422 -37.75 1.02862
      vertex -5.33565 -42.25 0.540779
      vertex -5.58422 -42.25 1.02862
    endloop
  endfacet
  facet normal -0.891006 0 -0.453991
    outer loop
      vertex -5.33565 -26.25 0.540779
      vertex -5.58422 -21.75 1.02862
      vertex -5.33565 -21.75 0.540779
    endloop
  endfacet
  facet normal -0.891006 -0 -0.453991
    outer loop
      vertex -5.58422 -21.75 1.02862
      vertex -5.33565 -26.25 0.540779
      vertex -5.58422 -26.25 1.02862
    endloop
  endfacet
  facet normal 0.707107 0 -0.707107
    outer loop
      vertex -8.02862 -42.25 1.41578
      vertex -8.41578 -37.75 1.02862
      vertex -8.02862 -37.75 1.41578
    endloop
  endfacet
  facet normal 0.707107 0 -0.707107
    outer loop
      vertex -8.41578 -37.75 1.02862
      vertex -8.02862 -42.25 1.41578
      vertex -8.41578 -42.25 1.02862
    endloop
  endfacet
  facet normal 0.707107 0 -0.707107
    outer loop
      vertex -8.02862 -26.25 1.41578
      vertex -8.41578 -21.75 1.02862
      vertex -8.02862 -21.75 1.41578
    endloop
  endfacet
  facet normal 0.707107 0 -0.707107
    outer loop
      vertex -8.41578 -21.75 1.02862
      vertex -8.02862 -26.25 1.41578
      vertex -8.41578 -26.25 1.02862
    endloop
  endfacet
  facet normal 0.987688 0 -0.156435
    outer loop
      vertex -8.66435 -42.25 0.540779
      vertex -8.75 -37.75 -3.04891e-15
      vertex -8.66435 -37.75 0.540779
    endloop
  endfacet
  facet normal 0.987688 -5.38934e-17 -0.156435
    outer loop
      vertex -8.75 -37.75 -3.04891e-15
      vertex -8.66435 -42.25 0.540779
      vertex -8.75 -42.25 -1.49862e-15
    endloop
  endfacet
  facet normal 0.987688 0 -0.156435
    outer loop
      vertex -8.66435 -26.25 0.540779
      vertex -8.75 -21.75 -8.56106e-15
      vertex -8.66435 -21.75 0.540779
    endloop
  endfacet
  facet normal 0.987688 -5.38934e-17 -0.156435
    outer loop
      vertex -8.75 -21.75 -8.56106e-15
      vertex -8.66435 -26.25 0.540779
      vertex -8.75 -26.25 -7.01076e-15
    endloop
  endfacet
  facet normal 0.891006 -0 0.453991
    outer loop
      vertex -8.66435 -42.25 -0.540779
      vertex -8.41578 -37.75 -1.02862
      vertex -8.66435 -37.75 -0.540779
    endloop
  endfacet
  facet normal 0.891006 0 0.453991
    outer loop
      vertex -8.41578 -37.75 -1.02862
      vertex -8.66435 -42.25 -0.540779
      vertex -8.41578 -42.25 -1.02862
    endloop
  endfacet
  facet normal 0.891006 -0 0.453991
    outer loop
      vertex -8.66435 -26.25 -0.540779
      vertex -8.41578 -21.75 -1.02862
      vertex -8.66435 -21.75 -0.540779
    endloop
  endfacet
  facet normal 0.891006 0 0.453991
    outer loop
      vertex -8.41578 -21.75 -1.02862
      vertex -8.66435 -26.25 -0.540779
      vertex -8.41578 -26.25 -1.02862
    endloop
  endfacet
  facet normal -0.987688 -5.38934e-17 -0.156435
    outer loop
      vertex -5.25 -42.25 -1.49862e-15
      vertex -5.33565 -37.75 0.540779
      vertex -5.25 -37.75 -3.04891e-15
    endloop
  endfacet
  facet normal -0.987688 -0 -0.156435
    outer loop
      vertex -5.33565 -37.75 0.540779
      vertex -5.25 -42.25 -1.49862e-15
      vertex -5.33565 -42.25 0.540779
    endloop
  endfacet
  facet normal -0.987688 -5.38934e-17 -0.156435
    outer loop
      vertex -5.25 -26.25 -7.01076e-15
      vertex -5.33565 -21.75 0.540779
      vertex -5.25 -21.75 -8.56106e-15
    endloop
  endfacet
  facet normal -0.987688 -0 -0.156435
    outer loop
      vertex -5.33565 -21.75 0.540779
      vertex -5.25 -26.25 -7.01076e-15
      vertex -5.33565 -26.25 0.540779
    endloop
  endfacet
  facet normal -0.156435 0 -0.987688
    outer loop
      vertex -7 -42.25 1.75
      vertex -6.45922 -37.75 1.66435
      vertex -6.45922 -42.25 1.66435
    endloop
  endfacet
  facet normal -0.156435 0 -0.987688
    outer loop
      vertex -6.45922 -37.75 1.66435
      vertex -7 -42.25 1.75
      vertex -7 -37.75 1.75
    endloop
  endfacet
  facet normal -0.156435 0 -0.987688
    outer loop
      vertex -7 -26.25 1.75
      vertex -6.45922 -21.75 1.66435
      vertex -6.45922 -26.25 1.66435
    endloop
  endfacet
  facet normal -0.156435 0 -0.987688
    outer loop
      vertex -6.45922 -21.75 1.66435
      vertex -7 -26.25 1.75
      vertex -7 -21.75 1.75
    endloop
  endfacet
  facet normal -0.707107 0 -0.707107
    outer loop
      vertex -5.58422 -42.25 1.02862
      vertex -5.97138 -37.75 1.41578
      vertex -5.58422 -37.75 1.02862
    endloop
  endfacet
  facet normal -0.707107 -0 -0.707107
    outer loop
      vertex -5.97138 -37.75 1.41578
      vertex -5.58422 -42.25 1.02862
      vertex -5.97138 -42.25 1.41578
    endloop
  endfacet
  facet normal -0.707107 0 -0.707107
    outer loop
      vertex -5.58422 -26.25 1.02862
      vertex -5.97138 -21.75 1.41578
      vertex -5.58422 -21.75 1.02862
    endloop
  endfacet
  facet normal -0.707107 -0 -0.707107
    outer loop
      vertex -5.97138 -21.75 1.41578
      vertex -5.58422 -26.25 1.02862
      vertex -5.97138 -26.25 1.41578
    endloop
  endfacet
  facet normal 0.453991 0 -0.891006
    outer loop
      vertex -8.02862 -42.25 1.41578
      vertex -7.54078 -37.75 1.66435
      vertex -7.54078 -42.25 1.66435
    endloop
  endfacet
  facet normal 0.453991 0 -0.891006
    outer loop
      vertex -7.54078 -37.75 1.66435
      vertex -8.02862 -42.25 1.41578
      vertex -8.02862 -37.75 1.41578
    endloop
  endfacet
  facet normal 0.453991 0 -0.891006
    outer loop
      vertex -8.02862 -26.25 1.41578
      vertex -7.54078 -21.75 1.66435
      vertex -7.54078 -26.25 1.66435
    endloop
  endfacet
  facet normal 0.453991 0 -0.891006
    outer loop
      vertex -7.54078 -21.75 1.66435
      vertex -8.02862 -26.25 1.41578
      vertex -8.02862 -21.75 1.41578
    endloop
  endfacet
  facet normal 0.891006 0 -0.453991
    outer loop
      vertex -8.41578 -42.25 1.02862
      vertex -8.66435 -37.75 0.540779
      vertex -8.41578 -37.75 1.02862
    endloop
  endfacet
  facet normal 0.891006 0 -0.453991
    outer loop
      vertex -8.66435 -37.75 0.540779
      vertex -8.41578 -42.25 1.02862
      vertex -8.66435 -42.25 0.540779
    endloop
  endfacet
  facet normal 0.891006 0 -0.453991
    outer loop
      vertex -8.41578 -26.25 1.02862
      vertex -8.66435 -21.75 0.540779
      vertex -8.41578 -21.75 1.02862
    endloop
  endfacet
  facet normal 0.891006 0 -0.453991
    outer loop
      vertex -8.66435 -21.75 0.540779
      vertex -8.41578 -26.25 1.02862
      vertex -8.66435 -26.25 0.540779
    endloop
  endfacet
  facet normal -0.453991 0 -0.891006
    outer loop
      vertex -6.45922 -42.25 1.66435
      vertex -5.97138 -37.75 1.41578
      vertex -5.97138 -42.25 1.41578
    endloop
  endfacet
  facet normal -0.453991 0 -0.891006
    outer loop
      vertex -5.97138 -37.75 1.41578
      vertex -6.45922 -42.25 1.66435
      vertex -6.45922 -37.75 1.66435
    endloop
  endfacet
  facet normal -0.453991 0 -0.891006
    outer loop
      vertex -6.45922 -26.25 1.66435
      vertex -5.97138 -21.75 1.41578
      vertex -5.97138 -26.25 1.41578
    endloop
  endfacet
  facet normal -0.453991 0 -0.891006
    outer loop
      vertex -5.97138 -21.75 1.41578
      vertex -6.45922 -26.25 1.66435
      vertex -6.45922 -21.75 1.66435
    endloop
  endfacet
  facet normal -0.994522 -0.104528 0
    outer loop
      vertex 34.5 44 -5.05
      vertex 34.2979 45.9232 5.05
      vertex 34.2979 45.9232 -5.05
    endloop
  endfacet
  facet normal -0.994522 -0.104528 0
    outer loop
      vertex 34.2979 45.9232 5.05
      vertex 34.5 44 -5.05
      vertex 34.5 44 5.05
    endloop
  endfacet
  facet normal 0.207911 -0.978148 0
    outer loop
      vertex 22.3916 52.7973 -5.05
      vertex 24.2831 53.1993 5.05
      vertex 22.3916 52.7973 5.05
    endloop
  endfacet
  facet normal 0.207911 -0.978148 0
    outer loop
      vertex 24.2831 53.1993 5.05
      vertex 22.3916 52.7973 -5.05
      vertex 24.2831 53.1993 -5.05
    endloop
  endfacet
  facet normal -0.587786 -0.809017 0
    outer loop
      vertex 29.875 52.0107 -5.05
      vertex 31.4395 50.8741 5.05
      vertex 29.875 52.0107 5.05
    endloop
  endfacet
  facet normal -0.587786 -0.809017 -0
    outer loop
      vertex 31.4395 50.8741 5.05
      vertex 29.875 52.0107 -5.05
      vertex 31.4395 50.8741 -5.05
    endloop
  endfacet
  facet normal 0.866025 -0.5 0
    outer loop
      vertex 16.7997 47.7623 5.05
      vertex 17.7666 49.437 -5.05
      vertex 17.7666 49.437 5.05
    endloop
  endfacet
  facet normal 0.866025 -0.5 0
    outer loop
      vertex 17.7666 49.437 -5.05
      vertex 16.7997 47.7623 5.05
      vertex 16.7997 47.7623 -5.05
    endloop
  endfacet
  facet normal 0.951056 -0.309017 0
    outer loop
      vertex 16.2021 45.9232 5.05
      vertex 16.7997 47.7623 -5.05
      vertex 16.7997 47.7623 5.05
    endloop
  endfacet
  facet normal 0.951056 -0.309017 0
    outer loop
      vertex 16.7997 47.7623 -5.05
      vertex 16.2021 45.9232 5.05
      vertex 16.2021 45.9232 -5.05
    endloop
  endfacet
  facet normal 0.587785 -0.809017 0
    outer loop
      vertex 19.0605 50.8741 -5.05
      vertex 20.625 52.0107 5.05
      vertex 19.0605 50.8741 5.05
    endloop
  endfacet
  facet normal 0.587785 -0.809017 0
    outer loop
      vertex 20.625 52.0107 5.05
      vertex 19.0605 50.8741 -5.05
      vertex 20.625 52.0107 -5.05
    endloop
  endfacet
  facet normal -0.866025 -0.5 0
    outer loop
      vertex 33.7003 47.7623 -5.05
      vertex 32.7334 49.437 5.05
      vertex 32.7334 49.437 -5.05
    endloop
  endfacet
  facet normal -0.866025 -0.5 0
    outer loop
      vertex 32.7334 49.437 5.05
      vertex 33.7003 47.7623 -5.05
      vertex 33.7003 47.7623 5.05
    endloop
  endfacet
  facet normal -0.951056 -0.309018 0
    outer loop
      vertex 34.2979 45.9232 -5.05
      vertex 33.7003 47.7623 5.05
      vertex 33.7003 47.7623 -5.05
    endloop
  endfacet
  facet normal -0.951056 -0.309018 0
    outer loop
      vertex 33.7003 47.7623 5.05
      vertex 34.2979 45.9232 -5.05
      vertex 34.2979 45.9232 5.05
    endloop
  endfacet
  facet normal -0.743145 -0.66913 0
    outer loop
      vertex 32.7334 49.437 -5.05
      vertex 31.4395 50.8741 5.05
      vertex 31.4395 50.8741 -5.05
    endloop
  endfacet
  facet normal -0.743145 -0.66913 0
    outer loop
      vertex 31.4395 50.8741 5.05
      vertex 32.7334 49.437 -5.05
      vertex 32.7334 49.437 5.05
    endloop
  endfacet
  facet normal -0.207911 -0.978148 0
    outer loop
      vertex 26.2169 53.1993 -5.05
      vertex 28.1084 52.7973 5.05
      vertex 26.2169 53.1993 5.05
    endloop
  endfacet
  facet normal -0.207911 -0.978148 -0
    outer loop
      vertex 28.1084 52.7973 5.05
      vertex 26.2169 53.1993 -5.05
      vertex 28.1084 52.7973 -5.05
    endloop
  endfacet
  facet normal 0 -1 0
    outer loop
      vertex 24.2831 53.1993 -5.05
      vertex 26.2169 53.1993 5.05
      vertex 24.2831 53.1993 5.05
    endloop
  endfacet
  facet normal 0 -1 -0
    outer loop
      vertex 26.2169 53.1993 5.05
      vertex 24.2831 53.1993 -5.05
      vertex 26.2169 53.1993 -5.05
    endloop
  endfacet
  facet normal -0.406736 -0.913546 0
    outer loop
      vertex 28.1084 52.7973 -5.05
      vertex 29.875 52.0107 5.05
      vertex 28.1084 52.7973 5.05
    endloop
  endfacet
  facet normal -0.406736 -0.913546 -0
    outer loop
      vertex 29.875 52.0107 5.05
      vertex 28.1084 52.7973 -5.05
      vertex 29.875 52.0107 -5.05
    endloop
  endfacet
  facet normal 0.994522 -0.104528 0
    outer loop
      vertex 16 44 5.05
      vertex 16.2021 45.9232 -5.05
      vertex 16.2021 45.9232 5.05
    endloop
  endfacet
  facet normal 0.994522 -0.104528 0
    outer loop
      vertex 16.2021 45.9232 -5.05
      vertex 16 44 5.05
      vertex 16 44 -5.05
    endloop
  endfacet
  facet normal 0.743145 -0.66913 0
    outer loop
      vertex 17.7666 49.437 5.05
      vertex 19.0605 50.8741 -5.05
      vertex 19.0605 50.8741 5.05
    endloop
  endfacet
  facet normal 0.743145 -0.66913 0
    outer loop
      vertex 19.0605 50.8741 -5.05
      vertex 17.7666 49.437 5.05
      vertex 17.7666 49.437 -5.05
    endloop
  endfacet
  facet normal 0.406737 -0.913546 0
    outer loop
      vertex 20.625 52.0107 -5.05
      vertex 22.3916 52.7973 5.05
      vertex 20.625 52.0107 5.05
    endloop
  endfacet
  facet normal 0.406737 -0.913546 0
    outer loop
      vertex 22.3916 52.7973 5.05
      vertex 20.625 52.0107 -5.05
      vertex 22.3916 52.7973 -5.05
    endloop
  endfacet
  facet normal 1 -0 0
    outer loop
      vertex 16 -16 5.05
      vertex 16 44 -5.05
      vertex 16 44 5.05
    endloop
  endfacet
  facet normal 1 0 0
    outer loop
      vertex 16 44 -5.05
      vertex 16 -16 5.05
      vertex 16 -16 -5.05
    endloop
  endfacet
  facet normal -1 0 0
    outer loop
      vertex 34.5 -52 -5.05
      vertex 34.5 44 5.05
      vertex 34.5 44 -5.05
    endloop
  endfacet
  facet normal -1 -0 0
    outer loop
      vertex 34.5 44 5.05
      vertex 34.5 -52 -5.05
      vertex 34.5 -52 5.05
    endloop
  endfacet
  facet normal 0 0 -1
    outer loop
      vertex 12 44 -5.05
      vertex 16 44 -5.05
      vertex 16 -16 -5.05
    endloop
  endfacet
  facet normal 0 -0 -1
    outer loop
      vertex 12.2895 46.7548 -5.05
      vertex 16 44 -5.05
      vertex 12 44 -5.05
    endloop
  endfacet
  facet normal 0 0 -1
    outer loop
      vertex 16 44 -5.05
      vertex 13.1455 49.3893 -5.05
      vertex 14.5305 51.7882 -5.05
    endloop
  endfacet
  facet normal 0 0 -1
    outer loop
      vertex 12 44 -5.05
      vertex 16 -16 -5.05
      vertex 12 -16 -5.05
    endloop
  endfacet
  facet normal 0 0 -1
    outer loop
      vertex 16 44 -5.05
      vertex 12.2895 46.7548 -5.05
      vertex 13.1455 49.3893 -5.05
    endloop
  endfacet
  facet normal 0 0 -1
    outer loop
      vertex 34.5 44 -5.05
      vertex 38.5 44 -5.05
      vertex 38.5 -52 -5.05
    endloop
  endfacet
  facet normal 0 0 -1
    outer loop
      vertex 38.5 44 -5.05
      vertex 34.5 44 -5.05
      vertex 38.2105 46.7548 -5.05
    endloop
  endfacet
  facet normal 0 0 -1
    outer loop
      vertex 34.2979 45.9232 -5.05
      vertex 38.2105 46.7548 -5.05
      vertex 34.5 44 -5.05
    endloop
  endfacet
  facet normal 0 0 -1
    outer loop
      vertex 34.5 44 -5.05
      vertex 38.5 -52 -5.05
      vertex 34.5 -52 -5.05
    endloop
  endfacet
  facet normal -0 0 -1
    outer loop
      vertex 38.2105 46.7548 -5.05
      vertex 34.2979 45.9232 -5.05
      vertex 37.3545 49.3893 -5.05
    endloop
  endfacet
  facet normal 0 0 -1
    outer loop
      vertex 33.7003 47.7623 -5.05
      vertex 37.3545 49.3893 -5.05
      vertex 34.2979 45.9232 -5.05
    endloop
  endfacet
  facet normal -0 0 -1
    outer loop
      vertex 37.3545 49.3893 -5.05
      vertex 33.7003 47.7623 -5.05
      vertex 35.9695 51.7882 -5.05
    endloop
  endfacet
  facet normal 0 0 -1
    outer loop
      vertex 32.7334 49.437 -5.05
      vertex 35.9695 51.7882 -5.05
      vertex 33.7003 47.7623 -5.05
    endloop
  endfacet
  facet normal -0 0 -1
    outer loop
      vertex 35.9695 51.7882 -5.05
      vertex 32.7334 49.437 -5.05
      vertex 34.116 53.8467 -5.05
    endloop
  endfacet
  facet normal 0 0 -1
    outer loop
      vertex 31.4395 50.8741 -5.05
      vertex 34.116 53.8467 -5.05
      vertex 32.7334 49.437 -5.05
    endloop
  endfacet
  facet normal -0 0 -1
    outer loop
      vertex 34.116 53.8467 -5.05
      vertex 31.4395 50.8741 -5.05
      vertex 31.875 55.4748 -5.05
    endloop
  endfacet
  facet normal 0 0 -1
    outer loop
      vertex 29.875 52.0107 -5.05
      vertex 31.875 55.4748 -5.05
      vertex 31.4395 50.8741 -5.05
    endloop
  endfacet
  facet normal 0 0 -1
    outer loop
      vertex 29.875 52.0107 -5.05
      vertex 29.3445 56.6015 -5.05
      vertex 31.875 55.4748 -5.05
    endloop
  endfacet
  facet normal 0 0 -1
    outer loop
      vertex 28.1084 52.7973 -5.05
      vertex 29.3445 56.6015 -5.05
      vertex 29.875 52.0107 -5.05
    endloop
  endfacet
  facet normal 0 0 -1
    outer loop
      vertex 28.1084 52.7973 -5.05
      vertex 26.635 57.1774 -5.05
      vertex 29.3445 56.6015 -5.05
    endloop
  endfacet
  facet normal 0 0 -1
    outer loop
      vertex 26.2169 53.1993 -5.05
      vertex 26.635 57.1774 -5.05
      vertex 28.1084 52.7973 -5.05
    endloop
  endfacet
  facet normal 0 0 -1
    outer loop
      vertex 24.2831 53.1993 -5.05
      vertex 26.635 57.1774 -5.05
      vertex 26.2169 53.1993 -5.05
    endloop
  endfacet
  facet normal 0 0 -1
    outer loop
      vertex 24.2831 53.1993 -5.05
      vertex 23.865 57.1774 -5.05
      vertex 26.635 57.1774 -5.05
    endloop
  endfacet
  facet normal 0 0 -1
    outer loop
      vertex 22.3916 52.7973 -5.05
      vertex 23.865 57.1774 -5.05
      vertex 24.2831 53.1993 -5.05
    endloop
  endfacet
  facet normal 0 0 -1
    outer loop
      vertex 22.3916 52.7973 -5.05
      vertex 21.1555 56.6015 -5.05
      vertex 23.865 57.1774 -5.05
    endloop
  endfacet
  facet normal 0 0 -1
    outer loop
      vertex 20.625 52.0107 -5.05
      vertex 21.1555 56.6015 -5.05
      vertex 22.3916 52.7973 -5.05
    endloop
  endfacet
  facet normal 0 0 -1
    outer loop
      vertex 18.625 55.4748 -5.05
      vertex 20.625 52.0107 -5.05
      vertex 19.0605 50.8741 -5.05
    endloop
  endfacet
  facet normal 0 0 -1
    outer loop
      vertex 20.625 52.0107 -5.05
      vertex 18.625 55.4748 -5.05
      vertex 21.1555 56.6015 -5.05
    endloop
  endfacet
  facet normal 0 0 -1
    outer loop
      vertex 16.384 53.8467 -5.05
      vertex 19.0605 50.8741 -5.05
      vertex 17.7666 49.437 -5.05
    endloop
  endfacet
  facet normal 0 0 -1
    outer loop
      vertex 14.5305 51.7882 -5.05
      vertex 17.7666 49.437 -5.05
      vertex 16.7997 47.7623 -5.05
    endloop
  endfacet
  facet normal 0 0 -1
    outer loop
      vertex 19.0605 50.8741 -5.05
      vertex 16.384 53.8467 -5.05
      vertex 18.625 55.4748 -5.05
    endloop
  endfacet
  facet normal 0 0 -1
    outer loop
      vertex 14.5305 51.7882 -5.05
      vertex 16.7997 47.7623 -5.05
      vertex 16.2021 45.9232 -5.05
    endloop
  endfacet
  facet normal 0 0 -1
    outer loop
      vertex 14.5305 51.7882 -5.05
      vertex 16.2021 45.9232 -5.05
      vertex 16 44 -5.05
    endloop
  endfacet
  facet normal 0 0 -1
    outer loop
      vertex 17.7666 49.437 -5.05
      vertex 14.5305 51.7882 -5.05
      vertex 16.384 53.8467 -5.05
    endloop
  endfacet
  facet normal 0.406736 0.913546 -0
    outer loop
      vertex 31.875 55.4748 -5.05
      vertex 29.3445 56.6015 5.05
      vertex 31.875 55.4748 5.05
    endloop
  endfacet
  facet normal 0.406736 0.913546 0
    outer loop
      vertex 29.3445 56.6015 5.05
      vertex 31.875 55.4748 -5.05
      vertex 29.3445 56.6015 -5.05
    endloop
  endfacet
  facet normal -0.994522 0.104528 0
    outer loop
      vertex 12 44 -5.05
      vertex 12.2895 46.7548 5.05
      vertex 12.2895 46.7548 -5.05
    endloop
  endfacet
  facet normal -0.994522 0.104528 0
    outer loop
      vertex 12.2895 46.7548 5.05
      vertex 12 44 -5.05
      vertex 12 44 5.05
    endloop
  endfacet
  facet normal 0 1 -0
    outer loop
      vertex 26.635 57.1774 -5.05
      vertex 23.865 57.1774 5.05
      vertex 26.635 57.1774 5.05
    endloop
  endfacet
  facet normal 0 1 0
    outer loop
      vertex 23.865 57.1774 5.05
      vertex 26.635 57.1774 -5.05
      vertex 23.865 57.1774 -5.05
    endloop
  endfacet
  facet normal -0.406736 0.913546 0
    outer loop
      vertex 21.1555 56.6015 -5.05
      vertex 18.625 55.4748 5.05
      vertex 21.1555 56.6015 5.05
    endloop
  endfacet
  facet normal -0.406736 0.913546 0
    outer loop
      vertex 18.625 55.4748 5.05
      vertex 21.1555 56.6015 -5.05
      vertex 18.625 55.4748 -5.05
    endloop
  endfacet
  facet normal -0.951057 0.309017 0
    outer loop
      vertex 12.2895 46.7548 -5.05
      vertex 13.1455 49.3893 5.05
      vertex 13.1455 49.3893 -5.05
    endloop
  endfacet
  facet normal -0.951057 0.309017 0
    outer loop
      vertex 13.1455 49.3893 5.05
      vertex 12.2895 46.7548 -5.05
      vertex 12.2895 46.7548 5.05
    endloop
  endfacet
  facet normal 0.866026 0.5 0
    outer loop
      vertex 37.3545 49.3893 5.05
      vertex 35.9695 51.7882 -5.05
      vertex 35.9695 51.7882 5.05
    endloop
  endfacet
  facet normal 0.866026 0.5 0
    outer loop
      vertex 35.9695 51.7882 -5.05
      vertex 37.3545 49.3893 5.05
      vertex 37.3545 49.3893 -5.05
    endloop
  endfacet
  facet normal 0.743145 0.66913 0
    outer loop
      vertex 35.9695 51.7882 5.05
      vertex 34.116 53.8467 -5.05
      vertex 34.116 53.8467 5.05
    endloop
  endfacet
  facet normal 0.743145 0.66913 0
    outer loop
      vertex 34.116 53.8467 -5.05
      vertex 35.9695 51.7882 5.05
      vertex 35.9695 51.7882 -5.05
    endloop
  endfacet
  facet normal 0.587786 0.809017 -0
    outer loop
      vertex 34.116 53.8467 -5.05
      vertex 31.875 55.4748 5.05
      vertex 34.116 53.8467 5.05
    endloop
  endfacet
  facet normal 0.587786 0.809017 0
    outer loop
      vertex 31.875 55.4748 5.05
      vertex 34.116 53.8467 -5.05
      vertex 31.875 55.4748 -5.05
    endloop
  endfacet
  facet normal 0.207912 0.978148 -0
    outer loop
      vertex 29.3445 56.6015 -5.05
      vertex 26.635 57.1774 5.05
      vertex 29.3445 56.6015 5.05
    endloop
  endfacet
  facet normal 0.207912 0.978148 0
    outer loop
      vertex 26.635 57.1774 5.05
      vertex 29.3445 56.6015 -5.05
      vertex 26.635 57.1774 -5.05
    endloop
  endfacet
  facet normal -0.866026 0.5 0
    outer loop
      vertex 13.1455 49.3893 -5.05
      vertex 14.5305 51.7882 5.05
      vertex 14.5305 51.7882 -5.05
    endloop
  endfacet
  facet normal -0.866026 0.5 0
    outer loop
      vertex 14.5305 51.7882 5.05
      vertex 13.1455 49.3893 -5.05
      vertex 13.1455 49.3893 5.05
    endloop
  endfacet
  facet normal -0.587786 0.809017 0
    outer loop
      vertex 18.625 55.4748 -5.05
      vertex 16.384 53.8467 5.05
      vertex 18.625 55.4748 5.05
    endloop
  endfacet
  facet normal -0.587786 0.809017 0
    outer loop
      vertex 16.384 53.8467 5.05
      vertex 18.625 55.4748 -5.05
      vertex 16.384 53.8467 -5.05
    endloop
  endfacet
  facet normal -0.207912 0.978148 0
    outer loop
      vertex 23.865 57.1774 -5.05
      vertex 21.1555 56.6015 5.05
      vertex 23.865 57.1774 5.05
    endloop
  endfacet
  facet normal -0.207912 0.978148 0
    outer loop
      vertex 21.1555 56.6015 5.05
      vertex 23.865 57.1774 -5.05
      vertex 21.1555 56.6015 -5.05
    endloop
  endfacet
  facet normal -0.743145 0.669131 0
    outer loop
      vertex 14.5305 51.7882 -5.05
      vertex 16.384 53.8467 5.05
      vertex 16.384 53.8467 -5.05
    endloop
  endfacet
  facet normal -0.743145 0.669131 0
    outer loop
      vertex 16.384 53.8467 5.05
      vertex 14.5305 51.7882 -5.05
      vertex 14.5305 51.7882 5.05
    endloop
  endfacet
  facet normal 0.994522 0.104528 0
    outer loop
      vertex 38.5 44 5.05
      vertex 38.2105 46.7548 -5.05
      vertex 38.2105 46.7548 5.05
    endloop
  endfacet
  facet normal 0.994522 0.104528 0
    outer loop
      vertex 38.2105 46.7548 -5.05
      vertex 38.5 44 5.05
      vertex 38.5 44 -5.05
    endloop
  endfacet
  facet normal 0.951056 0.309018 0
    outer loop
      vertex 38.2105 46.7548 5.05
      vertex 37.3545 49.3893 -5.05
      vertex 37.3545 49.3893 5.05
    endloop
  endfacet
  facet normal 0.951056 0.309018 0
    outer loop
      vertex 37.3545 49.3893 -5.05
      vertex 38.2105 46.7548 5.05
      vertex 38.2105 46.7548 -5.05
    endloop
  endfacet
  facet normal 0 0 1
    outer loop
      vertex 38.2105 46.7548 5.05
      vertex 34.2979 45.9232 5.05
      vertex 34.5 44 5.05
    endloop
  endfacet
  facet normal 0 0 1
    outer loop
      vertex 32.7334 49.437 5.05
      vertex 35.9695 51.7882 5.05
      vertex 34.116 53.8467 5.05
    endloop
  endfacet
  facet normal 0 0 1
    outer loop
      vertex 37.3545 49.3893 5.05
      vertex 33.7003 47.7623 5.05
      vertex 34.2979 45.9232 5.05
    endloop
  endfacet
  facet normal 0 0 1
    outer loop
      vertex 35.9695 51.7882 5.05
      vertex 32.7334 49.437 5.05
      vertex 33.7003 47.7623 5.05
    endloop
  endfacet
  facet normal 0 0 1
    outer loop
      vertex 31.4395 50.8741 5.05
      vertex 34.116 53.8467 5.05
      vertex 31.875 55.4748 5.05
    endloop
  endfacet
  facet normal 0 0 1
    outer loop
      vertex 34.116 53.8467 5.05
      vertex 31.4395 50.8741 5.05
      vertex 32.7334 49.437 5.05
    endloop
  endfacet
  facet normal 0 0 1
    outer loop
      vertex 31.875 55.4748 5.05
      vertex 29.875 52.0107 5.05
      vertex 31.4395 50.8741 5.05
    endloop
  endfacet
  facet normal 0 0 1
    outer loop
      vertex 29.3445 56.6015 5.05
      vertex 29.875 52.0107 5.05
      vertex 31.875 55.4748 5.05
    endloop
  endfacet
  facet normal 0 0 1
    outer loop
      vertex 29.3445 56.6015 5.05
      vertex 28.1084 52.7973 5.05
      vertex 29.875 52.0107 5.05
    endloop
  endfacet
  facet normal 0 0 1
    outer loop
      vertex 26.635 57.1774 5.05
      vertex 28.1084 52.7973 5.05
      vertex 29.3445 56.6015 5.05
    endloop
  endfacet
  facet normal 0 0 1
    outer loop
      vertex 26.635 57.1774 5.05
      vertex 26.2169 53.1993 5.05
      vertex 28.1084 52.7973 5.05
    endloop
  endfacet
  facet normal 0 0 1
    outer loop
      vertex 26.635 57.1774 5.05
      vertex 24.2831 53.1993 5.05
      vertex 26.2169 53.1993 5.05
    endloop
  endfacet
  facet normal -0 0 1
    outer loop
      vertex 23.865 57.1774 5.05
      vertex 24.2831 53.1993 5.05
      vertex 26.635 57.1774 5.05
    endloop
  endfacet
  facet normal 0 0 1
    outer loop
      vertex 23.865 57.1774 5.05
      vertex 22.3916 52.7973 5.05
      vertex 24.2831 53.1993 5.05
    endloop
  endfacet
  facet normal -0 0 1
    outer loop
      vertex 21.1555 56.6015 5.05
      vertex 22.3916 52.7973 5.05
      vertex 23.865 57.1774 5.05
    endloop
  endfacet
  facet normal 0 0 1
    outer loop
      vertex 21.1555 56.6015 5.05
      vertex 20.625 52.0107 5.05
      vertex 22.3916 52.7973 5.05
    endloop
  endfacet
  facet normal -0 0 1
    outer loop
      vertex 18.625 55.4748 5.05
      vertex 20.625 52.0107 5.05
      vertex 21.1555 56.6015 5.05
    endloop
  endfacet
  facet normal 0 0 1
    outer loop
      vertex 20.625 52.0107 5.05
      vertex 18.625 55.4748 5.05
      vertex 19.0605 50.8741 5.05
    endloop
  endfacet
  facet normal -0 0 1
    outer loop
      vertex 16.384 53.8467 5.05
      vertex 19.0605 50.8741 5.05
      vertex 18.625 55.4748 5.05
    endloop
  endfacet
  facet normal 0 0 1
    outer loop
      vertex 19.0605 50.8741 5.05
      vertex 16.384 53.8467 5.05
      vertex 17.7666 49.437 5.05
    endloop
  endfacet
  facet normal -0 0 1
    outer loop
      vertex 14.5305 51.7882 5.05
      vertex 17.7666 49.437 5.05
      vertex 16.384 53.8467 5.05
    endloop
  endfacet
  facet normal 0 0 1
    outer loop
      vertex 17.7666 49.437 5.05
      vertex 14.5305 51.7882 5.05
      vertex 16.7997 47.7623 5.05
    endloop
  endfacet
  facet normal -0 0 1
    outer loop
      vertex 13.1455 49.3893 5.05
      vertex 16.7997 47.7623 5.05
      vertex 14.5305 51.7882 5.05
    endloop
  endfacet
  facet normal 0 0 1
    outer loop
      vertex 16.7997 47.7623 5.05
      vertex 13.1455 49.3893 5.05
      vertex 16.2021 45.9232 5.05
    endloop
  endfacet
  facet normal -0 0 1
    outer loop
      vertex 12.2895 46.7548 5.05
      vertex 16.2021 45.9232 5.05
      vertex 13.1455 49.3893 5.05
    endloop
  endfacet
  facet normal 0 0 1
    outer loop
      vertex 16.2021 45.9232 5.05
      vertex 12.2895 46.7548 5.05
      vertex 16 44 5.05
    endloop
  endfacet
  facet normal 0 0 1
    outer loop
      vertex 16 44 5.05
      vertex 12.2895 46.7548 5.05
      vertex 12 44 5.05
    endloop
  endfacet
  facet normal 0 0 1
    outer loop
      vertex 16 44 5.05
      vertex 12 44 5.05
      vertex 16 -16 5.05
    endloop
  endfacet
  facet normal 0 0 1
    outer loop
      vertex 16 -16 5.05
      vertex 12 44 5.05
      vertex 12 -16 5.05
    endloop
  endfacet
  facet normal 0 0 1
    outer loop
      vertex 34.5 44 5.05
      vertex 38.5 44 5.05
      vertex 38.2105 46.7548 5.05
    endloop
  endfacet
  facet normal 0 0 1
    outer loop
      vertex 34.2979 45.9232 5.05
      vertex 38.2105 46.7548 5.05
      vertex 37.3545 49.3893 5.05
    endloop
  endfacet
  facet normal 0 0 1
    outer loop
      vertex 33.7003 47.7623 5.05
      vertex 37.3545 49.3893 5.05
      vertex 35.9695 51.7882 5.05
    endloop
  endfacet
  facet normal 0 0 1
    outer loop
      vertex 38.5 44 5.05
      vertex 34.5 44 5.05
      vertex 38.5 -52 5.05
    endloop
  endfacet
  facet normal 0 0 1
    outer loop
      vertex 38.5 -52 5.05
      vertex 34.5 44 5.05
      vertex 34.5 -52 5.05
    endloop
  endfacet
  facet normal -1 0 0
    outer loop
      vertex 12 -16 -5.05
      vertex 12 44 5.05
      vertex 12 44 -5.05
    endloop
  endfacet
  facet normal -1 -0 0
    outer loop
      vertex 12 44 5.05
      vertex 12 -16 -5.05
      vertex 12 -16 5.05
    endloop
  endfacet
  facet normal 0 -1 0
    outer loop
      vertex 12 -16 -5.05
      vertex 16 -16 5.05
      vertex 12 -16 5.05
    endloop
  endfacet
  facet normal 0 -1 -0
    outer loop
      vertex 16 -16 5.05
      vertex 12 -16 -5.05
      vertex 16 -16 -5.05
    endloop
  endfacet
  facet normal 1 -0 0
    outer loop
      vertex 38.5 -52 5.05
      vertex 38.5 44 -5.05
      vertex 38.5 44 5.05
    endloop
  endfacet
  facet normal 1 0 0
    outer loop
      vertex 38.5 44 -5.05
      vertex 38.5 -52 5.05
      vertex 38.5 -52 -5.05
    endloop
  endfacet
  facet normal 0 -1 0
    outer loop
      vertex 34.5 -52 -5.05
      vertex 38.5 -52 5.05
      vertex 34.5 -52 5.05
    endloop
  endfacet
  facet normal 0 -1 -0
    outer loop
      vertex 38.5 -52 5.05
      vertex 34.5 -52 -5.05
      vertex 38.5 -52 -5.05
    endloop
  endfacet
endsolid OpenSCAD_Model
