solid OpenSCAD_Model
  facet normal -0.990268 0.139173 0
    outer loop
      vertex 7.87226 -21.1764 -5.05
      vertex 7.81273 -21.6 -4.95
      vertex 7.87226 -21.1764 5.05
    endloop
  endfacet
  facet normal -0.990268 0.139173 -7.26397e-007
    outer loop
      vertex 7.1764 -26.1277 -5.05
      vertex 7.81273 -21.6 -4.95
      vertex 7.87226 -21.1764 -5.05
    endloop
  endfacet
  facet normal -0.990268 0.139173 0
    outer loop
      vertex 7.81273 -21.6 -4.95
      vertex 7.1764 -26.1277 -5.05
      vertex 7.1764 -26.1277 -4.95
    endloop
  endfacet
  facet normal -0.990268 0.139173 0
    outer loop
      vertex 7.81273 -21.6 4.95
      vertex 7.87226 -21.1764 5.05
      vertex 7.81273 -21.6 -4.95
    endloop
  endfacet
  facet normal -0.990268 0.139173 0
    outer loop
      vertex 7.1764 -26.1277 5.05
      vertex 7.81273 -21.6 4.95
      vertex 7.1764 -26.1277 4.95
    endloop
  endfacet
  facet normal -0.990268 0.139173 7.26397e-007
    outer loop
      vertex 7.81273 -21.6 4.95
      vertex 7.1764 -26.1277 5.05
      vertex 7.87226 -21.1764 5.05
    endloop
  endfacet
  facet normal 0 0 1
    outer loop
      vertex 7.87226 -21.1764 5.05
      vertex 12.1277 -26.8236 5.05
      vertex 12.8236 -21.8723 5.05
    endloop
  endfacet
  facet normal 0 0 1
    outer loop
      vertex 12.1277 -26.8236 5.05
      vertex 7.87226 -21.1764 5.05
      vertex 7.1764 -26.1277 5.05
    endloop
  endfacet
  facet normal 0.990268 -0.139173 0
    outer loop
      vertex 12.1277 -26.8236 5.05
      vertex 12.8236 -21.8723 -5.05
      vertex 12.8236 -21.8723 5.05
    endloop
  endfacet
  facet normal 0.990268 -0.139173 0
    outer loop
      vertex 12.8236 -21.8723 -5.05
      vertex 12.1277 -26.8236 5.05
      vertex 12.1277 -26.8236 -5.05
    endloop
  endfacet
  facet normal 0 0 -1
    outer loop
      vertex 12.1277 -26.8236 -5.05
      vertex 7.87226 -21.1764 -5.05
      vertex 12.8236 -21.8723 -5.05
    endloop
  endfacet
  facet normal 0 -0 -1
    outer loop
      vertex 7.87226 -21.1764 -5.05
      vertex 12.1277 -26.8236 -5.05
      vertex 7.1764 -26.1277 -5.05
    endloop
  endfacet
  facet normal -0.139173 -0.990268 -0
    outer loop
      vertex 7.1764 -26.1277 -4.95
      vertex 7.1764 -26.1277 -5.05
      vertex 9.11364 -26.4 -4.95
    endloop
  endfacet
  facet normal -0.139173 -0.990268 0
    outer loop
      vertex 9.11364 -26.4 4.95
      vertex 7.1764 -26.1277 5.05
      vertex 7.1764 -26.1277 4.95
    endloop
  endfacet
  facet normal -0.139173 -0.990268 5.82225e-007
    outer loop
      vertex 7.1764 -26.1277 5.05
      vertex 9.11364 -26.4 4.95
      vertex 12.1277 -26.8236 5.05
    endloop
  endfacet
  facet normal -0.139173 -0.990268 0
    outer loop
      vertex 9.11364 -26.4 -4.95
      vertex 12.1277 -26.8236 5.05
      vertex 9.11364 -26.4 4.95
    endloop
  endfacet
  facet normal -0.139173 -0.990268 0
    outer loop
      vertex 9.11364 -26.4 -4.95
      vertex 12.1277 -26.8236 -5.05
      vertex 12.1277 -26.8236 5.05
    endloop
  endfacet
  facet normal -0.139173 -0.990268 -5.82225e-007
    outer loop
      vertex 12.1277 -26.8236 -5.05
      vertex 9.11364 -26.4 -4.95
      vertex 7.1764 -26.1277 -5.05
    endloop
  endfacet
  facet normal 0.139173 0.990268 -0
    outer loop
      vertex 12.8236 -21.8723 -5.05
      vertex 7.87226 -21.1764 5.05
      vertex 12.8236 -21.8723 5.05
    endloop
  endfacet
  facet normal 0.139173 0.990268 0
    outer loop
      vertex 7.87226 -21.1764 5.05
      vertex 12.8236 -21.8723 -5.05
      vertex 7.87226 -21.1764 -5.05
    endloop
  endfacet
  facet normal -1 0 0
    outer loop
      vertex -35 -26.4 -4.95
      vertex -35 -21.6 4.95
      vertex -35 -21.6 -4.95
    endloop
  endfacet
  facet normal -1 -0 0
    outer loop
      vertex -35 -21.6 4.95
      vertex -35 -26.4 -4.95
      vertex -35 -26.4 4.95
    endloop
  endfacet
  facet normal 0 0 1
    outer loop
      vertex 7.81273 -21.6 4.95
      vertex -35 -21.6 4.95
      vertex 7.1764 -26.1277 4.95
    endloop
  endfacet
  facet normal 0 0 1
    outer loop
      vertex -35 -26.4 4.95
      vertex 7.1764 -26.1277 4.95
      vertex -35 -21.6 4.95
    endloop
  endfacet
  facet normal 0 0 1
    outer loop
      vertex 7.1764 -26.1277 4.95
      vertex -35 -26.4 4.95
      vertex 9.11364 -26.4 4.95
    endloop
  endfacet
  facet normal 0 0 -1
    outer loop
      vertex 9.11364 -26.4 -4.95
      vertex -35 -26.4 -4.95
      vertex 7.1764 -26.1277 -4.95
    endloop
  endfacet
  facet normal 0 0 -1
    outer loop
      vertex -35 -21.6 -4.95
      vertex 7.1764 -26.1277 -4.95
      vertex -35 -26.4 -4.95
    endloop
  endfacet
  facet normal 0 0 -1
    outer loop
      vertex 7.1764 -26.1277 -4.95
      vertex -35 -21.6 -4.95
      vertex 7.81273 -21.6 -4.95
    endloop
  endfacet
  facet normal 0 -1 0
    outer loop
      vertex -35 -26.4 4.95
      vertex -15 -26.4 1.75
      vertex 9.11364 -26.4 4.95
    endloop
  endfacet
  facet normal 0 -1 0
    outer loop
      vertex -35 -26.4 4.95
      vertex -15.5408 -26.4 1.66435
      vertex -15 -26.4 1.75
    endloop
  endfacet
  facet normal 0 -1 0
    outer loop
      vertex -35 -26.4 4.95
      vertex -16.0286 -26.4 1.41578
      vertex -15.5408 -26.4 1.66435
    endloop
  endfacet
  facet normal 0 -1 0
    outer loop
      vertex -35 -26.4 4.95
      vertex -16.4158 -26.4 1.02862
      vertex -16.0286 -26.4 1.41578
    endloop
  endfacet
  facet normal 0 -1 0
    outer loop
      vertex -35 -26.4 4.95
      vertex -16.6643 -26.4 0.540779
      vertex -16.4158 -26.4 1.02862
    endloop
  endfacet
  facet normal 0 -1 0
    outer loop
      vertex -35 -26.4 4.95
      vertex -16.75 -26.4 -6.95901e-015
      vertex -16.6643 -26.4 0.540779
    endloop
  endfacet
  facet normal 0 -1 0
    outer loop
      vertex -35 -26.4 -4.95
      vertex -16.75 -26.4 -6.95901e-015
      vertex -35 -26.4 4.95
    endloop
  endfacet
  facet normal 0 -1 -0
    outer loop
      vertex -16.75 -26.4 -6.95901e-015
      vertex -35 -26.4 -4.95
      vertex -16.6643 -26.4 -0.540779
    endloop
  endfacet
  facet normal 0 -1 -0
    outer loop
      vertex -16.6643 -26.4 -0.540779
      vertex -35 -26.4 -4.95
      vertex -16.4158 -26.4 -1.02862
    endloop
  endfacet
  facet normal 0 -1 -0
    outer loop
      vertex -16.4158 -26.4 -1.02862
      vertex -35 -26.4 -4.95
      vertex -16.0286 -26.4 -1.41578
    endloop
  endfacet
  facet normal 0 -1 -0
    outer loop
      vertex -15.5408 -26.4 -1.66435
      vertex -35 -26.4 -4.95
      vertex -15 -26.4 -1.75
    endloop
  endfacet
  facet normal 0 -1 -0
    outer loop
      vertex -16.0286 -26.4 -1.41578
      vertex -35 -26.4 -4.95
      vertex -15.5408 -26.4 -1.66435
    endloop
  endfacet
  facet normal 0 -1 0
    outer loop
      vertex -14.4592 -26.4 1.66435
      vertex 9.11364 -26.4 4.95
      vertex -15 -26.4 1.75
    endloop
  endfacet
  facet normal 0 -1 0
    outer loop
      vertex -13.9714 -26.4 1.41578
      vertex 9.11364 -26.4 4.95
      vertex -14.4592 -26.4 1.66435
    endloop
  endfacet
  facet normal 0 -1 0
    outer loop
      vertex -13.5842 -26.4 1.02862
      vertex 9.11364 -26.4 4.95
      vertex -13.9714 -26.4 1.41578
    endloop
  endfacet
  facet normal 0 -1 0
    outer loop
      vertex -13.3357 -26.4 0.540779
      vertex 9.11364 -26.4 4.95
      vertex -13.5842 -26.4 1.02862
    endloop
  endfacet
  facet normal 0 -1 0
    outer loop
      vertex -13.25 -26.4 -6.95901e-015
      vertex 9.11364 -26.4 4.95
      vertex -13.3357 -26.4 0.540779
    endloop
  endfacet
  facet normal 0 -1 0
    outer loop
      vertex 9.11364 -26.4 -4.95
      vertex -13.25 -26.4 -6.95901e-015
      vertex -13.3357 -26.4 -0.540779
    endloop
  endfacet
  facet normal 0 -1 0
    outer loop
      vertex 9.11364 -26.4 -4.95
      vertex -13.3357 -26.4 -0.540779
      vertex -13.5842 -26.4 -1.02862
    endloop
  endfacet
  facet normal 0 -1 0
    outer loop
      vertex 9.11364 -26.4 -4.95
      vertex -13.5842 -26.4 -1.02862
      vertex -13.9714 -26.4 -1.41578
    endloop
  endfacet
  facet normal 0 -1 0
    outer loop
      vertex 9.11364 -26.4 -4.95
      vertex -13.9714 -26.4 -1.41578
      vertex -14.4592 -26.4 -1.66435
    endloop
  endfacet
  facet normal 0 -1 0
    outer loop
      vertex 9.11364 -26.4 -4.95
      vertex -15 -26.4 -1.75
      vertex -35 -26.4 -4.95
    endloop
  endfacet
  facet normal 0 -1 0
    outer loop
      vertex -13.25 -26.4 -6.95901e-015
      vertex 9.11364 -26.4 -4.95
      vertex 9.11364 -26.4 4.95
    endloop
  endfacet
  facet normal 0 -1 0
    outer loop
      vertex -15 -26.4 -1.75
      vertex 9.11364 -26.4 -4.95
      vertex -14.4592 -26.4 -1.66435
    endloop
  endfacet
  facet normal 0 1 0
    outer loop
      vertex 7.81273 -21.6 4.95
      vertex -15 -21.6 1.75
      vertex -35 -21.6 4.95
    endloop
  endfacet
  facet normal 0 1 0
    outer loop
      vertex 7.81273 -21.6 4.95
      vertex -14.4592 -21.6 1.66435
      vertex -15 -21.6 1.75
    endloop
  endfacet
  facet normal 0 1 0
    outer loop
      vertex 7.81273 -21.6 4.95
      vertex -13.9714 -21.6 1.41578
      vertex -14.4592 -21.6 1.66435
    endloop
  endfacet
  facet normal 0 1 0
    outer loop
      vertex 7.81273 -21.6 4.95
      vertex -13.5842 -21.6 1.02862
      vertex -13.9714 -21.6 1.41578
    endloop
  endfacet
  facet normal 0 1 0
    outer loop
      vertex 7.81273 -21.6 4.95
      vertex -13.3357 -21.6 0.540779
      vertex -13.5842 -21.6 1.02862
    endloop
  endfacet
  facet normal 0 1 0
    outer loop
      vertex 7.81273 -21.6 4.95
      vertex -13.25 -21.6 -8.61263e-015
      vertex -13.3357 -21.6 0.540779
    endloop
  endfacet
  facet normal 0 1 -0
    outer loop
      vertex 7.81273 -21.6 -4.95
      vertex -13.25 -21.6 -8.61263e-015
      vertex 7.81273 -21.6 4.95
    endloop
  endfacet
  facet normal 0 1 0
    outer loop
      vertex -13.25 -21.6 -8.61263e-015
      vertex 7.81273 -21.6 -4.95
      vertex -13.3357 -21.6 -0.540779
    endloop
  endfacet
  facet normal 0 1 0
    outer loop
      vertex -13.3357 -21.6 -0.540779
      vertex 7.81273 -21.6 -4.95
      vertex -13.5842 -21.6 -1.02862
    endloop
  endfacet
  facet normal 0 1 0
    outer loop
      vertex -13.5842 -21.6 -1.02862
      vertex 7.81273 -21.6 -4.95
      vertex -13.9714 -21.6 -1.41578
    endloop
  endfacet
  facet normal 0 1 0
    outer loop
      vertex -14.4592 -21.6 -1.66435
      vertex 7.81273 -21.6 -4.95
      vertex -15 -21.6 -1.75
    endloop
  endfacet
  facet normal 0 1 0
    outer loop
      vertex -13.9714 -21.6 -1.41578
      vertex 7.81273 -21.6 -4.95
      vertex -14.4592 -21.6 -1.66435
    endloop
  endfacet
  facet normal 0 1 -0
    outer loop
      vertex -15.5408 -21.6 1.66435
      vertex -35 -21.6 4.95
      vertex -15 -21.6 1.75
    endloop
  endfacet
  facet normal 0 1 -0
    outer loop
      vertex -16.0286 -21.6 1.41578
      vertex -35 -21.6 4.95
      vertex -15.5408 -21.6 1.66435
    endloop
  endfacet
  facet normal 0 1 -0
    outer loop
      vertex -16.4158 -21.6 1.02862
      vertex -35 -21.6 4.95
      vertex -16.0286 -21.6 1.41578
    endloop
  endfacet
  facet normal 0 1 -0
    outer loop
      vertex -16.6643 -21.6 0.540779
      vertex -35 -21.6 4.95
      vertex -16.4158 -21.6 1.02862
    endloop
  endfacet
  facet normal 0 1 -0
    outer loop
      vertex -16.75 -21.6 -8.61263e-015
      vertex -35 -21.6 4.95
      vertex -16.6643 -21.6 0.540779
    endloop
  endfacet
  facet normal 0 1 0
    outer loop
      vertex -35 -21.6 -4.95
      vertex -16.75 -21.6 -8.61263e-015
      vertex -16.6643 -21.6 -0.540779
    endloop
  endfacet
  facet normal 0 1 0
    outer loop
      vertex -35 -21.6 -4.95
      vertex -16.6643 -21.6 -0.540779
      vertex -16.4158 -21.6 -1.02862
    endloop
  endfacet
  facet normal 0 1 0
    outer loop
      vertex -35 -21.6 -4.95
      vertex -16.4158 -21.6 -1.02862
      vertex -16.0286 -21.6 -1.41578
    endloop
  endfacet
  facet normal 0 1 0
    outer loop
      vertex -35 -21.6 -4.95
      vertex -16.0286 -21.6 -1.41578
      vertex -15.5408 -21.6 -1.66435
    endloop
  endfacet
  facet normal 0 1 0
    outer loop
      vertex -16.75 -21.6 -8.61263e-015
      vertex -35 -21.6 -4.95
      vertex -35 -21.6 4.95
    endloop
  endfacet
  facet normal 0 1 0
    outer loop
      vertex -15 -21.6 -1.75
      vertex -35 -21.6 -4.95
      vertex -15.5408 -21.6 -1.66435
    endloop
  endfacet
  facet normal 0 1 0
    outer loop
      vertex -35 -21.6 -4.95
      vertex -15 -21.6 -1.75
      vertex 7.81273 -21.6 -4.95
    endloop
  endfacet
  facet normal -0.990268 0.139173 0
    outer loop
      vertex 1.87226 -37.1764 -5.05
      vertex 1.81273 -37.6 -4.95
      vertex 1.87226 -37.1764 5.05
    endloop
  endfacet
  facet normal -0.990268 0.139173 2.26997e-007
    outer loop
      vertex 1.1764 -42.1277 -5.05
      vertex 1.81273 -37.6 -4.95
      vertex 1.87226 -37.1764 -5.05
    endloop
  endfacet
  facet normal -0.990268 0.139173 0
    outer loop
      vertex 1.81273 -37.6 -4.95
      vertex 1.1764 -42.1277 -5.05
      vertex 1.1764 -42.1277 -4.95
    endloop
  endfacet
  facet normal -0.990268 0.139173 0
    outer loop
      vertex 1.81273 -37.6 4.95
      vertex 1.87226 -37.1764 5.05
      vertex 1.81273 -37.6 -4.95
    endloop
  endfacet
  facet normal -0.990268 0.139173 0
    outer loop
      vertex 1.1764 -42.1277 5.05
      vertex 1.81273 -37.6 4.95
      vertex 1.1764 -42.1277 4.95
    endloop
  endfacet
  facet normal -0.990268 0.139173 -2.26997e-007
    outer loop
      vertex 1.81273 -37.6 4.95
      vertex 1.1764 -42.1277 5.05
      vertex 1.87226 -37.1764 5.05
    endloop
  endfacet
  facet normal 0 0 1
    outer loop
      vertex 1.87226 -37.1764 5.05
      vertex 6.12774 -42.8236 5.05
      vertex 6.8236 -37.8723 5.05
    endloop
  endfacet
  facet normal 0 0 1
    outer loop
      vertex 6.12774 -42.8236 5.05
      vertex 1.87226 -37.1764 5.05
      vertex 1.1764 -42.1277 5.05
    endloop
  endfacet
  facet normal 0.990268 -0.139173 0
    outer loop
      vertex 6.12774 -42.8236 5.05
      vertex 6.8236 -37.8723 -5.05
      vertex 6.8236 -37.8723 5.05
    endloop
  endfacet
  facet normal 0.990268 -0.139173 0
    outer loop
      vertex 6.8236 -37.8723 -5.05
      vertex 6.12774 -42.8236 5.05
      vertex 6.12774 -42.8236 -5.05
    endloop
  endfacet
  facet normal 0.139173 0.990268 -0
    outer loop
      vertex 6.8236 -37.8723 -5.05
      vertex 1.87226 -37.1764 5.05
      vertex 6.8236 -37.8723 5.05
    endloop
  endfacet
  facet normal 0.139173 0.990268 0
    outer loop
      vertex 1.87226 -37.1764 5.05
      vertex 6.8236 -37.8723 -5.05
      vertex 1.87226 -37.1764 -5.05
    endloop
  endfacet
  facet normal 0 0 -1
    outer loop
      vertex 6.12774 -42.8236 -5.05
      vertex 1.87226 -37.1764 -5.05
      vertex 6.8236 -37.8723 -5.05
    endloop
  endfacet
  facet normal 0 -0 -1
    outer loop
      vertex 1.87226 -37.1764 -5.05
      vertex 6.12774 -42.8236 -5.05
      vertex 1.1764 -42.1277 -5.05
    endloop
  endfacet
  facet normal -0.139173 -0.990268 -0
    outer loop
      vertex 1.1764 -42.1277 -4.95
      vertex 1.1764 -42.1277 -5.05
      vertex 3.11365 -42.4 -4.95
    endloop
  endfacet
  facet normal -0.139173 -0.990268 0
    outer loop
      vertex 3.11365 -42.4 4.95
      vertex 1.1764 -42.1277 5.05
      vertex 1.1764 -42.1277 4.95
    endloop
  endfacet
  facet normal -0.139172 -0.990268 1.46987e-005
    outer loop
      vertex 1.1764 -42.1277 5.05
      vertex 3.11365 -42.4 4.95
      vertex 6.12774 -42.8236 5.05
    endloop
  endfacet
  facet normal -0.139172 -0.990268 0
    outer loop
      vertex 3.11365 -42.4 -4.95
      vertex 6.12774 -42.8236 5.05
      vertex 3.11365 -42.4 4.95
    endloop
  endfacet
  facet normal -0.139172 -0.990268 0
    outer loop
      vertex 3.11365 -42.4 -4.95
      vertex 6.12774 -42.8236 -5.05
      vertex 6.12774 -42.8236 5.05
    endloop
  endfacet
  facet normal -0.139172 -0.990268 -1.46987e-005
    outer loop
      vertex 6.12774 -42.8236 -5.05
      vertex 3.11365 -42.4 -4.95
      vertex 1.1764 -42.1277 -5.05
    endloop
  endfacet
  facet normal -1 0 0
    outer loop
      vertex -36 -42.4 -4.95
      vertex -36 -37.6 4.95
      vertex -36 -37.6 -4.95
    endloop
  endfacet
  facet normal -1 -0 0
    outer loop
      vertex -36 -37.6 4.95
      vertex -36 -42.4 -4.95
      vertex -36 -42.4 4.95
    endloop
  endfacet
  facet normal 0 0 1
    outer loop
      vertex 1.81273 -37.6 4.95
      vertex -36 -37.6 4.95
      vertex 1.1764 -42.1277 4.95
    endloop
  endfacet
  facet normal 0 0 1
    outer loop
      vertex -36 -42.4 4.95
      vertex 1.1764 -42.1277 4.95
      vertex -36 -37.6 4.95
    endloop
  endfacet
  facet normal 0 0 1
    outer loop
      vertex 1.1764 -42.1277 4.95
      vertex -36 -42.4 4.95
      vertex 3.11365 -42.4 4.95
    endloop
  endfacet
  facet normal 0 1 0
    outer loop
      vertex 1.81273 -37.6 4.95
      vertex -15 -37.6 1.75
      vertex -36 -37.6 4.95
    endloop
  endfacet
  facet normal 0 1 0
    outer loop
      vertex 1.81273 -37.6 4.95
      vertex -14.4592 -37.6 1.66435
      vertex -15 -37.6 1.75
    endloop
  endfacet
  facet normal 0 1 0
    outer loop
      vertex 1.81273 -37.6 4.95
      vertex -13.9714 -37.6 1.41578
      vertex -14.4592 -37.6 1.66435
    endloop
  endfacet
  facet normal 0 1 0
    outer loop
      vertex 1.81273 -37.6 4.95
      vertex -13.5842 -37.6 1.02862
      vertex -13.9714 -37.6 1.41578
    endloop
  endfacet
  facet normal 0 1 0
    outer loop
      vertex 1.81273 -37.6 4.95
      vertex -13.3357 -37.6 0.540779
      vertex -13.5842 -37.6 1.02862
    endloop
  endfacet
  facet normal 0 1 0
    outer loop
      vertex 1.81273 -37.6 4.95
      vertex -13.25 -37.6 -3.10055e-015
      vertex -13.3357 -37.6 0.540779
    endloop
  endfacet
  facet normal 0 1 -0
    outer loop
      vertex 1.81273 -37.6 -4.95
      vertex -13.25 -37.6 -3.10055e-015
      vertex 1.81273 -37.6 4.95
    endloop
  endfacet
  facet normal 0 1 0
    outer loop
      vertex -13.25 -37.6 -3.10055e-015
      vertex 1.81273 -37.6 -4.95
      vertex -13.3357 -37.6 -0.540779
    endloop
  endfacet
  facet normal 0 1 0
    outer loop
      vertex -13.3357 -37.6 -0.540779
      vertex 1.81273 -37.6 -4.95
      vertex -13.5842 -37.6 -1.02862
    endloop
  endfacet
  facet normal 0 1 0
    outer loop
      vertex -13.5842 -37.6 -1.02862
      vertex 1.81273 -37.6 -4.95
      vertex -13.9714 -37.6 -1.41578
    endloop
  endfacet
  facet normal 0 1 0
    outer loop
      vertex -14.4592 -37.6 -1.66435
      vertex 1.81273 -37.6 -4.95
      vertex -15 -37.6 -1.75
    endloop
  endfacet
  facet normal 0 1 0
    outer loop
      vertex -13.9714 -37.6 -1.41578
      vertex 1.81273 -37.6 -4.95
      vertex -14.4592 -37.6 -1.66435
    endloop
  endfacet
  facet normal 0 1 -0
    outer loop
      vertex -15.5408 -37.6 1.66435
      vertex -36 -37.6 4.95
      vertex -15 -37.6 1.75
    endloop
  endfacet
  facet normal 0 1 -0
    outer loop
      vertex -16.0286 -37.6 1.41578
      vertex -36 -37.6 4.95
      vertex -15.5408 -37.6 1.66435
    endloop
  endfacet
  facet normal 0 1 -0
    outer loop
      vertex -16.4158 -37.6 1.02862
      vertex -36 -37.6 4.95
      vertex -16.0286 -37.6 1.41578
    endloop
  endfacet
  facet normal 0 1 -0
    outer loop
      vertex -16.6643 -37.6 0.540779
      vertex -36 -37.6 4.95
      vertex -16.4158 -37.6 1.02862
    endloop
  endfacet
  facet normal 0 1 -0
    outer loop
      vertex -16.75 -37.6 -3.10055e-015
      vertex -36 -37.6 4.95
      vertex -16.6643 -37.6 0.540779
    endloop
  endfacet
  facet normal 0 1 0
    outer loop
      vertex -36 -37.6 -4.95
      vertex -16.75 -37.6 -3.10055e-015
      vertex -16.6643 -37.6 -0.540779
    endloop
  endfacet
  facet normal 0 1 0
    outer loop
      vertex -36 -37.6 -4.95
      vertex -16.6643 -37.6 -0.540779
      vertex -16.4158 -37.6 -1.02862
    endloop
  endfacet
  facet normal 0 1 0
    outer loop
      vertex -36 -37.6 -4.95
      vertex -16.4158 -37.6 -1.02862
      vertex -16.0286 -37.6 -1.41578
    endloop
  endfacet
  facet normal 0 1 0
    outer loop
      vertex -36 -37.6 -4.95
      vertex -16.0286 -37.6 -1.41578
      vertex -15.5408 -37.6 -1.66435
    endloop
  endfacet
  facet normal 0 1 0
    outer loop
      vertex -36 -37.6 -4.95
      vertex -15 -37.6 -1.75
      vertex 1.81273 -37.6 -4.95
    endloop
  endfacet
  facet normal 0 1 0
    outer loop
      vertex -16.75 -37.6 -3.10055e-015
      vertex -36 -37.6 -4.95
      vertex -36 -37.6 4.95
    endloop
  endfacet
  facet normal 0 1 0
    outer loop
      vertex -15 -37.6 -1.75
      vertex -36 -37.6 -4.95
      vertex -15.5408 -37.6 -1.66435
    endloop
  endfacet
  facet normal 0 0 -1
    outer loop
      vertex 3.11365 -42.4 -4.95
      vertex -36 -42.4 -4.95
      vertex 1.1764 -42.1277 -4.95
    endloop
  endfacet
  facet normal 0 0 -1
    outer loop
      vertex -36 -37.6 -4.95
      vertex 1.1764 -42.1277 -4.95
      vertex -36 -42.4 -4.95
    endloop
  endfacet
  facet normal 0 0 -1
    outer loop
      vertex 1.1764 -42.1277 -4.95
      vertex -36 -37.6 -4.95
      vertex 1.81273 -37.6 -4.95
    endloop
  endfacet
  facet normal 0 -1 0
    outer loop
      vertex -36 -42.4 4.95
      vertex -15 -42.4 1.75
      vertex 3.11365 -42.4 4.95
    endloop
  endfacet
  facet normal 0 -1 0
    outer loop
      vertex -36 -42.4 4.95
      vertex -15.5408 -42.4 1.66435
      vertex -15 -42.4 1.75
    endloop
  endfacet
  facet normal 0 -1 0
    outer loop
      vertex -36 -42.4 4.95
      vertex -16.0286 -42.4 1.41578
      vertex -15.5408 -42.4 1.66435
    endloop
  endfacet
  facet normal 0 -1 0
    outer loop
      vertex -36 -42.4 4.95
      vertex -16.4158 -42.4 1.02862
      vertex -16.0286 -42.4 1.41578
    endloop
  endfacet
  facet normal 0 -1 0
    outer loop
      vertex -36 -42.4 4.95
      vertex -16.6643 -42.4 0.540779
      vertex -16.4158 -42.4 1.02862
    endloop
  endfacet
  facet normal 0 -1 0
    outer loop
      vertex -36 -42.4 4.95
      vertex -16.75 -42.4 -1.44692e-015
      vertex -16.6643 -42.4 0.540779
    endloop
  endfacet
  facet normal 0 -1 0
    outer loop
      vertex -36 -42.4 -4.95
      vertex -16.75 -42.4 -1.44692e-015
      vertex -36 -42.4 4.95
    endloop
  endfacet
  facet normal 0 -1 -0
    outer loop
      vertex -16.75 -42.4 -1.44692e-015
      vertex -36 -42.4 -4.95
      vertex -16.6643 -42.4 -0.540779
    endloop
  endfacet
  facet normal 0 -1 -0
    outer loop
      vertex -16.6643 -42.4 -0.540779
      vertex -36 -42.4 -4.95
      vertex -16.4158 -42.4 -1.02862
    endloop
  endfacet
  facet normal 0 -1 -0
    outer loop
      vertex -16.4158 -42.4 -1.02862
      vertex -36 -42.4 -4.95
      vertex -16.0286 -42.4 -1.41578
    endloop
  endfacet
  facet normal 0 -1 -0
    outer loop
      vertex -15.5408 -42.4 -1.66435
      vertex -36 -42.4 -4.95
      vertex -15 -42.4 -1.75
    endloop
  endfacet
  facet normal 0 -1 -0
    outer loop
      vertex -16.0286 -42.4 -1.41578
      vertex -36 -42.4 -4.95
      vertex -15.5408 -42.4 -1.66435
    endloop
  endfacet
  facet normal 0 -1 0
    outer loop
      vertex -14.4592 -42.4 1.66435
      vertex 3.11365 -42.4 4.95
      vertex -15 -42.4 1.75
    endloop
  endfacet
  facet normal 0 -1 0
    outer loop
      vertex -13.9714 -42.4 1.41578
      vertex 3.11365 -42.4 4.95
      vertex -14.4592 -42.4 1.66435
    endloop
  endfacet
  facet normal 0 -1 0
    outer loop
      vertex -13.5842 -42.4 1.02862
      vertex 3.11365 -42.4 4.95
      vertex -13.9714 -42.4 1.41578
    endloop
  endfacet
  facet normal 0 -1 0
    outer loop
      vertex -13.3357 -42.4 0.540779
      vertex 3.11365 -42.4 4.95
      vertex -13.5842 -42.4 1.02862
    endloop
  endfacet
  facet normal 0 -1 0
    outer loop
      vertex -13.25 -42.4 -1.44692e-015
      vertex 3.11365 -42.4 4.95
      vertex -13.3357 -42.4 0.540779
    endloop
  endfacet
  facet normal 0 -1 0
    outer loop
      vertex 3.11365 -42.4 -4.95
      vertex -13.25 -42.4 -1.44692e-015
      vertex -13.3357 -42.4 -0.540779
    endloop
  endfacet
  facet normal 0 -1 0
    outer loop
      vertex 3.11365 -42.4 -4.95
      vertex -13.3357 -42.4 -0.540779
      vertex -13.5842 -42.4 -1.02862
    endloop
  endfacet
  facet normal 0 -1 0
    outer loop
      vertex 3.11365 -42.4 -4.95
      vertex -13.5842 -42.4 -1.02862
      vertex -13.9714 -42.4 -1.41578
    endloop
  endfacet
  facet normal 0 -1 0
    outer loop
      vertex 3.11365 -42.4 -4.95
      vertex -13.9714 -42.4 -1.41578
      vertex -14.4592 -42.4 -1.66435
    endloop
  endfacet
  facet normal 0 -1 0
    outer loop
      vertex -13.25 -42.4 -1.44692e-015
      vertex 3.11365 -42.4 -4.95
      vertex 3.11365 -42.4 4.95
    endloop
  endfacet
  facet normal 0 -1 0
    outer loop
      vertex -15 -42.4 -1.75
      vertex 3.11365 -42.4 -4.95
      vertex -14.4592 -42.4 -1.66435
    endloop
  endfacet
  facet normal 0 -1 0
    outer loop
      vertex 3.11365 -42.4 -4.95
      vertex -15 -42.4 -1.75
      vertex -36 -42.4 -4.95
    endloop
  endfacet
  facet normal -0.987688 0 0.156435
    outer loop
      vertex -13.3357 -42.4 -0.540779
      vertex -13.25 -37.6 -3.10055e-015
      vertex -13.3357 -37.6 -0.540779
    endloop
  endfacet
  facet normal -0.987688 5.38927e-017 0.156435
    outer loop
      vertex -13.25 -37.6 -3.10055e-015
      vertex -13.3357 -42.4 -0.540779
      vertex -13.25 -42.4 -1.44692e-015
    endloop
  endfacet
  facet normal -0.987688 0 0.156435
    outer loop
      vertex -13.3357 -26.4 -0.540779
      vertex -13.25 -21.6 -8.61263e-015
      vertex -13.3357 -21.6 -0.540779
    endloop
  endfacet
  facet normal -0.987688 5.38927e-017 0.156435
    outer loop
      vertex -13.25 -21.6 -8.61263e-015
      vertex -13.3357 -26.4 -0.540779
      vertex -13.25 -26.4 -6.95901e-015
    endloop
  endfacet
  facet normal 0.987688 5.38927e-017 0.156435
    outer loop
      vertex -16.75 -42.4 -1.44692e-015
      vertex -16.6643 -37.6 -0.540779
      vertex -16.75 -37.6 -3.10055e-015
    endloop
  endfacet
  facet normal 0.987688 0 0.156435
    outer loop
      vertex -16.6643 -37.6 -0.540779
      vertex -16.75 -42.4 -1.44692e-015
      vertex -16.6643 -42.4 -0.540779
    endloop
  endfacet
  facet normal 0.987688 5.38927e-017 0.156435
    outer loop
      vertex -16.75 -26.4 -6.95901e-015
      vertex -16.6643 -21.6 -0.540779
      vertex -16.75 -21.6 -8.61263e-015
    endloop
  endfacet
  facet normal 0.987688 0 0.156435
    outer loop
      vertex -16.6643 -21.6 -0.540779
      vertex -16.75 -26.4 -6.95901e-015
      vertex -16.6643 -26.4 -0.540779
    endloop
  endfacet
  facet normal -0.156435 0 0.987688
    outer loop
      vertex -15 -37.6 -1.75
      vertex -14.4592 -42.4 -1.66435
      vertex -14.4592 -37.6 -1.66435
    endloop
  endfacet
  facet normal -0.156435 0 0.987688
    outer loop
      vertex -14.4592 -42.4 -1.66435
      vertex -15 -37.6 -1.75
      vertex -15 -42.4 -1.75
    endloop
  endfacet
  facet normal -0.156435 0 0.987688
    outer loop
      vertex -15 -21.6 -1.75
      vertex -14.4592 -26.4 -1.66435
      vertex -14.4592 -21.6 -1.66435
    endloop
  endfacet
  facet normal -0.156435 0 0.987688
    outer loop
      vertex -14.4592 -26.4 -1.66435
      vertex -15 -21.6 -1.75
      vertex -15 -26.4 -1.75
    endloop
  endfacet
  facet normal 0.156435 0 -0.987688
    outer loop
      vertex -15.5408 -42.4 1.66435
      vertex -15 -37.6 1.75
      vertex -15 -42.4 1.75
    endloop
  endfacet
  facet normal 0.156435 0 -0.987688
    outer loop
      vertex -15 -37.6 1.75
      vertex -15.5408 -42.4 1.66435
      vertex -15.5408 -37.6 1.66435
    endloop
  endfacet
  facet normal 0.156435 0 -0.987688
    outer loop
      vertex -15.5408 -26.4 1.66435
      vertex -15 -21.6 1.75
      vertex -15 -26.4 1.75
    endloop
  endfacet
  facet normal 0.156435 0 -0.987688
    outer loop
      vertex -15 -21.6 1.75
      vertex -15.5408 -26.4 1.66435
      vertex -15.5408 -21.6 1.66435
    endloop
  endfacet
  facet normal -0.707107 0 0.707107
    outer loop
      vertex -13.9714 -42.4 -1.41578
      vertex -13.5842 -37.6 -1.02862
      vertex -13.9714 -37.6 -1.41578
    endloop
  endfacet
  facet normal -0.707107 0 0.707107
    outer loop
      vertex -13.5842 -37.6 -1.02862
      vertex -13.9714 -42.4 -1.41578
      vertex -13.5842 -42.4 -1.02862
    endloop
  endfacet
  facet normal -0.707107 0 0.707107
    outer loop
      vertex -13.9714 -26.4 -1.41578
      vertex -13.5842 -21.6 -1.02862
      vertex -13.9714 -21.6 -1.41578
    endloop
  endfacet
  facet normal -0.707107 0 0.707107
    outer loop
      vertex -13.5842 -21.6 -1.02862
      vertex -13.9714 -26.4 -1.41578
      vertex -13.5842 -26.4 -1.02862
    endloop
  endfacet
  facet normal -0.891006 0 0.453991
    outer loop
      vertex -13.5842 -42.4 -1.02862
      vertex -13.3357 -37.6 -0.540779
      vertex -13.5842 -37.6 -1.02862
    endloop
  endfacet
  facet normal -0.891006 0 0.453991
    outer loop
      vertex -13.3357 -37.6 -0.540779
      vertex -13.5842 -42.4 -1.02862
      vertex -13.3357 -42.4 -0.540779
    endloop
  endfacet
  facet normal -0.891006 0 0.453991
    outer loop
      vertex -13.5842 -26.4 -1.02862
      vertex -13.3357 -21.6 -0.540779
      vertex -13.5842 -21.6 -1.02862
    endloop
  endfacet
  facet normal -0.891006 0 0.453991
    outer loop
      vertex -13.3357 -21.6 -0.540779
      vertex -13.5842 -26.4 -1.02862
      vertex -13.3357 -26.4 -0.540779
    endloop
  endfacet
  facet normal -0.453991 0 0.891006
    outer loop
      vertex -14.4592 -37.6 -1.66435
      vertex -13.9714 -42.4 -1.41578
      vertex -13.9714 -37.6 -1.41578
    endloop
  endfacet
  facet normal -0.453991 0 0.891006
    outer loop
      vertex -13.9714 -42.4 -1.41578
      vertex -14.4592 -37.6 -1.66435
      vertex -14.4592 -42.4 -1.66435
    endloop
  endfacet
  facet normal -0.453991 0 0.891006
    outer loop
      vertex -14.4592 -21.6 -1.66435
      vertex -13.9714 -26.4 -1.41578
      vertex -13.9714 -21.6 -1.41578
    endloop
  endfacet
  facet normal -0.453991 0 0.891006
    outer loop
      vertex -13.9714 -26.4 -1.41578
      vertex -14.4592 -21.6 -1.66435
      vertex -14.4592 -26.4 -1.66435
    endloop
  endfacet
  facet normal 0.453991 0 0.891006
    outer loop
      vertex -16.0286 -37.6 -1.41578
      vertex -15.5408 -42.4 -1.66435
      vertex -15.5408 -37.6 -1.66435
    endloop
  endfacet
  facet normal 0.453991 0 0.891006
    outer loop
      vertex -15.5408 -42.4 -1.66435
      vertex -16.0286 -37.6 -1.41578
      vertex -16.0286 -42.4 -1.41578
    endloop
  endfacet
  facet normal 0.453991 0 0.891006
    outer loop
      vertex -16.0286 -21.6 -1.41578
      vertex -15.5408 -26.4 -1.66435
      vertex -15.5408 -21.6 -1.66435
    endloop
  endfacet
  facet normal 0.453991 0 0.891006
    outer loop
      vertex -15.5408 -26.4 -1.66435
      vertex -16.0286 -21.6 -1.41578
      vertex -16.0286 -26.4 -1.41578
    endloop
  endfacet
  facet normal 0.707107 -0 0.707107
    outer loop
      vertex -16.4158 -42.4 -1.02862
      vertex -16.0286 -37.6 -1.41578
      vertex -16.4158 -37.6 -1.02862
    endloop
  endfacet
  facet normal 0.707107 0 0.707107
    outer loop
      vertex -16.0286 -37.6 -1.41578
      vertex -16.4158 -42.4 -1.02862
      vertex -16.0286 -42.4 -1.41578
    endloop
  endfacet
  facet normal 0.707107 -0 0.707107
    outer loop
      vertex -16.4158 -26.4 -1.02862
      vertex -16.0286 -21.6 -1.41578
      vertex -16.4158 -21.6 -1.02862
    endloop
  endfacet
  facet normal 0.707107 0 0.707107
    outer loop
      vertex -16.0286 -21.6 -1.41578
      vertex -16.4158 -26.4 -1.02862
      vertex -16.0286 -26.4 -1.41578
    endloop
  endfacet
  facet normal 0.156435 0 0.987688
    outer loop
      vertex -15.5408 -37.6 -1.66435
      vertex -15 -42.4 -1.75
      vertex -15 -37.6 -1.75
    endloop
  endfacet
  facet normal 0.156435 0 0.987688
    outer loop
      vertex -15 -42.4 -1.75
      vertex -15.5408 -37.6 -1.66435
      vertex -15.5408 -42.4 -1.66435
    endloop
  endfacet
  facet normal 0.156435 0 0.987688
    outer loop
      vertex -15.5408 -21.6 -1.66435
      vertex -15 -26.4 -1.75
      vertex -15 -21.6 -1.75
    endloop
  endfacet
  facet normal 0.156435 0 0.987688
    outer loop
      vertex -15 -26.4 -1.75
      vertex -15.5408 -21.6 -1.66435
      vertex -15.5408 -26.4 -1.66435
    endloop
  endfacet
  facet normal -0.891006 0 -0.453991
    outer loop
      vertex -13.3357 -42.4 0.540779
      vertex -13.5842 -37.6 1.02862
      vertex -13.3357 -37.6 0.540779
    endloop
  endfacet
  facet normal -0.891006 -0 -0.453991
    outer loop
      vertex -13.5842 -37.6 1.02862
      vertex -13.3357 -42.4 0.540779
      vertex -13.5842 -42.4 1.02862
    endloop
  endfacet
  facet normal -0.891006 0 -0.453991
    outer loop
      vertex -13.3357 -26.4 0.540779
      vertex -13.5842 -21.6 1.02862
      vertex -13.3357 -21.6 0.540779
    endloop
  endfacet
  facet normal -0.891006 -0 -0.453991
    outer loop
      vertex -13.5842 -21.6 1.02862
      vertex -13.3357 -26.4 0.540779
      vertex -13.5842 -26.4 1.02862
    endloop
  endfacet
  facet normal 0.707107 0 -0.707107
    outer loop
      vertex -16.0286 -42.4 1.41578
      vertex -16.4158 -37.6 1.02862
      vertex -16.0286 -37.6 1.41578
    endloop
  endfacet
  facet normal 0.707107 0 -0.707107
    outer loop
      vertex -16.4158 -37.6 1.02862
      vertex -16.0286 -42.4 1.41578
      vertex -16.4158 -42.4 1.02862
    endloop
  endfacet
  facet normal 0.707107 0 -0.707107
    outer loop
      vertex -16.0286 -26.4 1.41578
      vertex -16.4158 -21.6 1.02862
      vertex -16.0286 -21.6 1.41578
    endloop
  endfacet
  facet normal 0.707107 0 -0.707107
    outer loop
      vertex -16.4158 -21.6 1.02862
      vertex -16.0286 -26.4 1.41578
      vertex -16.4158 -26.4 1.02862
    endloop
  endfacet
  facet normal 0.987688 0 -0.156435
    outer loop
      vertex -16.6643 -42.4 0.540779
      vertex -16.75 -37.6 -3.10055e-015
      vertex -16.6643 -37.6 0.540779
    endloop
  endfacet
  facet normal 0.987688 -5.38927e-017 -0.156435
    outer loop
      vertex -16.75 -37.6 -3.10055e-015
      vertex -16.6643 -42.4 0.540779
      vertex -16.75 -42.4 -1.44692e-015
    endloop
  endfacet
  facet normal 0.987688 0 -0.156435
    outer loop
      vertex -16.6643 -26.4 0.540779
      vertex -16.75 -21.6 -8.61263e-015
      vertex -16.6643 -21.6 0.540779
    endloop
  endfacet
  facet normal 0.987688 -5.38927e-017 -0.156435
    outer loop
      vertex -16.75 -21.6 -8.61263e-015
      vertex -16.6643 -26.4 0.540779
      vertex -16.75 -26.4 -6.95901e-015
    endloop
  endfacet
  facet normal 0.891006 -0 0.453991
    outer loop
      vertex -16.6643 -42.4 -0.540779
      vertex -16.4158 -37.6 -1.02862
      vertex -16.6643 -37.6 -0.540779
    endloop
  endfacet
  facet normal 0.891006 0 0.453991
    outer loop
      vertex -16.4158 -37.6 -1.02862
      vertex -16.6643 -42.4 -0.540779
      vertex -16.4158 -42.4 -1.02862
    endloop
  endfacet
  facet normal 0.891006 -0 0.453991
    outer loop
      vertex -16.6643 -26.4 -0.540779
      vertex -16.4158 -21.6 -1.02862
      vertex -16.6643 -21.6 -0.540779
    endloop
  endfacet
  facet normal 0.891006 0 0.453991
    outer loop
      vertex -16.4158 -21.6 -1.02862
      vertex -16.6643 -26.4 -0.540779
      vertex -16.4158 -26.4 -1.02862
    endloop
  endfacet
  facet normal -0.987688 -5.38927e-017 -0.156435
    outer loop
      vertex -13.25 -42.4 -1.44692e-015
      vertex -13.3357 -37.6 0.540779
      vertex -13.25 -37.6 -3.10055e-015
    endloop
  endfacet
  facet normal -0.987688 -0 -0.156435
    outer loop
      vertex -13.3357 -37.6 0.540779
      vertex -13.25 -42.4 -1.44692e-015
      vertex -13.3357 -42.4 0.540779
    endloop
  endfacet
  facet normal -0.987688 -5.38927e-017 -0.156435
    outer loop
      vertex -13.25 -26.4 -6.95901e-015
      vertex -13.3357 -21.6 0.540779
      vertex -13.25 -21.6 -8.61263e-015
    endloop
  endfacet
  facet normal -0.987688 -0 -0.156435
    outer loop
      vertex -13.3357 -21.6 0.540779
      vertex -13.25 -26.4 -6.95901e-015
      vertex -13.3357 -26.4 0.540779
    endloop
  endfacet
  facet normal -0.156435 0 -0.987688
    outer loop
      vertex -15 -42.4 1.75
      vertex -14.4592 -37.6 1.66435
      vertex -14.4592 -42.4 1.66435
    endloop
  endfacet
  facet normal -0.156435 0 -0.987688
    outer loop
      vertex -14.4592 -37.6 1.66435
      vertex -15 -42.4 1.75
      vertex -15 -37.6 1.75
    endloop
  endfacet
  facet normal -0.156435 0 -0.987688
    outer loop
      vertex -15 -26.4 1.75
      vertex -14.4592 -21.6 1.66435
      vertex -14.4592 -26.4 1.66435
    endloop
  endfacet
  facet normal -0.156435 0 -0.987688
    outer loop
      vertex -14.4592 -21.6 1.66435
      vertex -15 -26.4 1.75
      vertex -15 -21.6 1.75
    endloop
  endfacet
  facet normal -0.707107 0 -0.707107
    outer loop
      vertex -13.5842 -42.4 1.02862
      vertex -13.9714 -37.6 1.41578
      vertex -13.5842 -37.6 1.02862
    endloop
  endfacet
  facet normal -0.707107 -0 -0.707107
    outer loop
      vertex -13.9714 -37.6 1.41578
      vertex -13.5842 -42.4 1.02862
      vertex -13.9714 -42.4 1.41578
    endloop
  endfacet
  facet normal -0.707107 0 -0.707107
    outer loop
      vertex -13.5842 -26.4 1.02862
      vertex -13.9714 -21.6 1.41578
      vertex -13.5842 -21.6 1.02862
    endloop
  endfacet
  facet normal -0.707107 -0 -0.707107
    outer loop
      vertex -13.9714 -21.6 1.41578
      vertex -13.5842 -26.4 1.02862
      vertex -13.9714 -26.4 1.41578
    endloop
  endfacet
  facet normal 0.453991 0 -0.891006
    outer loop
      vertex -16.0286 -42.4 1.41578
      vertex -15.5408 -37.6 1.66435
      vertex -15.5408 -42.4 1.66435
    endloop
  endfacet
  facet normal 0.453991 0 -0.891006
    outer loop
      vertex -15.5408 -37.6 1.66435
      vertex -16.0286 -42.4 1.41578
      vertex -16.0286 -37.6 1.41578
    endloop
  endfacet
  facet normal 0.453991 0 -0.891006
    outer loop
      vertex -16.0286 -26.4 1.41578
      vertex -15.5408 -21.6 1.66435
      vertex -15.5408 -26.4 1.66435
    endloop
  endfacet
  facet normal 0.453991 0 -0.891006
    outer loop
      vertex -15.5408 -21.6 1.66435
      vertex -16.0286 -26.4 1.41578
      vertex -16.0286 -21.6 1.41578
    endloop
  endfacet
  facet normal 0.891006 0 -0.453991
    outer loop
      vertex -16.4158 -42.4 1.02862
      vertex -16.6643 -37.6 0.540779
      vertex -16.4158 -37.6 1.02862
    endloop
  endfacet
  facet normal 0.891006 0 -0.453991
    outer loop
      vertex -16.6643 -37.6 0.540779
      vertex -16.4158 -42.4 1.02862
      vertex -16.6643 -42.4 0.540779
    endloop
  endfacet
  facet normal 0.891006 0 -0.453991
    outer loop
      vertex -16.4158 -26.4 1.02862
      vertex -16.6643 -21.6 0.540779
      vertex -16.4158 -21.6 1.02862
    endloop
  endfacet
  facet normal 0.891006 0 -0.453991
    outer loop
      vertex -16.6643 -21.6 0.540779
      vertex -16.4158 -26.4 1.02862
      vertex -16.6643 -26.4 0.540779
    endloop
  endfacet
  facet normal -0.453991 0 -0.891006
    outer loop
      vertex -14.4592 -42.4 1.66435
      vertex -13.9714 -37.6 1.41578
      vertex -13.9714 -42.4 1.41578
    endloop
  endfacet
  facet normal -0.453991 0 -0.891006
    outer loop
      vertex -13.9714 -37.6 1.41578
      vertex -14.4592 -42.4 1.66435
      vertex -14.4592 -37.6 1.66435
    endloop
  endfacet
  facet normal -0.453991 0 -0.891006
    outer loop
      vertex -14.4592 -26.4 1.66435
      vertex -13.9714 -21.6 1.41578
      vertex -13.9714 -26.4 1.41578
    endloop
  endfacet
  facet normal -0.453991 0 -0.891006
    outer loop
      vertex -13.9714 -21.6 1.41578
      vertex -14.4592 -26.4 1.66435
      vertex -14.4592 -21.6 1.66435
    endloop
  endfacet
  facet normal -0.866025 -0.5 0
    outer loop
      vertex 33.7003 107.762 -5.05
      vertex 32.7334 109.437 5.05
      vertex 32.7334 109.437 -5.05
    endloop
  endfacet
  facet normal -0.866025 -0.5 0
    outer loop
      vertex 32.7334 109.437 5.05
      vertex 33.7003 107.762 -5.05
      vertex 33.7003 107.762 5.05
    endloop
  endfacet
  facet normal -0.994522 -0.104528 0
    outer loop
      vertex 34.5 104 -5.05
      vertex 34.2979 105.923 5.05
      vertex 34.2979 105.923 -5.05
    endloop
  endfacet
  facet normal -0.994522 -0.104528 0
    outer loop
      vertex 34.2979 105.923 5.05
      vertex 34.5 104 -5.05
      vertex 34.5 104 5.05
    endloop
  endfacet
  facet normal 0.994522 -0.104528 0
    outer loop
      vertex 16 104 5.05
      vertex 16.2021 105.923 -5.05
      vertex 16.2021 105.923 5.05
    endloop
  endfacet
  facet normal 0.994522 -0.104528 0
    outer loop
      vertex 16.2021 105.923 -5.05
      vertex 16 104 5.05
      vertex 16 104 -5.05
    endloop
  endfacet
  facet normal -0.743146 -0.66913 0
    outer loop
      vertex 32.7334 109.437 -5.05
      vertex 31.4395 110.874 5.05
      vertex 31.4395 110.874 -5.05
    endloop
  endfacet
  facet normal -0.743146 -0.66913 0
    outer loop
      vertex 31.4395 110.874 5.05
      vertex 32.7334 109.437 -5.05
      vertex 32.7334 109.437 5.05
    endloop
  endfacet
  facet normal -0.207911 -0.978148 0
    outer loop
      vertex 26.2169 113.199 -5.05
      vertex 28.1084 112.797 5.05
      vertex 26.2169 113.199 5.05
    endloop
  endfacet
  facet normal -0.207911 -0.978148 -0
    outer loop
      vertex 28.1084 112.797 5.05
      vertex 26.2169 113.199 -5.05
      vertex 28.1084 112.797 -5.05
    endloop
  endfacet
  facet normal 0.587784 -0.809018 0
    outer loop
      vertex 19.0605 110.874 -5.05
      vertex 20.625 112.011 5.05
      vertex 19.0605 110.874 5.05
    endloop
  endfacet
  facet normal 0.587784 -0.809018 0
    outer loop
      vertex 20.625 112.011 5.05
      vertex 19.0605 110.874 -5.05
      vertex 20.625 112.011 -5.05
    endloop
  endfacet
  facet normal 0.951057 -0.309017 0
    outer loop
      vertex 16.2021 105.923 5.05
      vertex 16.7997 107.762 -5.05
      vertex 16.7997 107.762 5.05
    endloop
  endfacet
  facet normal 0.951057 -0.309017 0
    outer loop
      vertex 16.7997 107.762 -5.05
      vertex 16.2021 105.923 5.05
      vertex 16.2021 105.923 -5.05
    endloop
  endfacet
  facet normal -0.951056 -0.309018 0
    outer loop
      vertex 34.2979 105.923 -5.05
      vertex 33.7003 107.762 5.05
      vertex 33.7003 107.762 -5.05
    endloop
  endfacet
  facet normal -0.951056 -0.309018 0
    outer loop
      vertex 33.7003 107.762 5.05
      vertex 34.2979 105.923 -5.05
      vertex 34.2979 105.923 5.05
    endloop
  endfacet
  facet normal -0.587785 -0.809017 0
    outer loop
      vertex 29.875 112.011 -5.05
      vertex 31.4395 110.874 5.05
      vertex 29.875 112.011 5.05
    endloop
  endfacet
  facet normal -0.587785 -0.809017 -0
    outer loop
      vertex 31.4395 110.874 5.05
      vertex 29.875 112.011 -5.05
      vertex 31.4395 110.874 -5.05
    endloop
  endfacet
  facet normal 0.207911 -0.978148 0
    outer loop
      vertex 22.3916 112.797 -5.05
      vertex 24.2831 113.199 5.05
      vertex 22.3916 112.797 5.05
    endloop
  endfacet
  facet normal 0.207911 -0.978148 0
    outer loop
      vertex 24.2831 113.199 5.05
      vertex 22.3916 112.797 -5.05
      vertex 24.2831 113.199 -5.05
    endloop
  endfacet
  facet normal -0.406736 -0.913546 0
    outer loop
      vertex 28.1084 112.797 -5.05
      vertex 29.875 112.011 5.05
      vertex 28.1084 112.797 5.05
    endloop
  endfacet
  facet normal -0.406736 -0.913546 -0
    outer loop
      vertex 29.875 112.011 5.05
      vertex 28.1084 112.797 -5.05
      vertex 29.875 112.011 -5.05
    endloop
  endfacet
  facet normal 0.743146 -0.66913 0
    outer loop
      vertex 17.7666 109.437 5.05
      vertex 19.0605 110.874 -5.05
      vertex 19.0605 110.874 5.05
    endloop
  endfacet
  facet normal 0.743146 -0.66913 0
    outer loop
      vertex 19.0605 110.874 -5.05
      vertex 17.7666 109.437 5.05
      vertex 17.7666 109.437 -5.05
    endloop
  endfacet
  facet normal 0.406737 -0.913546 0
    outer loop
      vertex 20.625 112.011 -5.05
      vertex 22.3916 112.797 5.05
      vertex 20.625 112.011 5.05
    endloop
  endfacet
  facet normal 0.406737 -0.913546 0
    outer loop
      vertex 22.3916 112.797 5.05
      vertex 20.625 112.011 -5.05
      vertex 22.3916 112.797 -5.05
    endloop
  endfacet
  facet normal 0.866025 -0.5 0
    outer loop
      vertex 16.7997 107.762 5.05
      vertex 17.7666 109.437 -5.05
      vertex 17.7666 109.437 5.05
    endloop
  endfacet
  facet normal 0.866025 -0.5 0
    outer loop
      vertex 17.7666 109.437 -5.05
      vertex 16.7997 107.762 5.05
      vertex 16.7997 107.762 -5.05
    endloop
  endfacet
  facet normal 0 -1 0
    outer loop
      vertex 24.2831 113.199 -5.05
      vertex 26.2169 113.199 5.05
      vertex 24.2831 113.199 5.05
    endloop
  endfacet
  facet normal 0 -1 -0
    outer loop
      vertex 26.2169 113.199 5.05
      vertex 24.2831 113.199 -5.05
      vertex 26.2169 113.199 -5.05
    endloop
  endfacet
  facet normal 1 -0 0
    outer loop
      vertex 16 -16 5.05
      vertex 16 104 -5.05
      vertex 16 104 5.05
    endloop
  endfacet
  facet normal 1 0 0
    outer loop
      vertex 16 104 -5.05
      vertex 16 -16 5.05
      vertex 16 -16 -5.05
    endloop
  endfacet
  facet normal -1 0 0
    outer loop
      vertex 34.5 -52 -5.05
      vertex 34.5 104 5.05
      vertex 34.5 104 -5.05
    endloop
  endfacet
  facet normal -1 -0 0
    outer loop
      vertex 34.5 104 5.05
      vertex 34.5 -52 -5.05
      vertex 34.5 -52 5.05
    endloop
  endfacet
  facet normal 0 0 -1
    outer loop
      vertex 12 104 -5.05
      vertex 16 104 -5.05
      vertex 16 -16 -5.05
    endloop
  endfacet
  facet normal 0 -0 -1
    outer loop
      vertex 12.2895 106.755 -5.05
      vertex 16 104 -5.05
      vertex 12 104 -5.05
    endloop
  endfacet
  facet normal 0 0 -1
    outer loop
      vertex 16 104 -5.05
      vertex 13.1455 109.389 -5.05
      vertex 14.5305 111.788 -5.05
    endloop
  endfacet
  facet normal 0 0 -1
    outer loop
      vertex 12 104 -5.05
      vertex 16 -16 -5.05
      vertex 12 -16 -5.05
    endloop
  endfacet
  facet normal 0 0 -1
    outer loop
      vertex 16 104 -5.05
      vertex 12.2895 106.755 -5.05
      vertex 13.1455 109.389 -5.05
    endloop
  endfacet
  facet normal 0 0 -1
    outer loop
      vertex 34.5 104 -5.05
      vertex 38.5 104 -5.05
      vertex 38.5 -52 -5.05
    endloop
  endfacet
  facet normal 0 0 -1
    outer loop
      vertex 38.5 104 -5.05
      vertex 34.5 104 -5.05
      vertex 38.2105 106.755 -5.05
    endloop
  endfacet
  facet normal 0 0 -1
    outer loop
      vertex 34.2979 105.923 -5.05
      vertex 38.2105 106.755 -5.05
      vertex 34.5 104 -5.05
    endloop
  endfacet
  facet normal 0 0 -1
    outer loop
      vertex 34.5 104 -5.05
      vertex 38.5 -52 -5.05
      vertex 34.5 -52 -5.05
    endloop
  endfacet
  facet normal -0 0 -1
    outer loop
      vertex 38.2105 106.755 -5.05
      vertex 34.2979 105.923 -5.05
      vertex 37.3545 109.389 -5.05
    endloop
  endfacet
  facet normal 0 0 -1
    outer loop
      vertex 33.7003 107.762 -5.05
      vertex 37.3545 109.389 -5.05
      vertex 34.2979 105.923 -5.05
    endloop
  endfacet
  facet normal -0 0 -1
    outer loop
      vertex 37.3545 109.389 -5.05
      vertex 33.7003 107.762 -5.05
      vertex 35.9695 111.788 -5.05
    endloop
  endfacet
  facet normal 0 0 -1
    outer loop
      vertex 32.7334 109.437 -5.05
      vertex 35.9695 111.788 -5.05
      vertex 33.7003 107.762 -5.05
    endloop
  endfacet
  facet normal -0 0 -1
    outer loop
      vertex 35.9695 111.788 -5.05
      vertex 32.7334 109.437 -5.05
      vertex 34.116 113.847 -5.05
    endloop
  endfacet
  facet normal 0 0 -1
    outer loop
      vertex 31.4395 110.874 -5.05
      vertex 34.116 113.847 -5.05
      vertex 32.7334 109.437 -5.05
    endloop
  endfacet
  facet normal -0 0 -1
    outer loop
      vertex 34.116 113.847 -5.05
      vertex 31.4395 110.874 -5.05
      vertex 31.875 115.475 -5.05
    endloop
  endfacet
  facet normal 0 0 -1
    outer loop
      vertex 29.875 112.011 -5.05
      vertex 31.875 115.475 -5.05
      vertex 31.4395 110.874 -5.05
    endloop
  endfacet
  facet normal 0 0 -1
    outer loop
      vertex 29.875 112.011 -5.05
      vertex 29.3445 116.602 -5.05
      vertex 31.875 115.475 -5.05
    endloop
  endfacet
  facet normal 0 0 -1
    outer loop
      vertex 28.1084 112.797 -5.05
      vertex 29.3445 116.602 -5.05
      vertex 29.875 112.011 -5.05
    endloop
  endfacet
  facet normal 0 0 -1
    outer loop
      vertex 28.1084 112.797 -5.05
      vertex 26.635 117.177 -5.05
      vertex 29.3445 116.602 -5.05
    endloop
  endfacet
  facet normal 0 0 -1
    outer loop
      vertex 26.2169 113.199 -5.05
      vertex 26.635 117.177 -5.05
      vertex 28.1084 112.797 -5.05
    endloop
  endfacet
  facet normal 0 0 -1
    outer loop
      vertex 24.2831 113.199 -5.05
      vertex 26.635 117.177 -5.05
      vertex 26.2169 113.199 -5.05
    endloop
  endfacet
  facet normal 0 0 -1
    outer loop
      vertex 24.2831 113.199 -5.05
      vertex 23.865 117.177 -5.05
      vertex 26.635 117.177 -5.05
    endloop
  endfacet
  facet normal 0 0 -1
    outer loop
      vertex 22.3916 112.797 -5.05
      vertex 23.865 117.177 -5.05
      vertex 24.2831 113.199 -5.05
    endloop
  endfacet
  facet normal 0 0 -1
    outer loop
      vertex 22.3916 112.797 -5.05
      vertex 21.1555 116.602 -5.05
      vertex 23.865 117.177 -5.05
    endloop
  endfacet
  facet normal 0 0 -1
    outer loop
      vertex 20.625 112.011 -5.05
      vertex 21.1555 116.602 -5.05
      vertex 22.3916 112.797 -5.05
    endloop
  endfacet
  facet normal 0 0 -1
    outer loop
      vertex 18.625 115.475 -5.05
      vertex 20.625 112.011 -5.05
      vertex 19.0605 110.874 -5.05
    endloop
  endfacet
  facet normal 0 0 -1
    outer loop
      vertex 20.625 112.011 -5.05
      vertex 18.625 115.475 -5.05
      vertex 21.1555 116.602 -5.05
    endloop
  endfacet
  facet normal 0 0 -1
    outer loop
      vertex 16.384 113.847 -5.05
      vertex 19.0605 110.874 -5.05
      vertex 17.7666 109.437 -5.05
    endloop
  endfacet
  facet normal 0 0 -1
    outer loop
      vertex 14.5305 111.788 -5.05
      vertex 17.7666 109.437 -5.05
      vertex 16.7997 107.762 -5.05
    endloop
  endfacet
  facet normal 0 0 -1
    outer loop
      vertex 19.0605 110.874 -5.05
      vertex 16.384 113.847 -5.05
      vertex 18.625 115.475 -5.05
    endloop
  endfacet
  facet normal 0 0 -1
    outer loop
      vertex 14.5305 111.788 -5.05
      vertex 16.7997 107.762 -5.05
      vertex 16.2021 105.923 -5.05
    endloop
  endfacet
  facet normal 0 0 -1
    outer loop
      vertex 14.5305 111.788 -5.05
      vertex 16.2021 105.923 -5.05
      vertex 16 104 -5.05
    endloop
  endfacet
  facet normal 0 0 -1
    outer loop
      vertex 17.7666 109.437 -5.05
      vertex 14.5305 111.788 -5.05
      vertex 16.384 113.847 -5.05
    endloop
  endfacet
  facet normal 0.406737 0.913545 -0
    outer loop
      vertex 31.875 115.475 -5.05
      vertex 29.3445 116.602 5.05
      vertex 31.875 115.475 5.05
    endloop
  endfacet
  facet normal 0.406737 0.913545 0
    outer loop
      vertex 29.3445 116.602 5.05
      vertex 31.875 115.475 -5.05
      vertex 29.3445 116.602 -5.05
    endloop
  endfacet
  facet normal -0.994522 0.104528 0
    outer loop
      vertex 12 104 -5.05
      vertex 12.2895 106.755 5.05
      vertex 12.2895 106.755 -5.05
    endloop
  endfacet
  facet normal -0.994522 0.104528 0
    outer loop
      vertex 12.2895 106.755 5.05
      vertex 12 104 -5.05
      vertex 12 104 5.05
    endloop
  endfacet
  facet normal 0 1 -0
    outer loop
      vertex 26.635 117.177 -5.05
      vertex 23.865 117.177 5.05
      vertex 26.635 117.177 5.05
    endloop
  endfacet
  facet normal 0 1 0
    outer loop
      vertex 23.865 117.177 5.05
      vertex 26.635 117.177 -5.05
      vertex 23.865 117.177 -5.05
    endloop
  endfacet
  facet normal -0.406737 0.913545 0
    outer loop
      vertex 21.1555 116.602 -5.05
      vertex 18.625 115.475 5.05
      vertex 21.1555 116.602 5.05
    endloop
  endfacet
  facet normal -0.406737 0.913545 0
    outer loop
      vertex 18.625 115.475 5.05
      vertex 21.1555 116.602 -5.05
      vertex 18.625 115.475 -5.05
    endloop
  endfacet
  facet normal -0.951057 0.309017 0
    outer loop
      vertex 12.2895 106.755 -5.05
      vertex 13.1455 109.389 5.05
      vertex 13.1455 109.389 -5.05
    endloop
  endfacet
  facet normal -0.951057 0.309017 0
    outer loop
      vertex 13.1455 109.389 5.05
      vertex 12.2895 106.755 -5.05
      vertex 12.2895 106.755 5.05
    endloop
  endfacet
  facet normal 0.866026 0.5 0
    outer loop
      vertex 37.3545 109.389 5.05
      vertex 35.9695 111.788 -5.05
      vertex 35.9695 111.788 5.05
    endloop
  endfacet
  facet normal 0.866026 0.5 0
    outer loop
      vertex 35.9695 111.788 -5.05
      vertex 37.3545 109.389 5.05
      vertex 37.3545 109.389 -5.05
    endloop
  endfacet
  facet normal 0.743144 0.669131 0
    outer loop
      vertex 35.9695 111.788 5.05
      vertex 34.116 113.847 -5.05
      vertex 34.116 113.847 5.05
    endloop
  endfacet
  facet normal 0.743144 0.669131 0
    outer loop
      vertex 34.116 113.847 -5.05
      vertex 35.9695 111.788 5.05
      vertex 35.9695 111.788 -5.05
    endloop
  endfacet
  facet normal 0.587786 0.809016 -0
    outer loop
      vertex 34.116 113.847 -5.05
      vertex 31.875 115.475 5.05
      vertex 34.116 113.847 5.05
    endloop
  endfacet
  facet normal 0.587786 0.809016 0
    outer loop
      vertex 31.875 115.475 5.05
      vertex 34.116 113.847 -5.05
      vertex 31.875 115.475 -5.05
    endloop
  endfacet
  facet normal 0.20791 0.978148 -0
    outer loop
      vertex 29.3445 116.602 -5.05
      vertex 26.635 117.177 5.05
      vertex 29.3445 116.602 5.05
    endloop
  endfacet
  facet normal 0.20791 0.978148 0
    outer loop
      vertex 26.635 117.177 5.05
      vertex 29.3445 116.602 -5.05
      vertex 26.635 117.177 -5.05
    endloop
  endfacet
  facet normal -0.866026 0.5 0
    outer loop
      vertex 13.1455 109.389 -5.05
      vertex 14.5305 111.788 5.05
      vertex 14.5305 111.788 -5.05
    endloop
  endfacet
  facet normal -0.866026 0.5 0
    outer loop
      vertex 14.5305 111.788 5.05
      vertex 13.1455 109.389 -5.05
      vertex 13.1455 109.389 5.05
    endloop
  endfacet
  facet normal -0.587786 0.809016 0
    outer loop
      vertex 18.625 115.475 -5.05
      vertex 16.384 113.847 5.05
      vertex 18.625 115.475 5.05
    endloop
  endfacet
  facet normal -0.587786 0.809016 0
    outer loop
      vertex 16.384 113.847 5.05
      vertex 18.625 115.475 -5.05
      vertex 16.384 113.847 -5.05
    endloop
  endfacet
  facet normal -0.20791 0.978148 0
    outer loop
      vertex 23.865 117.177 -5.05
      vertex 21.1555 116.602 5.05
      vertex 23.865 117.177 5.05
    endloop
  endfacet
  facet normal -0.20791 0.978148 0
    outer loop
      vertex 21.1555 116.602 5.05
      vertex 23.865 117.177 -5.05
      vertex 21.1555 116.602 -5.05
    endloop
  endfacet
  facet normal -0.743144 0.669131 0
    outer loop
      vertex 14.5305 111.788 -5.05
      vertex 16.384 113.847 5.05
      vertex 16.384 113.847 -5.05
    endloop
  endfacet
  facet normal -0.743144 0.669131 0
    outer loop
      vertex 16.384 113.847 5.05
      vertex 14.5305 111.788 -5.05
      vertex 14.5305 111.788 5.05
    endloop
  endfacet
  facet normal 0.994522 0.104528 0
    outer loop
      vertex 38.5 104 5.05
      vertex 38.2105 106.755 -5.05
      vertex 38.2105 106.755 5.05
    endloop
  endfacet
  facet normal 0.994522 0.104528 0
    outer loop
      vertex 38.2105 106.755 -5.05
      vertex 38.5 104 5.05
      vertex 38.5 104 -5.05
    endloop
  endfacet
  facet normal 0.951056 0.309018 0
    outer loop
      vertex 38.2105 106.755 5.05
      vertex 37.3545 109.389 -5.05
      vertex 37.3545 109.389 5.05
    endloop
  endfacet
  facet normal 0.951056 0.309018 0
    outer loop
      vertex 37.3545 109.389 -5.05
      vertex 38.2105 106.755 5.05
      vertex 38.2105 106.755 -5.05
    endloop
  endfacet
  facet normal 0 0 1
    outer loop
      vertex 38.2105 106.755 5.05
      vertex 34.2979 105.923 5.05
      vertex 34.5 104 5.05
    endloop
  endfacet
  facet normal 0 0 1
    outer loop
      vertex 32.7334 109.437 5.05
      vertex 35.9695 111.788 5.05
      vertex 34.116 113.847 5.05
    endloop
  endfacet
  facet normal 0 0 1
    outer loop
      vertex 37.3545 109.389 5.05
      vertex 33.7003 107.762 5.05
      vertex 34.2979 105.923 5.05
    endloop
  endfacet
  facet normal 0 0 1
    outer loop
      vertex 35.9695 111.788 5.05
      vertex 32.7334 109.437 5.05
      vertex 33.7003 107.762 5.05
    endloop
  endfacet
  facet normal 0 0 1
    outer loop
      vertex 31.4395 110.874 5.05
      vertex 34.116 113.847 5.05
      vertex 31.875 115.475 5.05
    endloop
  endfacet
  facet normal 0 0 1
    outer loop
      vertex 34.116 113.847 5.05
      vertex 31.4395 110.874 5.05
      vertex 32.7334 109.437 5.05
    endloop
  endfacet
  facet normal 0 0 1
    outer loop
      vertex 31.875 115.475 5.05
      vertex 29.875 112.011 5.05
      vertex 31.4395 110.874 5.05
    endloop
  endfacet
  facet normal 0 0 1
    outer loop
      vertex 29.3445 116.602 5.05
      vertex 29.875 112.011 5.05
      vertex 31.875 115.475 5.05
    endloop
  endfacet
  facet normal 0 0 1
    outer loop
      vertex 29.3445 116.602 5.05
      vertex 28.1084 112.797 5.05
      vertex 29.875 112.011 5.05
    endloop
  endfacet
  facet normal 0 0 1
    outer loop
      vertex 26.635 117.177 5.05
      vertex 28.1084 112.797 5.05
      vertex 29.3445 116.602 5.05
    endloop
  endfacet
  facet normal 0 0 1
    outer loop
      vertex 26.635 117.177 5.05
      vertex 26.2169 113.199 5.05
      vertex 28.1084 112.797 5.05
    endloop
  endfacet
  facet normal 0 0 1
    outer loop
      vertex 26.635 117.177 5.05
      vertex 24.2831 113.199 5.05
      vertex 26.2169 113.199 5.05
    endloop
  endfacet
  facet normal -0 0 1
    outer loop
      vertex 23.865 117.177 5.05
      vertex 24.2831 113.199 5.05
      vertex 26.635 117.177 5.05
    endloop
  endfacet
  facet normal 0 0 1
    outer loop
      vertex 23.865 117.177 5.05
      vertex 22.3916 112.797 5.05
      vertex 24.2831 113.199 5.05
    endloop
  endfacet
  facet normal -0 0 1
    outer loop
      vertex 21.1555 116.602 5.05
      vertex 22.3916 112.797 5.05
      vertex 23.865 117.177 5.05
    endloop
  endfacet
  facet normal 0 0 1
    outer loop
      vertex 21.1555 116.602 5.05
      vertex 20.625 112.011 5.05
      vertex 22.3916 112.797 5.05
    endloop
  endfacet
  facet normal -0 0 1
    outer loop
      vertex 18.625 115.475 5.05
      vertex 20.625 112.011 5.05
      vertex 21.1555 116.602 5.05
    endloop
  endfacet
  facet normal 0 0 1
    outer loop
      vertex 20.625 112.011 5.05
      vertex 18.625 115.475 5.05
      vertex 19.0605 110.874 5.05
    endloop
  endfacet
  facet normal -0 0 1
    outer loop
      vertex 16.384 113.847 5.05
      vertex 19.0605 110.874 5.05
      vertex 18.625 115.475 5.05
    endloop
  endfacet
  facet normal 0 0 1
    outer loop
      vertex 19.0605 110.874 5.05
      vertex 16.384 113.847 5.05
      vertex 17.7666 109.437 5.05
    endloop
  endfacet
  facet normal -0 0 1
    outer loop
      vertex 14.5305 111.788 5.05
      vertex 17.7666 109.437 5.05
      vertex 16.384 113.847 5.05
    endloop
  endfacet
  facet normal 0 0 1
    outer loop
      vertex 17.7666 109.437 5.05
      vertex 14.5305 111.788 5.05
      vertex 16.7997 107.762 5.05
    endloop
  endfacet
  facet normal -0 0 1
    outer loop
      vertex 13.1455 109.389 5.05
      vertex 16.7997 107.762 5.05
      vertex 14.5305 111.788 5.05
    endloop
  endfacet
  facet normal 0 0 1
    outer loop
      vertex 16.7997 107.762 5.05
      vertex 13.1455 109.389 5.05
      vertex 16.2021 105.923 5.05
    endloop
  endfacet
  facet normal -0 0 1
    outer loop
      vertex 12.2895 106.755 5.05
      vertex 16.2021 105.923 5.05
      vertex 13.1455 109.389 5.05
    endloop
  endfacet
  facet normal 0 0 1
    outer loop
      vertex 16.2021 105.923 5.05
      vertex 12.2895 106.755 5.05
      vertex 16 104 5.05
    endloop
  endfacet
  facet normal 0 0 1
    outer loop
      vertex 16 104 5.05
      vertex 12.2895 106.755 5.05
      vertex 12 104 5.05
    endloop
  endfacet
  facet normal 0 0 1
    outer loop
      vertex 16 104 5.05
      vertex 12 104 5.05
      vertex 16 -16 5.05
    endloop
  endfacet
  facet normal 0 0 1
    outer loop
      vertex 16 -16 5.05
      vertex 12 104 5.05
      vertex 12 -16 5.05
    endloop
  endfacet
  facet normal 0 0 1
    outer loop
      vertex 34.5 104 5.05
      vertex 38.5 104 5.05
      vertex 38.2105 106.755 5.05
    endloop
  endfacet
  facet normal 0 0 1
    outer loop
      vertex 34.2979 105.923 5.05
      vertex 38.2105 106.755 5.05
      vertex 37.3545 109.389 5.05
    endloop
  endfacet
  facet normal 0 0 1
    outer loop
      vertex 33.7003 107.762 5.05
      vertex 37.3545 109.389 5.05
      vertex 35.9695 111.788 5.05
    endloop
  endfacet
  facet normal 0 0 1
    outer loop
      vertex 38.5 104 5.05
      vertex 34.5 104 5.05
      vertex 38.5 -52 5.05
    endloop
  endfacet
  facet normal 0 0 1
    outer loop
      vertex 38.5 -52 5.05
      vertex 34.5 104 5.05
      vertex 34.5 -52 5.05
    endloop
  endfacet
  facet normal -1 0 0
    outer loop
      vertex 12 -16 -5.05
      vertex 12 104 5.05
      vertex 12 104 -5.05
    endloop
  endfacet
  facet normal -1 -0 0
    outer loop
      vertex 12 104 5.05
      vertex 12 -16 -5.05
      vertex 12 -16 5.05
    endloop
  endfacet
  facet normal 0 -1 0
    outer loop
      vertex 12 -16 -5.05
      vertex 16 -16 5.05
      vertex 12 -16 5.05
    endloop
  endfacet
  facet normal 0 -1 -0
    outer loop
      vertex 16 -16 5.05
      vertex 12 -16 -5.05
      vertex 16 -16 -5.05
    endloop
  endfacet
  facet normal 1 -0 0
    outer loop
      vertex 38.5 -52 5.05
      vertex 38.5 104 -5.05
      vertex 38.5 104 5.05
    endloop
  endfacet
  facet normal 1 0 0
    outer loop
      vertex 38.5 104 -5.05
      vertex 38.5 -52 5.05
      vertex 38.5 -52 -5.05
    endloop
  endfacet
  facet normal 0 -1 0
    outer loop
      vertex 34.5 -52 -5.05
      vertex 38.5 -52 5.05
      vertex 34.5 -52 5.05
    endloop
  endfacet
  facet normal 0 -1 -0
    outer loop
      vertex 38.5 -52 5.05
      vertex 34.5 -52 -5.05
      vertex 38.5 -52 -5.05
    endloop
  endfacet
endsolid OpenSCAD_Model
